{"glyphs":{"0":{"ha":739,"x_min":50,"x_max":689,"o":"m 372 660 q 526 619 454 660 q 644 503 599 578 q 689 324 689 428 q 644 142 689 219 q 525 22 599 65 q 367 -21 451 -21 q 213 20 285 -21 q 95 137 140 61 q 50 317 50 213 q 95 498 50 421 q 214 617 140 575 q 372 660 288 660 m 374 181 q 559 225 499 181 q 619 321 619 269 q 555 417 619 376 q 365 458 490 458 q 181 417 242 458 q 119 324 119 376 q 185 224 119 268 q 374 181 250 181 z "},"1":{"ha":608,"x_min":65,"x_max":569,"o":"m 431 153 q 440 76 431 101 q 478 42 449 50 q 569 32 508 33 l 569 0 l 83 0 l 83 32 q 176 42 146 33 q 214 76 206 50 q 222 153 222 101 l 222 488 l 94 407 l 65 451 l 374 653 l 440 653 q 433 600 435 626 q 431 547 431 574 l 431 153 z "},"2":{"ha":681,"x_min":46,"x_max":632,"o":"m 600 243 l 632 243 l 618 0 l 46 0 l 46 32 q 81 53 58 39 q 126 83 104 68 q 249 190 204 139 q 317 287 294 242 q 345 367 339 332 q 351 424 351 403 q 328 489 351 464 q 253 514 306 514 q 168 491 207 514 q 82 415 129 468 l 56 438 q 182 600 103 540 q 375 660 261 660 q 524 615 474 660 q 574 489 574 569 q 503 309 574 385 q 315 171 432 233 l 315 167 l 454 167 q 564 187 533 167 q 600 243 594 207 z "},"3":{"ha":706,"x_min":-18,"x_max":653,"o":"m 347 233 l 347 229 q 444 216 392 229 q 544 174 497 203 q 622 97 592 144 q 653 -19 653 49 q 618 -149 653 -90 q 525 -248 583 -207 q 393 -311 467 -289 q 240 -333 319 -333 q 157 -327 204 -333 q 64 -306 110 -321 q -18 -262 18 -290 q 43 -106 -7 -171 q 142 -231 89 -187 q 256 -274 194 -274 q 353 -242 315 -274 q 411 -159 392 -210 q 431 -54 431 -108 q 349 108 431 60 q 126 118 267 156 l 126 171 q 272 245 219 204 q 347 329 325 286 q 369 408 369 372 q 343 486 369 458 q 261 514 317 514 q 163 488 214 514 q 58 401 111 461 l 32 424 q 108 542 63 489 q 217 628 153 596 q 365 660 281 660 q 524 615 464 660 q 585 486 585 569 q 562 393 585 440 q 487 304 539 346 q 347 233 435 263 z "},"4":{"ha":776,"x_min":25,"x_max":731,"o":"m 224 167 l 439 167 l 439 419 l 435 419 l 224 167 m 636 -312 l 431 -333 q 436 -189 433 -275 q 439 0 439 -103 l 25 0 l 25 32 q 60 68 44 50 q 89 104 75 86 l 504 599 q 537 639 521 618 q 568 685 553 660 l 635 685 l 633 167 l 731 167 l 731 0 l 672 0 q 642 -15 650 0 q 633 -56 633 -31 q 634 -185 633 -119 q 636 -312 635 -250 z "},"5":{"ha":672,"x_min":-11,"x_max":619,"o":"m 601 646 l 578 458 l 150 458 l 140 375 q 499 244 378 336 q 619 14 619 153 q 567 -167 619 -89 q 427 -290 515 -246 q 232 -333 339 -333 q 110 -318 179 -333 q -11 -262 42 -303 q 50 -106 0 -171 q 147 -228 93 -182 q 260 -274 200 -274 q 390 -219 347 -274 q 432 -93 432 -165 q 339 93 432 24 q 54 188 246 163 l 114 639 l 496 639 q 555 640 529 639 q 601 646 581 642 z "},"6":{"ha":786,"x_min":50,"x_max":736,"o":"m 621 917 q 272 374 272 786 q 289 202 272 278 q 335 83 306 126 q 404 39 365 39 q 488 113 456 39 q 521 300 521 186 q 489 465 521 411 q 400 518 457 518 q 370 515 386 518 q 342 506 354 513 l 319 528 q 392 581 351 561 q 490 601 433 601 q 667 530 597 601 q 736 326 736 458 q 704 171 736 236 q 619 63 672 106 q 506 0 567 21 q 386 -21 444 -21 q 223 23 300 -21 q 98 153 146 67 q 50 364 50 239 q 95 581 50 482 q 219 758 140 681 q 401 886 297 835 q 621 958 504 938 l 621 917 z "},"7":{"ha":708,"x_min":47,"x_max":676,"o":"m 676 639 l 676 607 q 615 473 650 556 q 543 290 581 390 q 472 82 506 189 q 414 -127 439 -25 q 379 -312 389 -229 l 129 -312 q 276 -47 200 -174 q 419 205 351 81 q 535 458 488 329 l 197 458 q 108 431 131 458 q 79 347 85 404 l 47 347 l 47 639 l 676 639 z "},"8":{"ha":735,"x_min":50,"x_max":685,"o":"m 685 243 q 640 94 685 153 q 519 7 594 35 q 356 -21 444 -21 q 206 2 275 -21 q 93 72 136 25 q 50 190 50 119 q 78 291 50 249 q 151 361 107 333 q 247 403 196 389 q 103 525 157 463 q 50 681 50 588 q 94 825 50 767 q 213 914 138 883 q 382 944 289 944 q 526 924 457 944 q 640 858 596 903 q 685 739 685 813 q 654 632 685 678 q 576 555 624 586 q 478 508 528 524 q 599 419 554 458 q 665 339 644 379 q 685 243 685 299 m 251 742 q 267 678 251 706 q 319 620 282 650 q 422 546 357 590 q 475 636 458 586 q 492 735 492 686 q 465 840 492 794 q 376 885 439 885 q 282 840 313 885 q 251 742 251 796 m 251 200 q 281 83 251 128 q 360 39 310 39 q 442 78 408 39 q 476 169 476 117 q 425 278 476 233 q 306 367 374 324 q 260 276 269 324 q 251 200 251 228 z "},"9":{"ha":786,"x_min":50,"x_max":736,"o":"m 156 -306 q 368 -173 290 -261 q 480 31 446 -85 q 514 274 514 146 q 477 511 514 422 q 383 600 440 600 q 322 565 349 600 q 280 469 294 529 q 265 332 265 408 q 297 157 265 221 q 388 93 329 93 q 416 97 400 93 q 444 106 432 100 l 467 83 q 394 30 436 50 q 300 10 353 10 q 170 51 226 10 q 82 162 114 92 q 50 319 50 232 q 82 474 50 410 q 167 580 114 539 q 282 640 219 621 q 404 660 344 660 q 565 619 489 660 q 688 497 640 579 q 736 286 736 414 q 694 65 736 169 q 573 -126 651 -40 q 389 -269 494 -211 q 156 -347 283 -326 l 156 -306 z "},"A":{"ha":949,"x_min":26,"x_max":928,"o":"m 829 139 q 862 69 849 92 q 890 41 875 47 q 928 32 906 35 l 928 0 l 540 0 l 540 32 q 602 65 596 35 q 592 139 608 96 l 522 319 q 501 310 514 313 q 472 308 488 308 l 315 308 q 271 301 286 308 q 244 267 256 294 l 194 139 q 197 64 176 93 q 279 32 218 35 l 279 0 l 26 0 l 26 32 q 78 63 57 35 q 118 139 100 92 l 385 814 q 412 885 400 850 q 433 956 424 919 l 514 956 q 536 885 524 919 q 563 814 549 850 l 829 139 m 465 368 q 491 374 485 368 q 489 401 497 381 l 393 639 l 390 639 l 282 363 q 299 367 289 367 q 321 368 308 368 l 465 368 z "},"Á":{"ha":949,"x_min":26,"x_max":928,"o":"m 829 139 q 862 69 849 92 q 890 41 875 47 q 928 32 906 35 l 928 0 l 540 0 l 540 32 q 602 65 596 35 q 592 139 608 96 l 522 319 q 501 310 514 313 q 472 308 488 308 l 315 308 q 271 301 286 308 q 244 267 256 294 l 194 139 q 197 64 176 93 q 279 32 218 35 l 279 0 l 26 0 l 26 32 q 78 63 57 35 q 118 139 100 92 l 385 814 q 412 885 400 850 q 433 956 424 919 l 514 956 q 536 885 524 919 q 563 814 549 850 l 829 139 m 465 368 q 491 374 485 368 q 489 401 497 381 l 393 639 l 390 639 l 282 363 q 299 367 289 367 q 321 368 308 368 l 465 368 m 528 1222 q 584 1217 551 1224 q 648 1198 617 1211 q 699 1164 679 1185 q 584 1065 651 1108 q 442 993 517 1022 l 415 1006 q 489 1114 464 1060 q 528 1222 514 1168 z "},"Ă":{"ha":949,"x_min":26,"x_max":928,"o":"m 829 139 q 862 69 849 92 q 890 41 875 47 q 928 32 906 35 l 928 0 l 540 0 l 540 32 q 602 65 596 35 q 592 139 608 96 l 522 319 q 501 310 514 313 q 472 308 488 308 l 315 308 q 271 301 286 308 q 244 267 256 294 l 194 139 q 197 64 176 93 q 279 32 218 35 l 279 0 l 26 0 l 26 32 q 78 63 57 35 q 118 139 100 92 l 385 814 q 412 885 400 850 q 433 956 424 919 l 514 956 q 536 885 524 919 q 563 814 549 850 l 829 139 m 465 368 q 491 374 485 368 q 489 401 497 381 l 393 639 l 390 639 l 282 363 q 299 367 289 367 q 321 368 308 368 l 465 368 m 642 1218 l 668 1206 q 608 1049 657 1104 q 483 993 560 993 q 358 1049 407 993 q 299 1206 310 1104 l 325 1218 q 396 1148 353 1171 q 483 1125 439 1125 q 572 1148 528 1125 q 642 1218 615 1171 z "},"Ắ":{"ha":949,"x_min":26,"x_max":928,"o":"m 829 139 q 862 69 849 92 q 890 41 875 47 q 928 32 906 35 l 928 0 l 540 0 l 540 32 q 602 65 596 35 q 592 139 608 96 l 522 319 q 501 310 514 313 q 472 308 488 308 l 315 308 q 271 301 286 308 q 244 267 256 294 l 194 139 q 197 64 176 93 q 279 32 218 35 l 279 0 l 26 0 l 26 32 q 78 63 57 35 q 118 139 100 92 l 385 814 q 412 885 400 850 q 433 956 424 919 l 514 956 q 536 885 524 919 q 563 814 549 850 l 829 139 m 465 368 q 491 374 485 368 q 489 401 497 381 l 393 639 l 390 639 l 282 363 q 299 367 289 367 q 321 368 308 368 l 465 368 m 642 1218 l 668 1206 q 608 1049 657 1104 q 483 993 560 993 q 358 1049 407 993 q 299 1206 310 1104 l 325 1218 q 396 1148 353 1171 q 483 1125 439 1125 q 572 1148 528 1125 q 642 1218 615 1171 m 529 1488 q 585 1483 553 1489 q 649 1463 618 1476 q 700 1429 681 1450 q 585 1331 653 1374 q 443 1258 518 1288 l 417 1271 q 490 1379 465 1325 q 529 1488 515 1433 z "},"Ặ":{"ha":949,"x_min":26,"x_max":928,"o":"m 829 139 q 862 69 849 92 q 890 41 875 47 q 928 32 906 35 l 928 0 l 540 0 l 540 32 q 602 65 596 35 q 592 139 608 96 l 522 319 q 501 310 514 313 q 472 308 488 308 l 315 308 q 271 301 286 308 q 244 267 256 294 l 194 139 q 197 64 176 93 q 279 32 218 35 l 279 0 l 26 0 l 26 32 q 78 63 57 35 q 118 139 100 92 l 385 814 q 412 885 400 850 q 433 956 424 919 l 514 956 q 536 885 524 919 q 563 814 549 850 l 829 139 m 465 368 q 491 374 485 368 q 489 401 497 381 l 393 639 l 390 639 l 282 363 q 299 367 289 367 q 321 368 308 368 l 465 368 m 414 -294 q 337 -262 368 -294 q 306 -186 306 -231 q 337 -109 306 -142 q 414 -76 368 -76 q 491 -109 460 -76 q 522 -186 522 -142 q 491 -262 522 -231 q 414 -294 460 -294 m 642 1218 l 668 1206 q 608 1049 657 1104 q 483 993 560 993 q 358 1049 407 993 q 299 1206 310 1104 l 325 1218 q 396 1148 353 1171 q 483 1125 439 1125 q 572 1148 528 1125 q 642 1218 615 1171 z "},"Ằ":{"ha":949,"x_min":26,"x_max":928,"o":"m 829 139 q 862 69 849 92 q 890 41 875 47 q 928 32 906 35 l 928 0 l 540 0 l 540 32 q 602 65 596 35 q 592 139 608 96 l 522 319 q 501 310 514 313 q 472 308 488 308 l 315 308 q 271 301 286 308 q 244 267 256 294 l 194 139 q 197 64 176 93 q 279 32 218 35 l 279 0 l 26 0 l 26 32 q 78 63 57 35 q 118 139 100 92 l 385 814 q 412 885 400 850 q 433 956 424 919 l 514 956 q 536 885 524 919 q 563 814 549 850 l 829 139 m 465 368 q 491 374 485 368 q 489 401 497 381 l 393 639 l 390 639 l 282 363 q 299 367 289 367 q 321 368 308 368 l 465 368 m 642 1218 l 668 1206 q 608 1049 657 1104 q 483 993 560 993 q 358 1049 407 993 q 299 1206 310 1104 l 325 1218 q 396 1148 353 1171 q 483 1125 439 1125 q 572 1148 528 1125 q 642 1218 615 1171 m 463 1488 q 502 1379 476 1433 q 575 1271 528 1325 l 549 1258 q 407 1331 474 1288 q 292 1429 340 1374 q 342 1463 311 1450 q 407 1483 374 1476 q 463 1488 440 1489 z "},"Ẳ":{"ha":949,"x_min":26,"x_max":928,"o":"m 829 139 q 862 69 849 92 q 890 41 875 47 q 928 32 906 35 l 928 0 l 540 0 l 540 32 q 602 65 596 35 q 592 139 608 96 l 522 319 q 501 310 514 313 q 472 308 488 308 l 315 308 q 271 301 286 308 q 244 267 256 294 l 194 139 q 197 64 176 93 q 279 32 218 35 l 279 0 l 26 0 l 26 32 q 78 63 57 35 q 118 139 100 92 l 385 814 q 412 885 400 850 q 433 956 424 919 l 514 956 q 536 885 524 919 q 563 814 549 850 l 829 139 m 465 368 q 491 374 485 368 q 489 401 497 381 l 393 639 l 390 639 l 282 363 q 299 367 289 367 q 321 368 308 368 l 465 368 m 642 1218 l 668 1206 q 608 1049 657 1104 q 483 993 560 993 q 358 1049 407 993 q 299 1206 310 1104 l 325 1218 q 396 1148 353 1171 q 483 1125 439 1125 q 572 1148 528 1125 q 642 1218 615 1171 m 485 1260 l 453 1260 q 460 1310 453 1292 q 473 1342 467 1328 q 479 1375 479 1357 q 467 1406 479 1396 q 435 1417 454 1417 q 367 1383 397 1417 l 344 1406 q 501 1539 382 1539 q 586 1515 549 1539 q 624 1438 624 1490 q 606 1377 624 1400 q 563 1338 588 1354 q 515 1304 538 1322 q 485 1260 493 1286 z "},"Ẵ":{"ha":949,"x_min":26,"x_max":928,"o":"m 829 139 q 862 69 849 92 q 890 41 875 47 q 928 32 906 35 l 928 0 l 540 0 l 540 32 q 602 65 596 35 q 592 139 608 96 l 522 319 q 501 310 514 313 q 472 308 488 308 l 315 308 q 271 301 286 308 q 244 267 256 294 l 194 139 q 197 64 176 93 q 279 32 218 35 l 279 0 l 26 0 l 26 32 q 78 63 57 35 q 118 139 100 92 l 385 814 q 412 885 400 850 q 433 956 424 919 l 514 956 q 536 885 524 919 q 563 814 549 850 l 829 139 m 465 368 q 491 374 485 368 q 489 401 497 381 l 393 639 l 390 639 l 282 363 q 299 367 289 367 q 321 368 308 368 l 465 368 m 642 1218 l 668 1206 q 608 1049 657 1104 q 483 993 560 993 q 358 1049 407 993 q 299 1206 310 1104 l 325 1218 q 396 1148 353 1171 q 483 1125 439 1125 q 572 1148 528 1125 q 642 1218 615 1171 m 364 1333 q 281 1265 300 1333 l 249 1272 q 292 1414 260 1363 q 386 1465 324 1465 q 463 1449 424 1465 q 540 1415 503 1432 q 606 1397 578 1397 q 689 1465 669 1397 l 721 1458 q 678 1317 711 1369 q 583 1265 646 1265 q 506 1283 546 1265 q 430 1317 467 1300 q 364 1333 393 1333 z "},"Ǎ":{"ha":949,"x_min":26,"x_max":928,"o":"m 829 139 q 862 69 849 92 q 890 41 875 47 q 928 32 906 35 l 928 0 l 540 0 l 540 32 q 602 65 596 35 q 592 139 608 96 l 522 319 q 501 310 514 313 q 472 308 488 308 l 315 308 q 271 301 286 308 q 244 267 256 294 l 194 139 q 197 64 176 93 q 279 32 218 35 l 279 0 l 26 0 l 26 32 q 78 63 57 35 q 118 139 100 92 l 385 814 q 412 885 400 850 q 433 956 424 919 l 514 956 q 536 885 524 919 q 563 814 549 850 l 829 139 m 465 368 q 491 374 485 368 q 489 401 497 381 l 393 639 l 390 639 l 282 363 q 299 367 289 367 q 321 368 308 368 l 465 368 m 647 1235 l 674 1222 q 574 1103 622 1167 q 485 979 526 1039 l 482 979 q 393 1103 440 1039 q 293 1222 346 1167 l 319 1235 q 483 1153 413 1206 q 647 1235 554 1206 z "},"Â":{"ha":949,"x_min":26,"x_max":928,"o":"m 829 139 q 862 69 849 92 q 890 41 875 47 q 928 32 906 35 l 928 0 l 540 0 l 540 32 q 602 65 596 35 q 592 139 608 96 l 522 319 q 501 310 514 313 q 472 308 488 308 l 315 308 q 271 301 286 308 q 244 267 256 294 l 194 139 q 197 64 176 93 q 279 32 218 35 l 279 0 l 26 0 l 26 32 q 78 63 57 35 q 118 139 100 92 l 385 814 q 412 885 400 850 q 433 956 424 919 l 514 956 q 536 885 524 919 q 563 814 549 850 l 829 139 m 465 368 q 491 374 485 368 q 489 401 497 381 l 393 639 l 390 639 l 282 363 q 299 367 289 367 q 321 368 308 368 l 465 368 m 647 993 q 483 1075 554 1022 q 319 993 413 1022 l 293 1006 q 393 1125 346 1061 q 482 1249 440 1189 l 485 1249 q 574 1125 526 1189 q 674 1006 622 1061 l 647 993 z "},"Ấ":{"ha":949,"x_min":26,"x_max":928,"o":"m 829 139 q 862 69 849 92 q 890 41 875 47 q 928 32 906 35 l 928 0 l 540 0 l 540 32 q 602 65 596 35 q 592 139 608 96 l 522 319 q 501 310 514 313 q 472 308 488 308 l 315 308 q 271 301 286 308 q 244 267 256 294 l 194 139 q 197 64 176 93 q 279 32 218 35 l 279 0 l 26 0 l 26 32 q 78 63 57 35 q 118 139 100 92 l 385 814 q 412 885 400 850 q 433 956 424 919 l 514 956 q 536 885 524 919 q 563 814 549 850 l 829 139 m 465 368 q 491 374 485 368 q 489 401 497 381 l 393 639 l 390 639 l 282 363 q 299 367 289 367 q 321 368 308 368 l 465 368 m 693 1390 q 749 1385 717 1392 q 813 1366 782 1379 q 864 1332 844 1353 q 749 1233 817 1276 q 607 1161 682 1190 l 581 1174 q 654 1282 629 1228 q 693 1390 679 1336 m 638 993 q 474 1075 544 1022 q 310 993 403 1022 l 283 1006 q 383 1125 336 1061 q 472 1249 431 1189 l 475 1249 q 565 1125 517 1189 q 664 1006 613 1061 l 638 993 z "},"Ậ":{"ha":949,"x_min":26,"x_max":928,"o":"m 829 139 q 862 69 849 92 q 890 41 875 47 q 928 32 906 35 l 928 0 l 540 0 l 540 32 q 602 65 596 35 q 592 139 608 96 l 522 319 q 501 310 514 313 q 472 308 488 308 l 315 308 q 271 301 286 308 q 244 267 256 294 l 194 139 q 197 64 176 93 q 279 32 218 35 l 279 0 l 26 0 l 26 32 q 78 63 57 35 q 118 139 100 92 l 385 814 q 412 885 400 850 q 433 956 424 919 l 514 956 q 536 885 524 919 q 563 814 549 850 l 829 139 m 465 368 q 491 374 485 368 q 489 401 497 381 l 393 639 l 390 639 l 282 363 q 299 367 289 367 q 321 368 308 368 l 465 368 m 414 -294 q 337 -262 368 -294 q 306 -186 306 -231 q 337 -109 306 -142 q 414 -76 368 -76 q 491 -109 460 -76 q 522 -186 522 -142 q 491 -262 522 -231 q 414 -294 460 -294 m 647 993 q 483 1075 554 1022 q 319 993 413 1022 l 293 1006 q 393 1125 346 1061 q 482 1249 440 1189 l 485 1249 q 574 1125 526 1189 q 674 1006 622 1061 l 647 993 z "},"Ầ":{"ha":949,"x_min":26,"x_max":928,"o":"m 829 139 q 862 69 849 92 q 890 41 875 47 q 928 32 906 35 l 928 0 l 540 0 l 540 32 q 602 65 596 35 q 592 139 608 96 l 522 319 q 501 310 514 313 q 472 308 488 308 l 315 308 q 271 301 286 308 q 244 267 256 294 l 194 139 q 197 64 176 93 q 279 32 218 35 l 279 0 l 26 0 l 26 32 q 78 63 57 35 q 118 139 100 92 l 385 814 q 412 885 400 850 q 433 956 424 919 l 514 956 q 536 885 524 919 q 563 814 549 850 l 829 139 m 465 368 q 491 374 485 368 q 489 401 497 381 l 393 639 l 390 639 l 282 363 q 299 367 289 367 q 321 368 308 368 l 465 368 m 668 1390 q 708 1282 682 1336 q 781 1174 733 1228 l 754 1161 q 613 1233 679 1190 q 497 1332 546 1276 q 548 1366 517 1353 q 613 1385 579 1379 q 668 1390 646 1392 m 638 993 q 474 1075 544 1022 q 310 993 403 1022 l 283 1006 q 383 1125 336 1061 q 472 1249 431 1189 l 475 1249 q 565 1125 517 1189 q 664 1006 613 1061 l 638 993 z "},"Ẩ":{"ha":949,"x_min":26,"x_max":928,"o":"m 829 139 q 862 69 849 92 q 890 41 875 47 q 928 32 906 35 l 928 0 l 540 0 l 540 32 q 602 65 596 35 q 592 139 608 96 l 522 319 q 501 310 514 313 q 472 308 488 308 l 315 308 q 271 301 286 308 q 244 267 256 294 l 194 139 q 197 64 176 93 q 279 32 218 35 l 279 0 l 26 0 l 26 32 q 78 63 57 35 q 118 139 100 92 l 385 814 q 412 885 400 850 q 433 956 424 919 l 514 956 q 536 885 524 919 q 563 814 549 850 l 829 139 m 465 368 q 491 374 485 368 q 489 401 497 381 l 393 639 l 390 639 l 282 363 q 299 367 289 367 q 321 368 308 368 l 465 368 m 665 1128 l 633 1128 q 640 1178 633 1160 q 653 1210 647 1196 q 660 1243 660 1225 q 647 1274 660 1264 q 615 1285 635 1285 q 547 1251 578 1285 l 525 1274 q 682 1407 563 1407 q 767 1383 729 1407 q 804 1306 804 1358 q 786 1245 804 1268 q 743 1206 768 1222 q 696 1172 718 1190 q 665 1128 674 1154 m 638 993 q 474 1075 544 1022 q 310 993 403 1022 l 283 1006 q 383 1125 336 1061 q 472 1249 431 1189 l 475 1249 q 565 1125 517 1189 q 664 1006 613 1061 l 638 993 z "},"Ẫ":{"ha":949,"x_min":26,"x_max":928,"o":"m 829 139 q 862 69 849 92 q 890 41 875 47 q 928 32 906 35 l 928 0 l 540 0 l 540 32 q 602 65 596 35 q 592 139 608 96 l 522 319 q 501 310 514 313 q 472 308 488 308 l 315 308 q 271 301 286 308 q 244 267 256 294 l 194 139 q 197 64 176 93 q 279 32 218 35 l 279 0 l 26 0 l 26 32 q 78 63 57 35 q 118 139 100 92 l 385 814 q 412 885 400 850 q 433 956 424 919 l 514 956 q 536 885 524 919 q 563 814 549 850 l 829 139 m 465 368 q 491 374 485 368 q 489 401 497 381 l 393 639 l 390 639 l 282 363 q 299 367 289 367 q 321 368 308 368 l 465 368 m 647 993 q 483 1075 554 1022 q 319 993 413 1022 l 293 1006 q 393 1125 346 1061 q 482 1249 440 1189 l 485 1249 q 574 1125 526 1189 q 674 1006 622 1061 l 647 993 m 357 1333 q 274 1265 293 1333 l 242 1272 q 285 1414 253 1363 q 379 1465 317 1465 q 456 1449 417 1465 q 533 1415 496 1432 q 599 1397 571 1397 q 682 1465 663 1397 l 714 1458 q 672 1317 704 1369 q 576 1265 639 1265 q 499 1283 539 1265 q 423 1317 460 1300 q 357 1333 386 1333 z "},"Ȁ":{"ha":949,"x_min":26,"x_max":928,"o":"m 829 139 q 862 69 849 92 q 890 41 875 47 q 928 32 906 35 l 928 0 l 540 0 l 540 32 q 602 65 596 35 q 592 139 608 96 l 522 319 q 501 310 514 313 q 472 308 488 308 l 315 308 q 271 301 286 308 q 244 267 256 294 l 194 139 q 197 64 176 93 q 279 32 218 35 l 279 0 l 26 0 l 26 32 q 78 63 57 35 q 118 139 100 92 l 385 814 q 412 885 400 850 q 433 956 424 919 l 514 956 q 536 885 524 919 q 563 814 549 850 l 829 139 m 465 368 q 491 374 485 368 q 489 401 497 381 l 393 639 l 390 639 l 282 363 q 299 367 289 367 q 321 368 308 368 l 465 368 m 568 1222 q 608 1114 582 1168 q 681 1006 633 1060 l 654 993 q 513 1065 579 1022 q 397 1164 446 1108 q 448 1198 417 1185 q 513 1217 479 1211 q 568 1222 546 1224 m 346 1222 q 385 1114 360 1168 q 458 1006 411 1060 l 432 993 q 290 1065 357 1022 q 175 1164 224 1108 q 226 1198 194 1185 q 290 1217 257 1211 q 346 1222 324 1224 z "},"Ä":{"ha":949,"x_min":26,"x_max":928,"o":"m 829 139 q 862 69 849 92 q 890 41 875 47 q 928 32 906 35 l 928 0 l 540 0 l 540 32 q 602 65 596 35 q 592 139 608 96 l 522 319 q 501 310 514 313 q 472 308 488 308 l 315 308 q 271 301 286 308 q 244 267 256 294 l 194 139 q 197 64 176 93 q 279 32 218 35 l 279 0 l 26 0 l 26 32 q 78 63 57 35 q 118 139 100 92 l 385 814 q 412 885 400 850 q 433 956 424 919 l 514 956 q 536 885 524 919 q 563 814 549 850 l 829 139 m 465 368 q 491 374 485 368 q 489 401 497 381 l 393 639 l 390 639 l 282 363 q 299 367 289 367 q 321 368 308 368 l 465 368 m 339 994 q 257 1028 290 994 q 224 1108 224 1061 q 257 1188 224 1154 q 339 1222 290 1222 q 419 1188 386 1222 q 453 1108 453 1154 q 419 1028 453 1061 q 339 994 386 994 m 628 994 q 546 1028 579 994 q 513 1108 513 1061 q 546 1188 513 1154 q 628 1222 579 1222 q 708 1188 675 1222 q 742 1108 742 1154 q 708 1028 742 1061 q 628 994 675 994 z "},"Ạ":{"ha":949,"x_min":26,"x_max":928,"o":"m 829 139 q 862 69 849 92 q 890 41 875 47 q 928 32 906 35 l 928 0 l 540 0 l 540 32 q 602 65 596 35 q 592 139 608 96 l 522 319 q 501 310 514 313 q 472 308 488 308 l 315 308 q 271 301 286 308 q 244 267 256 294 l 194 139 q 197 64 176 93 q 279 32 218 35 l 279 0 l 26 0 l 26 32 q 78 63 57 35 q 118 139 100 92 l 385 814 q 412 885 400 850 q 433 956 424 919 l 514 956 q 536 885 524 919 q 563 814 549 850 l 829 139 m 465 368 q 491 374 485 368 q 489 401 497 381 l 393 639 l 390 639 l 282 363 q 299 367 289 367 q 321 368 308 368 l 465 368 m 414 -329 q 335 -297 367 -329 q 304 -221 304 -265 q 335 -144 304 -176 q 414 -111 367 -111 q 491 -144 460 -111 q 522 -221 522 -176 q 491 -297 522 -265 q 414 -329 460 -329 z "},"À":{"ha":949,"x_min":26,"x_max":928,"o":"m 829 139 q 862 69 849 92 q 890 41 875 47 q 928 32 906 35 l 928 0 l 540 0 l 540 32 q 602 65 596 35 q 592 139 608 96 l 522 319 q 501 310 514 313 q 472 308 488 308 l 315 308 q 271 301 286 308 q 244 267 256 294 l 194 139 q 197 64 176 93 q 279 32 218 35 l 279 0 l 26 0 l 26 32 q 78 63 57 35 q 118 139 100 92 l 385 814 q 412 885 400 850 q 433 956 424 919 l 514 956 q 536 885 524 919 q 563 814 549 850 l 829 139 m 465 368 q 491 374 485 368 q 489 401 497 381 l 393 639 l 390 639 l 282 363 q 299 367 289 367 q 321 368 308 368 l 465 368 m 461 1222 q 501 1114 475 1168 q 574 1006 526 1060 l 547 993 q 406 1065 472 1022 q 290 1164 339 1108 q 341 1198 310 1185 q 406 1217 372 1211 q 461 1222 439 1224 z "},"Ả":{"ha":949,"x_min":26,"x_max":928,"o":"m 829 139 q 862 69 849 92 q 890 41 875 47 q 928 32 906 35 l 928 0 l 540 0 l 540 32 q 602 65 596 35 q 592 139 608 96 l 522 319 q 501 310 514 313 q 472 308 488 308 l 315 308 q 271 301 286 308 q 244 267 256 294 l 194 139 q 197 64 176 93 q 279 32 218 35 l 279 0 l 26 0 l 26 32 q 78 63 57 35 q 118 139 100 92 l 385 814 q 412 885 400 850 q 433 956 424 919 l 514 956 q 536 885 524 919 q 563 814 549 850 l 829 139 m 465 368 q 491 374 485 368 q 489 401 497 381 l 393 639 l 390 639 l 282 363 q 299 367 289 367 q 321 368 308 368 l 465 368 m 483 994 l 451 994 q 458 1044 451 1026 q 472 1077 465 1063 q 478 1110 478 1092 q 465 1141 478 1131 q 433 1151 453 1151 q 365 1118 396 1151 l 343 1140 q 500 1274 381 1274 q 585 1249 547 1274 q 622 1172 622 1225 q 604 1112 622 1135 q 561 1073 586 1089 q 514 1039 536 1057 q 483 994 492 1021 z "},"Ȃ":{"ha":949,"x_min":26,"x_max":928,"o":"m 829 139 q 862 69 849 92 q 890 41 875 47 q 928 32 906 35 l 928 0 l 540 0 l 540 32 q 602 65 596 35 q 592 139 608 96 l 522 319 q 501 310 514 313 q 472 308 488 308 l 315 308 q 271 301 286 308 q 244 267 256 294 l 194 139 q 197 64 176 93 q 279 32 218 35 l 279 0 l 26 0 l 26 32 q 78 63 57 35 q 118 139 100 92 l 385 814 q 412 885 400 850 q 433 956 424 919 l 514 956 q 536 885 524 919 q 563 814 549 850 l 829 139 m 465 368 q 491 374 485 368 q 489 401 497 381 l 393 639 l 390 639 l 282 363 q 299 367 289 367 q 321 368 308 368 l 465 368 m 642 993 q 572 1063 615 1040 q 483 1086 528 1086 q 396 1063 439 1086 q 325 993 353 1040 l 299 1006 q 358 1163 310 1108 q 483 1218 407 1218 q 608 1163 560 1218 q 668 1006 657 1108 l 642 993 z "},"Ā":{"ha":949,"x_min":26,"x_max":928,"o":"m 829 139 q 862 69 849 92 q 890 41 875 47 q 928 32 906 35 l 928 0 l 540 0 l 540 32 q 602 65 596 35 q 592 139 608 96 l 522 319 q 501 310 514 313 q 472 308 488 308 l 315 308 q 271 301 286 308 q 244 267 256 294 l 194 139 q 197 64 176 93 q 279 32 218 35 l 279 0 l 26 0 l 26 32 q 78 63 57 35 q 118 139 100 92 l 385 814 q 412 885 400 850 q 433 956 424 919 l 514 956 q 536 885 524 919 q 563 814 549 850 l 829 139 m 465 368 q 491 374 485 368 q 489 401 497 381 l 393 639 l 390 639 l 282 363 q 299 367 289 367 q 321 368 308 368 l 465 368 m 261 1158 l 706 1158 l 706 1043 l 261 1043 l 261 1158 z "},"Ą":{"ha":949,"x_min":26,"x_max":928,"o":"m 631 -326 q 568 -315 599 -326 q 517 -276 538 -303 q 497 -207 497 -250 q 542 -93 497 -143 q 650 -12 588 -43 l 521 319 q 499 310 513 313 q 471 308 486 308 l 315 308 q 271 301 286 308 q 244 267 256 294 l 194 139 q 197 64 176 93 q 279 32 218 35 l 279 0 l 26 0 l 26 32 q 78 63 57 35 q 118 139 100 92 l 385 814 q 412 885 400 850 q 433 956 424 919 l 514 956 q 536 885 524 919 q 563 814 549 850 l 829 139 q 862 69 849 92 q 890 41 875 47 q 928 32 906 35 l 928 0 l 804 0 q 713 -31 747 0 q 662 -103 678 -62 q 646 -174 646 -143 q 674 -233 646 -218 q 743 -242 703 -249 l 758 -264 q 703 -310 736 -294 q 631 -326 669 -326 m 464 368 q 490 374 483 368 q 488 401 496 381 l 393 639 l 390 639 l 282 363 q 299 367 289 367 q 321 368 308 368 l 464 368 z "},"Å":{"ha":949,"x_min":26,"x_max":928,"o":"m 829 139 q 862 69 849 92 q 890 41 875 47 q 928 32 906 35 l 928 0 l 540 0 l 540 32 q 602 65 596 35 q 592 139 608 96 l 522 319 q 501 310 514 313 q 472 308 488 308 l 315 308 q 271 301 286 308 q 244 267 256 294 l 194 139 q 197 64 176 93 q 279 32 218 35 l 279 0 l 26 0 l 26 32 q 78 63 57 35 q 118 139 100 92 l 385 814 q 412 885 400 850 q 433 956 424 919 l 514 956 q 536 885 524 919 q 563 814 549 850 l 829 139 m 465 368 q 491 374 485 368 q 489 401 497 381 l 393 639 l 390 639 l 282 363 q 299 367 289 367 q 321 368 308 368 l 465 368 m 471 907 q 356 950 403 907 q 310 1056 310 993 q 356 1161 310 1118 q 471 1204 403 1204 q 588 1161 540 1204 q 635 1056 635 1118 q 588 950 635 993 q 471 907 540 907 m 472 967 q 519 992 501 967 q 538 1054 538 1017 q 519 1117 538 1090 q 471 1144 501 1144 q 424 1119 440 1144 q 407 1057 407 1093 q 424 993 407 1019 q 472 967 442 967 z "},"Ǻ":{"ha":949,"x_min":26,"x_max":928,"o":"m 829 139 q 862 69 849 92 q 890 41 875 47 q 928 32 906 35 l 928 0 l 540 0 l 540 32 q 602 65 596 35 q 592 139 608 96 l 522 319 q 501 310 514 313 q 472 308 488 308 l 315 308 q 271 301 286 308 q 244 267 256 294 l 194 139 q 197 64 176 93 q 279 32 218 35 l 279 0 l 26 0 l 26 32 q 78 63 57 35 q 118 139 100 92 l 385 814 q 412 885 400 850 q 433 956 424 919 l 514 956 q 536 885 524 919 q 563 814 549 850 l 829 139 m 465 368 q 491 374 485 368 q 489 401 497 381 l 393 639 l 390 639 l 282 363 q 299 367 289 367 q 321 368 308 368 l 465 368 m 471 907 q 356 950 403 907 q 310 1056 310 993 q 356 1161 310 1118 q 471 1204 403 1204 q 588 1161 540 1204 q 635 1056 635 1118 q 588 950 635 993 q 471 907 540 907 m 472 967 q 519 992 501 967 q 538 1054 538 1017 q 519 1117 538 1090 q 471 1144 501 1144 q 424 1119 440 1144 q 407 1057 407 1093 q 424 993 407 1019 q 472 967 442 967 m 515 1474 q 572 1469 539 1475 q 635 1449 604 1463 q 686 1415 667 1436 q 572 1317 639 1360 q 429 1244 504 1274 l 403 1257 q 476 1365 451 1311 q 515 1474 501 1419 z "},"Ã":{"ha":949,"x_min":26,"x_max":928,"o":"m 829 139 q 862 69 849 92 q 890 41 875 47 q 928 32 906 35 l 928 0 l 540 0 l 540 32 q 602 65 596 35 q 592 139 608 96 l 522 319 q 501 310 514 313 q 472 308 488 308 l 315 308 q 271 301 286 308 q 244 267 256 294 l 194 139 q 197 64 176 93 q 279 32 218 35 l 279 0 l 26 0 l 26 32 q 78 63 57 35 q 118 139 100 92 l 385 814 q 412 885 400 850 q 433 956 424 919 l 514 956 q 536 885 524 919 q 563 814 549 850 l 829 139 m 465 368 q 491 374 485 368 q 489 401 497 381 l 393 639 l 390 639 l 282 363 q 299 367 289 367 q 321 368 308 368 l 465 368 m 363 1068 q 279 1000 299 1068 l 247 1007 q 290 1149 258 1097 q 385 1200 322 1200 q 462 1183 422 1200 q 539 1149 501 1167 q 604 1132 576 1132 q 688 1200 668 1132 l 719 1193 q 677 1052 710 1104 q 582 1000 644 1000 q 505 1017 544 1000 q 428 1051 465 1035 q 363 1068 392 1068 z "},"Æ":{"ha":1292,"x_min":26,"x_max":1251,"o":"m 1219 229 l 1251 229 l 1240 0 l 525 0 l 525 32 q 583 53 565 35 q 601 139 601 71 l 601 319 q 579 310 593 313 q 550 308 565 308 l 379 308 q 335 303 351 308 q 301 269 318 297 l 222 139 q 208 63 193 92 q 285 32 224 35 l 285 0 l 26 0 l 26 32 q 84 63 57 35 q 140 139 111 92 l 574 846 q 449 892 539 890 l 449 924 l 1158 924 l 1158 729 l 1126 729 q 1085 826 1124 789 q 968 864 1047 864 l 885 864 q 840 849 856 864 q 824 785 824 833 l 824 511 q 851 522 835 519 q 889 525 867 525 l 996 525 q 1065 549 1038 525 q 1094 614 1093 572 l 1126 614 l 1126 378 l 1094 378 q 1065 447 1093 429 q 996 465 1038 465 l 892 465 q 839 453 854 465 q 824 404 824 440 l 824 139 q 845 75 824 90 q 929 60 867 60 l 1033 60 q 1165 110 1117 60 q 1219 229 1214 160 m 601 408 l 601 757 l 599 757 l 357 363 q 374 367 364 367 q 397 368 385 368 l 564 368 q 593 376 585 368 q 601 408 601 383 z "},"Ǽ":{"ha":1292,"x_min":26,"x_max":1251,"o":"m 1219 229 l 1251 229 l 1240 0 l 525 0 l 525 32 q 583 53 565 35 q 601 139 601 71 l 601 319 q 579 310 593 313 q 550 308 565 308 l 379 308 q 335 303 351 308 q 301 269 318 297 l 222 139 q 208 63 193 92 q 285 32 224 35 l 285 0 l 26 0 l 26 32 q 84 63 57 35 q 140 139 111 92 l 574 846 q 449 892 539 890 l 449 924 l 1158 924 l 1158 729 l 1126 729 q 1085 826 1124 789 q 968 864 1047 864 l 885 864 q 840 849 856 864 q 824 785 824 833 l 824 511 q 851 522 835 519 q 889 525 867 525 l 996 525 q 1065 549 1038 525 q 1094 614 1093 572 l 1126 614 l 1126 378 l 1094 378 q 1065 447 1093 429 q 996 465 1038 465 l 892 465 q 839 453 854 465 q 824 404 824 440 l 824 139 q 845 75 824 90 q 929 60 867 60 l 1033 60 q 1165 110 1117 60 q 1219 229 1214 160 m 601 408 l 601 757 l 599 757 l 357 363 q 374 367 364 367 q 397 368 385 368 l 564 368 q 593 376 585 368 q 601 408 601 383 m 885 1222 q 941 1217 908 1224 q 1005 1198 974 1211 q 1056 1164 1036 1185 q 941 1065 1008 1108 q 799 993 874 1022 l 772 1006 q 846 1114 821 1060 q 885 1222 871 1168 z "},"B":{"ha":1001,"x_min":60,"x_max":935,"o":"m 81 0 l 81 32 q 139 53 121 35 q 157 139 157 71 l 157 785 q 137 872 157 853 q 60 892 117 890 l 60 924 l 157 924 q 293 926 235 924 q 408 929 351 928 q 538 931 465 931 q 782 878 703 931 q 861 738 861 825 q 809 606 861 658 q 667 533 757 553 l 667 531 q 865 455 794 517 q 935 290 935 393 q 893 145 935 211 q 765 40 851 79 q 543 0 679 0 l 81 0 m 379 514 q 413 530 397 526 q 451 535 429 533 q 579 592 533 542 q 625 724 625 642 q 603 811 625 779 q 549 857 582 843 q 481 871 517 871 q 400 855 421 871 q 379 785 379 839 l 379 514 m 461 60 q 601 93 549 60 q 676 178 653 126 q 699 289 699 231 q 640 432 699 388 q 493 476 582 476 q 408 458 438 476 q 379 394 379 439 l 379 139 q 394 75 379 90 q 461 60 410 60 z "},"Ƀ":{"ha":1001,"x_min":36,"x_max":935,"o":"m 81 0 l 81 32 q 139 53 121 35 q 157 139 157 71 l 157 257 l 36 257 l 36 317 l 157 317 l 157 785 q 137 872 157 853 q 60 892 117 890 l 60 924 l 157 924 q 293 926 235 924 q 408 929 351 928 q 538 931 465 931 q 782 878 703 931 q 861 738 861 825 q 809 606 861 658 q 667 533 757 553 l 667 531 q 865 455 794 517 q 935 290 935 393 q 893 145 935 211 q 765 40 851 79 q 543 0 679 0 l 81 0 m 379 514 q 413 530 397 526 q 451 535 429 533 q 579 592 533 542 q 625 724 625 642 q 603 811 625 779 q 549 857 582 843 q 481 871 517 871 q 400 855 421 871 q 379 785 379 839 l 379 514 m 461 60 q 601 93 549 60 q 676 178 653 126 q 699 289 699 231 q 640 432 699 388 q 493 476 582 476 q 408 458 438 476 q 379 394 379 439 l 379 317 l 550 317 l 550 257 l 379 257 l 379 139 q 394 75 379 90 q 461 60 410 60 z "},"C":{"ha":981,"x_min":81,"x_max":918,"o":"m 579 -21 q 321 38 433 -21 q 144 202 208 96 q 81 449 81 308 q 122 655 81 564 q 237 811 164 746 q 405 910 310 876 q 608 944 500 944 q 765 929 690 944 q 885 893 840 914 l 885 674 l 853 674 q 786 803 825 758 q 699 867 747 849 q 599 885 651 885 q 331 496 331 885 q 358 264 331 368 q 442 99 385 160 q 590 39 500 39 q 724 76 664 39 q 826 174 783 113 q 886 306 868 235 l 918 306 l 907 94 q 778 12 861 44 q 579 -21 694 -21 z "},"Ć":{"ha":981,"x_min":81,"x_max":918,"o":"m 579 -21 q 321 38 433 -21 q 144 202 208 96 q 81 449 81 308 q 122 655 81 564 q 237 811 164 746 q 405 910 310 876 q 608 944 500 944 q 765 929 690 944 q 885 893 840 914 l 885 674 l 853 674 q 786 803 825 758 q 699 867 747 849 q 599 885 651 885 q 331 496 331 885 q 358 264 331 368 q 442 99 385 160 q 590 39 500 39 q 724 76 664 39 q 826 174 783 113 q 886 306 868 235 l 918 306 l 907 94 q 778 12 861 44 q 579 -21 694 -21 m 625 1222 q 681 1217 649 1224 q 745 1198 714 1211 q 796 1164 776 1185 q 681 1065 749 1108 q 539 993 614 1022 l 513 1006 q 586 1114 561 1060 q 625 1222 611 1168 z "},"Č":{"ha":981,"x_min":81,"x_max":918,"o":"m 579 -21 q 321 38 433 -21 q 144 202 208 96 q 81 449 81 308 q 122 655 81 564 q 237 811 164 746 q 405 910 310 876 q 608 944 500 944 q 765 929 690 944 q 885 893 840 914 l 885 674 l 853 674 q 786 803 825 758 q 699 867 747 849 q 599 885 651 885 q 331 496 331 885 q 358 264 331 368 q 442 99 385 160 q 590 39 500 39 q 724 76 664 39 q 826 174 783 113 q 886 306 868 235 l 918 306 l 907 94 q 778 12 861 44 q 579 -21 694 -21 m 744 1235 l 771 1222 q 672 1103 719 1167 q 582 979 624 1039 l 579 979 q 490 1103 538 1039 q 390 1222 443 1167 l 417 1235 q 581 1153 510 1206 q 744 1235 651 1206 z "},"Ç":{"ha":981,"x_min":81,"x_max":918,"o":"m 579 -21 q 321 38 433 -21 q 144 202 208 96 q 81 449 81 308 q 122 655 81 564 q 237 811 164 746 q 405 910 310 876 q 608 944 500 944 q 765 929 690 944 q 885 893 840 914 l 885 674 l 853 674 q 786 803 825 758 q 699 867 747 849 q 599 885 651 885 q 331 496 331 885 q 358 264 331 368 q 442 99 385 160 q 590 39 500 39 q 724 76 664 39 q 826 174 783 113 q 886 306 868 235 l 918 306 l 907 94 q 778 12 861 44 q 579 -21 694 -21 m 586 -60 q 683 -112 651 -76 q 714 -197 714 -149 q 692 -268 714 -239 q 637 -312 671 -297 q 565 -326 603 -326 q 503 -315 535 -326 q 451 -275 471 -303 l 467 -253 q 551 -264 519 -272 q 582 -225 582 -256 q 567 -188 582 -206 q 513 -165 551 -171 l 546 18 l 600 18 l 586 -60 z "},"Ḉ":{"ha":981,"x_min":81,"x_max":918,"o":"m 579 -21 q 321 38 433 -21 q 144 202 208 96 q 81 449 81 308 q 122 655 81 564 q 237 811 164 746 q 405 910 310 876 q 608 944 500 944 q 765 929 690 944 q 885 893 840 914 l 885 674 l 853 674 q 786 803 825 758 q 699 867 747 849 q 599 885 651 885 q 331 496 331 885 q 358 264 331 368 q 442 99 385 160 q 590 39 500 39 q 724 76 664 39 q 826 174 783 113 q 886 306 868 235 l 918 306 l 907 94 q 778 12 861 44 q 579 -21 694 -21 m 586 -60 q 683 -112 651 -76 q 714 -197 714 -149 q 692 -268 714 -239 q 637 -312 671 -297 q 565 -326 603 -326 q 503 -315 535 -326 q 451 -275 471 -303 l 467 -253 q 551 -264 519 -272 q 582 -225 582 -256 q 567 -188 582 -206 q 513 -165 551 -171 l 546 18 l 600 18 l 586 -60 m 625 1222 q 681 1217 649 1224 q 745 1198 714 1211 q 796 1164 776 1185 q 681 1065 749 1108 q 539 993 614 1022 l 513 1006 q 586 1114 561 1060 q 625 1222 611 1168 z "},"Ĉ":{"ha":981,"x_min":81,"x_max":918,"o":"m 579 -21 q 321 38 433 -21 q 144 202 208 96 q 81 449 81 308 q 122 655 81 564 q 237 811 164 746 q 405 910 310 876 q 608 944 500 944 q 765 929 690 944 q 885 893 840 914 l 885 674 l 853 674 q 786 803 825 758 q 699 867 747 849 q 599 885 651 885 q 331 496 331 885 q 358 264 331 368 q 442 99 385 160 q 590 39 500 39 q 724 76 664 39 q 826 174 783 113 q 886 306 868 235 l 918 306 l 907 94 q 778 12 861 44 q 579 -21 694 -21 m 744 993 q 581 1075 651 1022 q 417 993 510 1022 l 390 1006 q 490 1125 443 1061 q 579 1249 538 1189 l 582 1249 q 672 1125 624 1189 q 771 1006 719 1061 l 744 993 z "},"Ċ":{"ha":981,"x_min":81,"x_max":918,"o":"m 579 -21 q 321 38 433 -21 q 144 202 208 96 q 81 449 81 308 q 122 655 81 564 q 237 811 164 746 q 405 910 310 876 q 608 944 500 944 q 765 929 690 944 q 885 893 840 914 l 885 674 l 853 674 q 786 803 825 758 q 699 867 747 849 q 599 885 651 885 q 331 496 331 885 q 358 264 331 368 q 442 99 385 160 q 590 39 500 39 q 724 76 664 39 q 826 174 783 113 q 886 306 868 235 l 918 306 l 907 94 q 778 12 861 44 q 579 -21 694 -21 m 581 993 q 499 1026 532 993 q 465 1107 465 1060 q 499 1188 465 1154 q 581 1222 532 1222 q 662 1188 629 1222 q 694 1107 694 1154 q 662 1026 694 1060 q 581 993 629 993 z "},"D":{"ha":1099,"x_min":60,"x_max":1018,"o":"m 81 0 l 81 32 q 139 53 121 35 q 157 139 157 71 l 157 785 q 137 872 157 853 q 60 892 117 890 l 60 924 l 157 924 q 313 927 233 924 q 476 931 392 931 q 757 887 635 931 q 949 747 879 843 q 1018 490 1018 650 q 972 269 1018 363 q 850 117 926 176 q 681 28 774 57 q 493 0 588 0 l 81 0 m 463 60 q 637 113 569 60 q 736 260 704 167 q 768 469 768 353 q 730 701 768 613 q 626 830 692 789 q 476 871 561 871 q 400 855 421 871 q 379 785 379 839 l 379 139 q 395 75 379 90 q 463 60 411 60 z "},"Ǆ":{"ha":1972,"x_min":60,"x_max":1892,"o":"m 81 0 l 81 32 q 139 53 121 35 q 157 139 157 71 l 157 785 q 137 872 157 853 q 60 892 117 890 l 60 924 l 157 924 q 313 927 233 924 q 476 931 392 931 q 757 887 635 931 q 949 747 879 843 q 1018 490 1018 650 q 972 269 1018 363 q 850 117 926 176 q 681 28 774 57 q 493 0 588 0 l 81 0 m 463 60 q 637 113 569 60 q 736 260 704 167 q 768 469 768 353 q 730 701 768 613 q 626 830 692 789 q 476 871 561 871 q 400 855 421 871 q 379 785 379 839 l 379 139 q 395 75 379 90 q 463 60 411 60 m 1110 0 l 1110 32 q 1160 104 1138 65 l 1601 861 l 1601 864 l 1358 854 q 1208 694 1217 849 l 1178 694 l 1178 924 l 1881 924 l 1881 892 q 1832 819 1854 857 l 1388 61 l 1388 58 l 1672 69 q 1810 122 1767 74 q 1860 229 1854 169 l 1892 229 l 1881 0 l 1110 0 m 1693 1235 l 1719 1222 q 1620 1103 1668 1167 q 1531 979 1572 1039 l 1528 979 q 1439 1103 1486 1039 q 1339 1222 1392 1167 l 1365 1235 q 1529 1153 1458 1206 q 1693 1235 1600 1206 z "},"Ð":{"ha":1099,"x_min":36,"x_max":1018,"o":"m 81 0 l 81 32 q 139 53 121 35 q 157 139 157 71 l 157 785 q 137 872 157 853 q 60 892 117 890 l 60 924 l 157 924 q 313 927 233 924 q 476 931 392 931 q 757 887 635 931 q 949 747 879 843 q 1018 490 1018 650 q 972 269 1018 363 q 850 117 926 176 q 681 28 774 57 q 493 0 588 0 l 81 0 m 463 60 q 637 113 569 60 q 736 260 704 167 q 768 469 768 353 q 730 701 768 613 q 626 830 692 789 q 476 871 561 871 q 400 855 421 871 q 379 785 379 839 l 379 139 q 395 75 379 90 q 463 60 411 60 m 550 472 l 36 472 l 36 532 l 550 532 l 550 472 z "},"Ď":{"ha":1099,"x_min":60,"x_max":1018,"o":"m 81 0 l 81 32 q 139 53 121 35 q 157 139 157 71 l 157 785 q 137 872 157 853 q 60 892 117 890 l 60 924 l 157 924 q 313 927 233 924 q 476 931 392 931 q 757 887 635 931 q 949 747 879 843 q 1018 490 1018 650 q 972 269 1018 363 q 850 117 926 176 q 681 28 774 57 q 493 0 588 0 l 81 0 m 463 60 q 637 113 569 60 q 736 260 704 167 q 768 469 768 353 q 730 701 768 613 q 626 830 692 789 q 476 871 561 871 q 400 855 421 871 q 379 785 379 839 l 379 139 q 395 75 379 90 q 463 60 411 60 m 714 1235 l 740 1222 q 641 1103 689 1167 q 551 979 593 1039 l 549 979 q 460 1103 507 1039 q 360 1222 413 1167 l 386 1235 q 550 1153 479 1206 q 714 1235 621 1206 z "},"Đ":{"ha":1099,"x_min":36,"x_max":1018,"o":"m 81 0 l 81 32 q 139 53 121 35 q 157 139 157 71 l 157 785 q 137 872 157 853 q 60 892 117 890 l 60 924 l 157 924 q 313 927 233 924 q 476 931 392 931 q 757 887 635 931 q 949 747 879 843 q 1018 490 1018 650 q 972 269 1018 363 q 850 117 926 176 q 681 28 774 57 q 493 0 588 0 l 81 0 m 463 60 q 637 113 569 60 q 736 260 704 167 q 768 469 768 353 q 730 701 768 613 q 626 830 692 789 q 476 871 561 871 q 400 855 421 871 q 379 785 379 839 l 379 139 q 395 75 379 90 q 463 60 411 60 m 550 472 l 36 472 l 36 532 l 550 532 l 550 472 z "},"Ḋ":{"ha":1099,"x_min":60,"x_max":1018,"o":"m 81 0 l 81 32 q 139 53 121 35 q 157 139 157 71 l 157 785 q 137 872 157 853 q 60 892 117 890 l 60 924 l 157 924 q 313 927 233 924 q 476 931 392 931 q 757 887 635 931 q 949 747 879 843 q 1018 490 1018 650 q 972 269 1018 363 q 850 117 926 176 q 681 28 774 57 q 493 0 588 0 l 81 0 m 463 60 q 637 113 569 60 q 736 260 704 167 q 768 469 768 353 q 730 701 768 613 q 626 830 692 789 q 476 871 561 871 q 400 855 421 871 q 379 785 379 839 l 379 139 q 395 75 379 90 q 463 60 411 60 m 550 993 q 468 1026 501 993 q 435 1107 435 1060 q 468 1188 435 1154 q 550 1222 501 1222 q 631 1188 599 1222 q 664 1107 664 1154 q 631 1026 664 1060 q 550 993 599 993 z "},"Ḍ":{"ha":1099,"x_min":60,"x_max":1018,"o":"m 81 0 l 81 32 q 139 53 121 35 q 157 139 157 71 l 157 785 q 137 872 157 853 q 60 892 117 890 l 60 924 l 157 924 q 313 927 233 924 q 476 931 392 931 q 757 887 635 931 q 949 747 879 843 q 1018 490 1018 650 q 972 269 1018 363 q 850 117 926 176 q 681 28 774 57 q 493 0 588 0 l 81 0 m 463 60 q 637 113 569 60 q 736 260 704 167 q 768 469 768 353 q 730 701 768 613 q 626 830 692 789 q 476 871 561 871 q 400 855 421 871 q 379 785 379 839 l 379 139 q 395 75 379 90 q 463 60 411 60 m 550 -294 q 473 -262 504 -294 q 442 -186 442 -231 q 473 -109 442 -142 q 550 -76 504 -76 q 627 -109 596 -76 q 658 -186 658 -142 q 627 -262 658 -231 q 550 -294 596 -294 z "},"Ḏ":{"ha":1099,"x_min":60,"x_max":1018,"o":"m 81 0 l 81 32 q 139 53 121 35 q 157 139 157 71 l 157 785 q 137 872 157 853 q 60 892 117 890 l 60 924 l 157 924 q 313 927 233 924 q 476 931 392 931 q 757 887 635 931 q 949 747 879 843 q 1018 490 1018 650 q 972 269 1018 363 q 850 117 926 176 q 681 28 774 57 q 493 0 588 0 l 81 0 m 463 60 q 637 113 569 60 q 736 260 704 167 q 768 469 768 353 q 730 701 768 613 q 626 830 692 789 q 476 871 561 871 q 400 855 421 871 q 379 785 379 839 l 379 139 q 395 75 379 90 q 463 60 411 60 m 340 -169 l 757 -169 l 758 -267 l 342 -267 l 340 -169 z "},"ǅ":{"ha":1794,"x_min":60,"x_max":1763,"o":"m 81 0 l 81 32 q 139 53 121 35 q 157 139 157 71 l 157 785 q 137 872 157 853 q 60 892 117 890 l 60 924 l 157 924 q 313 927 233 924 q 476 931 392 931 q 757 887 635 931 q 949 747 879 843 q 1018 490 1018 650 q 972 269 1018 363 q 850 117 926 176 q 681 28 774 57 q 493 0 588 0 l 81 0 m 463 60 q 637 113 569 60 q 736 260 704 167 q 768 469 768 353 q 730 701 768 613 q 626 830 692 789 q 476 871 561 871 q 400 855 421 871 q 379 785 379 839 l 379 139 q 395 75 379 90 q 463 60 411 60 m 1124 0 l 1124 32 q 1151 63 1138 46 q 1179 104 1164 79 l 1485 581 l 1485 583 l 1321 569 q 1240 522 1264 564 q 1213 417 1215 479 l 1181 417 l 1181 639 l 1753 639 l 1753 607 q 1726 574 1740 593 q 1699 535 1713 556 l 1399 58 l 1399 56 l 1585 69 q 1664 98 1633 74 q 1710 158 1694 122 q 1731 229 1726 193 l 1763 229 l 1751 0 l 1124 0 m 1607 1033 l 1633 1021 q 1540 877 1585 956 q 1458 708 1494 799 l 1456 708 q 1374 877 1419 799 q 1281 1021 1329 956 l 1307 1033 q 1388 978 1350 1011 q 1457 910 1425 946 q 1526 978 1489 946 q 1607 1033 1564 1011 z "},"E":{"ha":875,"x_min":60,"x_max":835,"o":"m 81 0 l 81 32 q 139 53 121 35 q 157 139 157 71 l 157 785 q 137 872 157 853 q 60 892 117 890 l 60 924 l 742 924 l 742 729 l 710 729 q 669 826 707 789 q 551 864 631 864 l 440 864 q 395 849 411 864 q 379 785 379 833 l 379 511 q 406 522 390 519 q 444 525 422 525 l 579 525 q 649 549 621 525 q 678 614 676 572 l 710 614 l 710 378 l 678 378 q 649 447 676 429 q 579 465 621 465 l 447 465 q 394 453 410 465 q 379 404 379 440 l 379 139 q 401 75 379 90 q 485 60 422 60 l 617 60 q 749 110 700 60 q 803 229 797 160 l 835 229 l 824 0 l 81 0 z "},"É":{"ha":875,"x_min":60,"x_max":835,"o":"m 81 0 l 81 32 q 139 53 121 35 q 157 139 157 71 l 157 785 q 137 872 157 853 q 60 892 117 890 l 60 924 l 742 924 l 742 729 l 710 729 q 669 826 707 789 q 551 864 631 864 l 440 864 q 395 849 411 864 q 379 785 379 833 l 379 511 q 406 522 390 519 q 444 525 422 525 l 579 525 q 649 549 621 525 q 678 614 676 572 l 710 614 l 710 378 l 678 378 q 649 447 676 429 q 579 465 621 465 l 447 465 q 394 453 410 465 q 379 404 379 440 l 379 139 q 401 75 379 90 q 485 60 422 60 l 617 60 q 749 110 700 60 q 803 229 797 160 l 835 229 l 824 0 l 81 0 m 524 1222 q 580 1217 547 1224 q 644 1198 613 1211 q 694 1164 675 1185 q 580 1065 647 1108 q 438 993 513 1022 l 411 1006 q 485 1114 460 1060 q 524 1222 510 1168 z "},"Ĕ":{"ha":875,"x_min":60,"x_max":835,"o":"m 81 0 l 81 32 q 139 53 121 35 q 157 139 157 71 l 157 785 q 137 872 157 853 q 60 892 117 890 l 60 924 l 742 924 l 742 729 l 710 729 q 669 826 707 789 q 551 864 631 864 l 440 864 q 395 849 411 864 q 379 785 379 833 l 379 511 q 406 522 390 519 q 444 525 422 525 l 579 525 q 649 549 621 525 q 678 614 676 572 l 710 614 l 710 378 l 678 378 q 649 447 676 429 q 579 465 621 465 l 447 465 q 394 453 410 465 q 379 404 379 440 l 379 139 q 401 75 379 90 q 485 60 422 60 l 617 60 q 749 110 700 60 q 803 229 797 160 l 835 229 l 824 0 l 81 0 m 638 1218 l 664 1206 q 604 1049 653 1104 q 479 993 556 993 q 354 1049 403 993 q 294 1206 306 1104 l 321 1218 q 392 1148 349 1171 q 479 1125 435 1125 q 567 1148 524 1125 q 638 1218 611 1171 z "},"Ě":{"ha":875,"x_min":60,"x_max":835,"o":"m 81 0 l 81 32 q 139 53 121 35 q 157 139 157 71 l 157 785 q 137 872 157 853 q 60 892 117 890 l 60 924 l 742 924 l 742 729 l 710 729 q 669 826 707 789 q 551 864 631 864 l 440 864 q 395 849 411 864 q 379 785 379 833 l 379 511 q 406 522 390 519 q 444 525 422 525 l 579 525 q 649 549 621 525 q 678 614 676 572 l 710 614 l 710 378 l 678 378 q 649 447 676 429 q 579 465 621 465 l 447 465 q 394 453 410 465 q 379 404 379 440 l 379 139 q 401 75 379 90 q 485 60 422 60 l 617 60 q 749 110 700 60 q 803 229 797 160 l 835 229 l 824 0 l 81 0 m 643 1235 l 669 1222 q 570 1103 618 1167 q 481 979 522 1039 l 478 979 q 389 1103 436 1039 q 289 1222 342 1167 l 315 1235 q 479 1153 408 1206 q 643 1235 550 1206 z "},"Ȩ":{"ha":875,"x_min":60,"x_max":835,"o":"m 81 0 l 81 32 q 139 53 121 35 q 157 139 157 71 l 157 785 q 137 872 157 853 q 60 892 117 890 l 60 924 l 742 924 l 742 729 l 710 729 q 669 826 707 789 q 551 864 631 864 l 440 864 q 395 849 411 864 q 379 785 379 833 l 379 511 q 406 522 390 519 q 444 525 422 525 l 579 525 q 649 549 621 525 q 678 614 676 572 l 710 614 l 710 378 l 678 378 q 649 447 676 429 q 579 465 621 465 l 447 465 q 394 453 410 465 q 379 404 379 440 l 379 139 q 401 75 379 90 q 485 60 422 60 l 617 60 q 749 110 700 60 q 803 229 797 160 l 835 229 l 824 0 l 81 0 m 499 -60 q 595 -112 564 -76 q 626 -197 626 -149 q 605 -268 626 -239 q 549 -312 583 -297 q 478 -326 515 -326 q 415 -315 447 -326 q 364 -275 383 -303 l 379 -253 q 463 -264 432 -272 q 494 -225 494 -256 q 479 -188 494 -206 q 425 -165 464 -171 l 458 18 l 513 18 l 499 -60 z "},"Ḝ":{"ha":875,"x_min":-1,"x_max":835,"o":"m 81 0 l 81 32 q 139 53 121 35 q 157 139 157 71 l 157 785 q 137 872 157 853 q 60 892 117 890 l 60 924 l 742 924 l 742 729 l 710 729 q 669 826 707 789 q 551 864 631 864 l 440 864 q 395 849 411 864 q 379 785 379 833 l 379 511 q 406 522 390 519 q 444 525 422 525 l 579 525 q 649 549 621 525 q 678 614 676 572 l 710 614 l 710 378 l 678 378 q 649 447 676 429 q 579 465 621 465 l 447 465 q 394 453 410 465 q 379 404 379 440 l 379 139 q 401 75 379 90 q 485 60 422 60 l 617 60 q 749 110 700 60 q 803 229 797 160 l 835 229 l 824 0 l 81 0 m 133 -60 q 230 -112 199 -76 q 261 -197 261 -149 q 240 -268 261 -239 q 184 -312 218 -297 q 113 -326 150 -326 q 50 -315 82 -326 q -1 -275 18 -303 l 14 -253 q 98 -264 67 -272 q 129 -225 129 -256 q 114 -188 129 -206 q 60 -165 99 -171 l 93 18 l 147 18 l 133 -60 m 638 1218 l 664 1206 q 604 1049 653 1104 q 479 993 556 993 q 354 1049 403 993 q 294 1206 306 1104 l 321 1218 q 392 1148 349 1171 q 479 1125 435 1125 q 567 1148 524 1125 q 638 1218 611 1171 z "},"Ê":{"ha":875,"x_min":60,"x_max":835,"o":"m 81 0 l 81 32 q 139 53 121 35 q 157 139 157 71 l 157 785 q 137 872 157 853 q 60 892 117 890 l 60 924 l 742 924 l 742 729 l 710 729 q 669 826 707 789 q 551 864 631 864 l 440 864 q 395 849 411 864 q 379 785 379 833 l 379 511 q 406 522 390 519 q 444 525 422 525 l 579 525 q 649 549 621 525 q 678 614 676 572 l 710 614 l 710 378 l 678 378 q 649 447 676 429 q 579 465 621 465 l 447 465 q 394 453 410 465 q 379 404 379 440 l 379 139 q 401 75 379 90 q 485 60 422 60 l 617 60 q 749 110 700 60 q 803 229 797 160 l 835 229 l 824 0 l 81 0 m 643 993 q 479 1075 550 1022 q 315 993 408 1022 l 289 1006 q 389 1125 342 1061 q 478 1249 436 1189 l 481 1249 q 570 1125 522 1189 q 669 1006 618 1061 l 643 993 z "},"Ế":{"ha":875,"x_min":60,"x_max":860,"o":"m 81 0 l 81 32 q 139 53 121 35 q 157 139 157 71 l 157 785 q 137 872 157 853 q 60 892 117 890 l 60 924 l 742 924 l 742 729 l 710 729 q 669 826 707 789 q 551 864 631 864 l 440 864 q 395 849 411 864 q 379 785 379 833 l 379 511 q 406 522 390 519 q 444 525 422 525 l 579 525 q 649 549 621 525 q 678 614 676 572 l 710 614 l 710 378 l 678 378 q 649 447 676 429 q 579 465 621 465 l 447 465 q 394 453 410 465 q 379 404 379 440 l 379 139 q 401 75 379 90 q 485 60 422 60 l 617 60 q 749 110 700 60 q 803 229 797 160 l 835 229 l 824 0 l 81 0 m 689 1390 q 745 1385 713 1392 q 809 1366 778 1379 q 860 1332 840 1353 q 745 1233 813 1276 q 603 1161 678 1190 l 576 1174 q 650 1282 625 1228 q 689 1390 675 1336 m 633 993 q 469 1075 540 1022 q 306 993 399 1022 l 279 1006 q 379 1125 332 1061 q 468 1249 426 1189 l 471 1249 q 560 1125 513 1189 q 660 1006 608 1061 l 633 993 z "},"Ệ":{"ha":875,"x_min":60,"x_max":835,"o":"m 81 0 l 81 32 q 139 53 121 35 q 157 139 157 71 l 157 785 q 137 872 157 853 q 60 892 117 890 l 60 924 l 742 924 l 742 729 l 710 729 q 669 826 707 789 q 551 864 631 864 l 440 864 q 395 849 411 864 q 379 785 379 833 l 379 511 q 406 522 390 519 q 444 525 422 525 l 579 525 q 649 549 621 525 q 678 614 676 572 l 710 614 l 710 378 l 678 378 q 649 447 676 429 q 579 465 621 465 l 447 465 q 394 453 410 465 q 379 404 379 440 l 379 139 q 401 75 379 90 q 485 60 422 60 l 617 60 q 749 110 700 60 q 803 229 797 160 l 835 229 l 824 0 l 81 0 m 479 -294 q 402 -262 433 -294 q 371 -186 371 -231 q 402 -109 371 -142 q 479 -76 433 -76 q 556 -109 525 -76 q 588 -186 588 -142 q 556 -262 588 -231 q 479 -294 525 -294 m 643 993 q 479 1075 550 1022 q 315 993 408 1022 l 289 1006 q 389 1125 342 1061 q 478 1249 436 1189 l 481 1249 q 570 1125 522 1189 q 669 1006 618 1061 l 643 993 z "},"Ề":{"ha":875,"x_min":60,"x_max":835,"o":"m 81 0 l 81 32 q 139 53 121 35 q 157 139 157 71 l 157 785 q 137 872 157 853 q 60 892 117 890 l 60 924 l 742 924 l 742 729 l 710 729 q 669 826 707 789 q 551 864 631 864 l 440 864 q 395 849 411 864 q 379 785 379 833 l 379 511 q 406 522 390 519 q 444 525 422 525 l 579 525 q 649 549 621 525 q 678 614 676 572 l 710 614 l 710 378 l 678 378 q 649 447 676 429 q 579 465 621 465 l 447 465 q 394 453 410 465 q 379 404 379 440 l 379 139 q 401 75 379 90 q 485 60 422 60 l 617 60 q 749 110 700 60 q 803 229 797 160 l 835 229 l 824 0 l 81 0 m 664 1390 q 703 1282 678 1336 q 776 1174 729 1228 l 750 1161 q 608 1233 675 1190 q 493 1332 542 1276 q 544 1366 513 1353 q 608 1385 575 1379 q 664 1390 642 1392 m 633 993 q 469 1075 540 1022 q 306 993 399 1022 l 279 1006 q 379 1125 332 1061 q 468 1249 426 1189 l 471 1249 q 560 1125 513 1189 q 660 1006 608 1061 l 633 993 z "},"Ể":{"ha":875,"x_min":60,"x_max":835,"o":"m 81 0 l 81 32 q 139 53 121 35 q 157 139 157 71 l 157 785 q 137 872 157 853 q 60 892 117 890 l 60 924 l 742 924 l 742 729 l 710 729 q 669 826 707 789 q 551 864 631 864 l 440 864 q 395 849 411 864 q 379 785 379 833 l 379 511 q 406 522 390 519 q 444 525 422 525 l 579 525 q 649 549 621 525 q 678 614 676 572 l 710 614 l 710 378 l 678 378 q 649 447 676 429 q 579 465 621 465 l 447 465 q 394 453 410 465 q 379 404 379 440 l 379 139 q 401 75 379 90 q 485 60 422 60 l 617 60 q 749 110 700 60 q 803 229 797 160 l 835 229 l 824 0 l 81 0 m 661 1128 l 629 1128 q 636 1178 629 1160 q 649 1210 643 1196 q 656 1243 656 1225 q 643 1274 656 1264 q 611 1285 631 1285 q 543 1251 574 1285 l 521 1274 q 678 1407 558 1407 q 763 1383 725 1407 q 800 1306 800 1358 q 782 1245 800 1268 q 739 1206 764 1222 q 692 1172 714 1190 q 661 1128 669 1154 m 633 993 q 469 1075 540 1022 q 306 993 399 1022 l 279 1006 q 379 1125 332 1061 q 468 1249 426 1189 l 471 1249 q 560 1125 513 1189 q 660 1006 608 1061 l 633 993 z "},"Ễ":{"ha":875,"x_min":60,"x_max":835,"o":"m 81 0 l 81 32 q 139 53 121 35 q 157 139 157 71 l 157 785 q 137 872 157 853 q 60 892 117 890 l 60 924 l 742 924 l 742 729 l 710 729 q 669 826 707 789 q 551 864 631 864 l 440 864 q 395 849 411 864 q 379 785 379 833 l 379 511 q 406 522 390 519 q 444 525 422 525 l 579 525 q 649 549 621 525 q 678 614 676 572 l 710 614 l 710 378 l 678 378 q 649 447 676 429 q 579 465 621 465 l 447 465 q 394 453 410 465 q 379 404 379 440 l 379 139 q 401 75 379 90 q 485 60 422 60 l 617 60 q 749 110 700 60 q 803 229 797 160 l 835 229 l 824 0 l 81 0 m 643 993 q 479 1075 550 1022 q 315 993 408 1022 l 289 1006 q 389 1125 342 1061 q 478 1249 436 1189 l 481 1249 q 570 1125 522 1189 q 669 1006 618 1061 l 643 993 m 353 1333 q 269 1265 289 1333 l 238 1272 q 281 1414 249 1363 q 375 1465 313 1465 q 452 1449 413 1465 q 529 1415 492 1432 q 594 1397 567 1397 q 678 1465 658 1397 l 710 1458 q 667 1317 700 1369 q 572 1265 635 1265 q 495 1283 535 1265 q 419 1317 456 1300 q 353 1333 382 1333 z "},"Ȅ":{"ha":875,"x_min":60,"x_max":835,"o":"m 81 0 l 81 32 q 139 53 121 35 q 157 139 157 71 l 157 785 q 137 872 157 853 q 60 892 117 890 l 60 924 l 742 924 l 742 729 l 710 729 q 669 826 707 789 q 551 864 631 864 l 440 864 q 395 849 411 864 q 379 785 379 833 l 379 511 q 406 522 390 519 q 444 525 422 525 l 579 525 q 649 549 621 525 q 678 614 676 572 l 710 614 l 710 378 l 678 378 q 649 447 676 429 q 579 465 621 465 l 447 465 q 394 453 410 465 q 379 404 379 440 l 379 139 q 401 75 379 90 q 485 60 422 60 l 617 60 q 749 110 700 60 q 803 229 797 160 l 835 229 l 824 0 l 81 0 m 564 1222 q 603 1114 578 1168 q 676 1006 629 1060 l 650 993 q 508 1065 575 1022 q 393 1164 442 1108 q 444 1198 413 1185 q 508 1217 475 1211 q 564 1222 542 1224 m 342 1222 q 381 1114 356 1168 q 454 1006 407 1060 l 428 993 q 286 1065 353 1022 q 171 1164 219 1108 q 222 1198 190 1185 q 286 1217 253 1211 q 342 1222 319 1224 z "},"Ë":{"ha":875,"x_min":60,"x_max":835,"o":"m 81 0 l 81 32 q 139 53 121 35 q 157 139 157 71 l 157 785 q 137 872 157 853 q 60 892 117 890 l 60 924 l 742 924 l 742 729 l 710 729 q 669 826 707 789 q 551 864 631 864 l 440 864 q 395 849 411 864 q 379 785 379 833 l 379 511 q 406 522 390 519 q 444 525 422 525 l 579 525 q 649 549 621 525 q 678 614 676 572 l 710 614 l 710 378 l 678 378 q 649 447 676 429 q 579 465 621 465 l 447 465 q 394 453 410 465 q 379 404 379 440 l 379 139 q 401 75 379 90 q 485 60 422 60 l 617 60 q 749 110 700 60 q 803 229 797 160 l 835 229 l 824 0 l 81 0 m 335 994 q 253 1028 286 994 q 219 1108 219 1061 q 253 1188 219 1154 q 335 1222 286 1222 q 415 1188 382 1222 q 449 1108 449 1154 q 415 1028 449 1061 q 335 994 382 994 m 624 994 q 542 1028 575 994 q 508 1108 508 1061 q 542 1188 508 1154 q 624 1222 575 1222 q 704 1188 671 1222 q 738 1108 738 1154 q 704 1028 738 1061 q 624 994 671 994 z "},"Ė":{"ha":875,"x_min":60,"x_max":835,"o":"m 81 0 l 81 32 q 139 53 121 35 q 157 139 157 71 l 157 785 q 137 872 157 853 q 60 892 117 890 l 60 924 l 742 924 l 742 729 l 710 729 q 669 826 707 789 q 551 864 631 864 l 440 864 q 395 849 411 864 q 379 785 379 833 l 379 511 q 406 522 390 519 q 444 525 422 525 l 579 525 q 649 549 621 525 q 678 614 676 572 l 710 614 l 710 378 l 678 378 q 649 447 676 429 q 579 465 621 465 l 447 465 q 394 453 410 465 q 379 404 379 440 l 379 139 q 401 75 379 90 q 485 60 422 60 l 617 60 q 749 110 700 60 q 803 229 797 160 l 835 229 l 824 0 l 81 0 m 479 993 q 397 1026 431 993 q 364 1107 364 1060 q 397 1188 364 1154 q 479 1222 431 1222 q 560 1188 528 1222 q 593 1107 593 1154 q 560 1026 593 1060 q 479 993 528 993 z "},"Ẹ":{"ha":875,"x_min":60,"x_max":835,"o":"m 81 0 l 81 32 q 139 53 121 35 q 157 139 157 71 l 157 785 q 137 872 157 853 q 60 892 117 890 l 60 924 l 742 924 l 742 729 l 710 729 q 669 826 707 789 q 551 864 631 864 l 440 864 q 395 849 411 864 q 379 785 379 833 l 379 511 q 406 522 390 519 q 444 525 422 525 l 579 525 q 649 549 621 525 q 678 614 676 572 l 710 614 l 710 378 l 678 378 q 649 447 676 429 q 579 465 621 465 l 447 465 q 394 453 410 465 q 379 404 379 440 l 379 139 q 401 75 379 90 q 485 60 422 60 l 617 60 q 749 110 700 60 q 803 229 797 160 l 835 229 l 824 0 l 81 0 m 479 -329 q 401 -297 432 -329 q 369 -221 369 -265 q 401 -144 369 -176 q 479 -111 432 -111 q 556 -144 525 -111 q 588 -221 588 -176 q 556 -297 588 -265 q 479 -329 525 -329 z "},"È":{"ha":875,"x_min":60,"x_max":835,"o":"m 81 0 l 81 32 q 139 53 121 35 q 157 139 157 71 l 157 785 q 137 872 157 853 q 60 892 117 890 l 60 924 l 742 924 l 742 729 l 710 729 q 669 826 707 789 q 551 864 631 864 l 440 864 q 395 849 411 864 q 379 785 379 833 l 379 511 q 406 522 390 519 q 444 525 422 525 l 579 525 q 649 549 621 525 q 678 614 676 572 l 710 614 l 710 378 l 678 378 q 649 447 676 429 q 579 465 621 465 l 447 465 q 394 453 410 465 q 379 404 379 440 l 379 139 q 401 75 379 90 q 485 60 422 60 l 617 60 q 749 110 700 60 q 803 229 797 160 l 835 229 l 824 0 l 81 0 m 457 1222 q 497 1114 471 1168 q 569 1006 522 1060 l 543 993 q 401 1065 468 1022 q 286 1164 335 1108 q 337 1198 306 1185 q 401 1217 368 1211 q 457 1222 435 1224 z "},"Ẻ":{"ha":875,"x_min":60,"x_max":835,"o":"m 81 0 l 81 32 q 139 53 121 35 q 157 139 157 71 l 157 785 q 137 872 157 853 q 60 892 117 890 l 60 924 l 742 924 l 742 729 l 710 729 q 669 826 707 789 q 551 864 631 864 l 440 864 q 395 849 411 864 q 379 785 379 833 l 379 511 q 406 522 390 519 q 444 525 422 525 l 579 525 q 649 549 621 525 q 678 614 676 572 l 710 614 l 710 378 l 678 378 q 649 447 676 429 q 579 465 621 465 l 447 465 q 394 453 410 465 q 379 404 379 440 l 379 139 q 401 75 379 90 q 485 60 422 60 l 617 60 q 749 110 700 60 q 803 229 797 160 l 835 229 l 824 0 l 81 0 m 479 994 l 447 994 q 454 1044 447 1026 q 467 1077 461 1063 q 474 1110 474 1092 q 461 1141 474 1131 q 429 1151 449 1151 q 361 1118 392 1151 l 339 1140 q 496 1274 376 1274 q 581 1249 543 1274 q 618 1172 618 1225 q 600 1112 618 1135 q 557 1073 582 1089 q 510 1039 532 1057 q 479 994 488 1021 z "},"Ȇ":{"ha":875,"x_min":60,"x_max":835,"o":"m 81 0 l 81 32 q 139 53 121 35 q 157 139 157 71 l 157 785 q 137 872 157 853 q 60 892 117 890 l 60 924 l 742 924 l 742 729 l 710 729 q 669 826 707 789 q 551 864 631 864 l 440 864 q 395 849 411 864 q 379 785 379 833 l 379 511 q 406 522 390 519 q 444 525 422 525 l 579 525 q 649 549 621 525 q 678 614 676 572 l 710 614 l 710 378 l 678 378 q 649 447 676 429 q 579 465 621 465 l 447 465 q 394 453 410 465 q 379 404 379 440 l 379 139 q 401 75 379 90 q 485 60 422 60 l 617 60 q 749 110 700 60 q 803 229 797 160 l 835 229 l 824 0 l 81 0 m 638 993 q 567 1063 611 1040 q 479 1086 524 1086 q 392 1063 435 1086 q 321 993 349 1040 l 294 1006 q 354 1163 306 1108 q 479 1218 403 1218 q 604 1163 556 1218 q 664 1006 653 1108 l 638 993 z "},"Ē":{"ha":875,"x_min":60,"x_max":835,"o":"m 81 0 l 81 32 q 139 53 121 35 q 157 139 157 71 l 157 785 q 137 872 157 853 q 60 892 117 890 l 60 924 l 742 924 l 742 729 l 710 729 q 669 826 707 789 q 551 864 631 864 l 440 864 q 395 849 411 864 q 379 785 379 833 l 379 511 q 406 522 390 519 q 444 525 422 525 l 579 525 q 649 549 621 525 q 678 614 676 572 l 710 614 l 710 378 l 678 378 q 649 447 676 429 q 579 465 621 465 l 447 465 q 394 453 410 465 q 379 404 379 440 l 379 139 q 401 75 379 90 q 485 60 422 60 l 617 60 q 749 110 700 60 q 803 229 797 160 l 835 229 l 824 0 l 81 0 m 257 1158 l 701 1158 l 701 1043 l 257 1043 l 257 1158 z "},"Ḗ":{"ha":875,"x_min":60,"x_max":835,"o":"m 81 0 l 81 32 q 139 53 121 35 q 157 139 157 71 l 157 785 q 137 872 157 853 q 60 892 117 890 l 60 924 l 742 924 l 742 729 l 710 729 q 669 826 707 789 q 551 864 631 864 l 440 864 q 395 849 411 864 q 379 785 379 833 l 379 511 q 406 522 390 519 q 444 525 422 525 l 579 525 q 649 549 621 525 q 678 614 676 572 l 710 614 l 710 378 l 678 378 q 649 447 676 429 q 579 465 621 465 l 447 465 q 394 453 410 465 q 379 404 379 440 l 379 139 q 401 75 379 90 q 485 60 422 60 l 617 60 q 749 110 700 60 q 803 229 797 160 l 835 229 l 824 0 l 81 0 m 257 1158 l 701 1158 l 701 1043 l 257 1043 l 257 1158 m 521 1460 q 577 1455 544 1461 q 641 1435 610 1449 q 692 1401 672 1422 q 577 1303 644 1346 q 435 1231 510 1260 l 408 1243 q 482 1351 457 1297 q 521 1460 507 1406 z "},"Ḕ":{"ha":875,"x_min":60,"x_max":835,"o":"m 81 0 l 81 32 q 139 53 121 35 q 157 139 157 71 l 157 785 q 137 872 157 853 q 60 892 117 890 l 60 924 l 742 924 l 742 729 l 710 729 q 669 826 707 789 q 551 864 631 864 l 440 864 q 395 849 411 864 q 379 785 379 833 l 379 511 q 406 522 390 519 q 444 525 422 525 l 579 525 q 649 549 621 525 q 678 614 676 572 l 710 614 l 710 378 l 678 378 q 649 447 676 429 q 579 465 621 465 l 447 465 q 394 453 410 465 q 379 404 379 440 l 379 139 q 401 75 379 90 q 485 60 422 60 l 617 60 q 749 110 700 60 q 803 229 797 160 l 835 229 l 824 0 l 81 0 m 257 1158 l 701 1158 l 701 1043 l 257 1043 l 257 1158 m 454 1460 q 494 1351 468 1406 q 567 1243 519 1297 l 540 1231 q 399 1303 465 1260 q 283 1401 332 1346 q 334 1435 303 1422 q 399 1455 365 1449 q 454 1460 432 1461 z "},"Ę":{"ha":875,"x_min":60,"x_max":835,"o":"m 81 0 l 81 32 q 139 53 121 35 q 157 139 157 71 l 157 785 q 137 872 157 853 q 60 892 117 890 l 60 924 l 742 924 l 742 729 l 710 729 q 669 826 707 789 q 551 864 631 864 l 440 864 q 395 849 411 864 q 379 785 379 833 l 379 511 q 406 522 390 519 q 444 525 422 525 l 579 525 q 649 549 621 525 q 678 614 676 572 l 710 614 l 710 378 l 678 378 q 649 447 676 429 q 579 465 621 465 l 447 465 q 394 453 410 465 q 379 404 379 440 l 379 139 q 401 75 379 90 q 485 60 422 60 l 617 60 q 749 110 700 60 q 803 229 797 160 l 835 229 l 824 0 l 81 0 m 597 -326 q 535 -315 567 -326 q 484 -276 504 -303 q 464 -206 464 -250 q 491 -112 464 -153 q 558 -44 518 -72 q 638 -3 599 -17 l 638 0 l 769 0 q 678 -31 713 0 q 628 -103 643 -62 q 613 -174 613 -143 q 641 -234 613 -219 q 710 -242 669 -249 l 725 -264 q 669 -310 703 -294 q 597 -326 636 -326 z "},"Ẽ":{"ha":875,"x_min":60,"x_max":835,"o":"m 81 0 l 81 32 q 139 53 121 35 q 157 139 157 71 l 157 785 q 137 872 157 853 q 60 892 117 890 l 60 924 l 742 924 l 742 729 l 710 729 q 669 826 707 789 q 551 864 631 864 l 440 864 q 395 849 411 864 q 379 785 379 833 l 379 511 q 406 522 390 519 q 444 525 422 525 l 579 525 q 649 549 621 525 q 678 614 676 572 l 710 614 l 710 378 l 678 378 q 649 447 676 429 q 579 465 621 465 l 447 465 q 394 453 410 465 q 379 404 379 440 l 379 139 q 401 75 379 90 q 485 60 422 60 l 617 60 q 749 110 700 60 q 803 229 797 160 l 835 229 l 824 0 l 81 0 m 358 1068 q 275 1000 294 1068 l 243 1007 q 286 1149 254 1097 q 381 1200 318 1200 q 458 1183 418 1200 q 535 1149 497 1167 q 600 1132 572 1132 q 683 1200 664 1132 l 715 1193 q 673 1052 706 1104 q 578 1000 640 1000 q 501 1017 540 1000 q 424 1051 461 1035 q 358 1068 388 1068 z "},"F":{"ha":794,"x_min":60,"x_max":728,"o":"m 81 0 l 81 32 q 139 53 121 35 q 157 139 157 71 l 157 785 q 137 872 157 853 q 60 892 117 890 l 60 924 l 728 924 l 728 729 l 696 729 q 655 826 693 789 q 538 864 617 864 l 440 864 q 395 849 411 864 q 379 785 379 833 l 379 490 q 406 501 390 499 q 444 504 422 504 l 579 504 q 649 528 621 504 q 678 593 676 551 l 710 593 l 710 357 l 678 357 q 649 426 676 408 q 579 444 621 444 l 447 444 q 394 432 410 444 q 379 383 379 419 l 379 139 q 388 72 379 94 q 422 41 397 49 q 490 32 446 33 l 490 0 l 81 0 z "},"G":{"ha":1028,"x_min":81,"x_max":975,"o":"m 544 -21 q 308 37 414 -21 q 142 200 203 94 q 81 446 81 306 q 122 660 81 567 q 237 816 164 753 q 405 912 310 879 q 608 944 500 944 q 757 929 682 944 q 885 893 832 914 l 885 681 l 853 681 q 786 805 825 761 q 700 867 747 849 q 600 885 653 885 q 394 785 457 885 q 331 499 331 685 q 360 260 331 364 q 447 97 390 156 q 583 39 503 39 q 653 47 615 39 q 713 89 692 54 q 730 151 728 114 q 732 238 732 189 q 724 351 732 315 q 694 397 717 386 q 628 410 672 407 l 628 442 l 975 442 l 975 410 q 948 394 956 408 q 940 344 940 381 l 940 264 q 942 193 940 226 q 951 124 943 160 q 874 67 929 101 q 734 6 818 33 q 544 -21 650 -21 z "},"Ğ":{"ha":1028,"x_min":81,"x_max":975,"o":"m 544 -21 q 308 37 414 -21 q 142 200 203 94 q 81 446 81 306 q 122 660 81 567 q 237 816 164 753 q 405 912 310 879 q 608 944 500 944 q 757 929 682 944 q 885 893 832 914 l 885 681 l 853 681 q 786 805 825 761 q 700 867 747 849 q 600 885 653 885 q 394 785 457 885 q 331 499 331 685 q 360 260 331 364 q 447 97 390 156 q 583 39 503 39 q 653 47 615 39 q 713 89 692 54 q 730 151 728 114 q 732 238 732 189 q 724 351 732 315 q 694 397 717 386 q 628 410 672 407 l 628 442 l 975 442 l 975 410 q 948 394 956 408 q 940 344 940 381 l 940 264 q 942 193 940 226 q 951 124 943 160 q 874 67 929 101 q 734 6 818 33 q 544 -21 650 -21 m 728 1218 l 754 1206 q 694 1049 743 1104 q 569 993 646 993 q 444 1049 493 993 q 385 1206 396 1104 l 411 1218 q 482 1148 439 1171 q 569 1125 525 1125 q 658 1148 614 1125 q 728 1218 701 1171 z "},"Ǧ":{"ha":1028,"x_min":81,"x_max":975,"o":"m 544 -21 q 308 37 414 -21 q 142 200 203 94 q 81 446 81 306 q 122 660 81 567 q 237 816 164 753 q 405 912 310 879 q 608 944 500 944 q 757 929 682 944 q 885 893 832 914 l 885 681 l 853 681 q 786 805 825 761 q 700 867 747 849 q 600 885 653 885 q 394 785 457 885 q 331 499 331 685 q 360 260 331 364 q 447 97 390 156 q 583 39 503 39 q 653 47 615 39 q 713 89 692 54 q 730 151 728 114 q 732 238 732 189 q 724 351 732 315 q 694 397 717 386 q 628 410 672 407 l 628 442 l 975 442 l 975 410 q 948 394 956 408 q 940 344 940 381 l 940 264 q 942 193 940 226 q 951 124 943 160 q 874 67 929 101 q 734 6 818 33 q 544 -21 650 -21 m 733 1235 l 760 1222 q 660 1103 708 1167 q 571 979 613 1039 l 568 979 q 479 1103 526 1039 q 379 1222 432 1167 l 406 1235 q 569 1153 499 1206 q 733 1235 640 1206 z "},"Ĝ":{"ha":1028,"x_min":81,"x_max":975,"o":"m 544 -21 q 308 37 414 -21 q 142 200 203 94 q 81 446 81 306 q 122 660 81 567 q 237 816 164 753 q 405 912 310 879 q 608 944 500 944 q 757 929 682 944 q 885 893 832 914 l 885 681 l 853 681 q 786 805 825 761 q 700 867 747 849 q 600 885 653 885 q 394 785 457 885 q 331 499 331 685 q 360 260 331 364 q 447 97 390 156 q 583 39 503 39 q 653 47 615 39 q 713 89 692 54 q 730 151 728 114 q 732 238 732 189 q 724 351 732 315 q 694 397 717 386 q 628 410 672 407 l 628 442 l 975 442 l 975 410 q 948 394 956 408 q 940 344 940 381 l 940 264 q 942 193 940 226 q 951 124 943 160 q 874 67 929 101 q 734 6 818 33 q 544 -21 650 -21 m 733 993 q 569 1075 640 1022 q 406 993 499 1022 l 379 1006 q 479 1125 432 1061 q 568 1249 526 1189 l 571 1249 q 660 1125 613 1189 q 760 1006 708 1061 l 733 993 z "},"Ģ":{"ha":1028,"x_min":81,"x_max":975,"o":"m 544 -21 q 308 37 414 -21 q 142 200 203 94 q 81 446 81 306 q 122 660 81 567 q 237 816 164 753 q 405 912 310 879 q 608 944 500 944 q 757 929 682 944 q 885 893 832 914 l 885 681 l 853 681 q 786 805 825 761 q 700 867 747 849 q 600 885 653 885 q 394 785 457 885 q 331 499 331 685 q 360 260 331 364 q 447 97 390 156 q 583 39 503 39 q 653 47 615 39 q 713 89 692 54 q 730 151 728 114 q 732 238 732 189 q 724 351 732 315 q 694 397 717 386 q 628 410 672 407 l 628 442 l 975 442 l 975 410 q 948 394 956 408 q 940 344 940 381 l 940 264 q 942 193 940 226 q 951 124 943 160 q 874 67 929 101 q 734 6 818 33 q 544 -21 650 -21 m 632 -53 q 649 -101 644 -75 q 654 -146 654 -126 q 626 -243 654 -201 q 552 -310 599 -285 q 450 -342 506 -335 l 450 -310 q 483 -258 476 -289 q 490 -200 490 -226 q 474 -119 490 -156 q 547 -73 499 -92 q 632 -53 596 -54 z "},"Ġ":{"ha":1028,"x_min":81,"x_max":975,"o":"m 544 -21 q 308 37 414 -21 q 142 200 203 94 q 81 446 81 306 q 122 660 81 567 q 237 816 164 753 q 405 912 310 879 q 608 944 500 944 q 757 929 682 944 q 885 893 832 914 l 885 681 l 853 681 q 786 805 825 761 q 700 867 747 849 q 600 885 653 885 q 394 785 457 885 q 331 499 331 685 q 360 260 331 364 q 447 97 390 156 q 583 39 503 39 q 653 47 615 39 q 713 89 692 54 q 730 151 728 114 q 732 238 732 189 q 724 351 732 315 q 694 397 717 386 q 628 410 672 407 l 628 442 l 975 442 l 975 410 q 948 394 956 408 q 940 344 940 381 l 940 264 q 942 193 940 226 q 951 124 943 160 q 874 67 929 101 q 734 6 818 33 q 544 -21 650 -21 m 569 993 q 488 1026 521 993 q 454 1107 454 1060 q 488 1188 454 1154 q 569 1222 521 1222 q 651 1188 618 1222 q 683 1107 683 1154 q 651 1026 683 1060 q 569 993 618 993 z "},"Ḡ":{"ha":1028,"x_min":81,"x_max":975,"o":"m 544 -21 q 308 37 414 -21 q 142 200 203 94 q 81 446 81 306 q 122 660 81 567 q 237 816 164 753 q 405 912 310 879 q 608 944 500 944 q 757 929 682 944 q 885 893 832 914 l 885 681 l 853 681 q 786 805 825 761 q 700 867 747 849 q 600 885 653 885 q 394 785 457 885 q 331 499 331 685 q 360 260 331 364 q 447 97 390 156 q 583 39 503 39 q 653 47 615 39 q 713 89 692 54 q 730 151 728 114 q 732 238 732 189 q 724 351 732 315 q 694 397 717 386 q 628 410 672 407 l 628 442 l 975 442 l 975 410 q 948 394 956 408 q 940 344 940 381 l 940 264 q 942 193 940 226 q 951 124 943 160 q 874 67 929 101 q 734 6 818 33 q 544 -21 650 -21 m 347 1158 l 792 1158 l 792 1043 l 347 1043 l 347 1158 z "},"H":{"ha":1154,"x_min":60,"x_max":1094,"o":"m 81 0 l 81 32 q 139 53 121 35 q 157 139 157 71 l 157 785 q 137 872 157 853 q 60 892 117 890 l 60 924 l 456 924 l 456 892 q 397 872 415 890 q 379 785 379 853 l 379 539 q 406 550 390 547 q 444 553 422 553 l 707 553 q 760 565 744 553 q 775 615 775 578 l 775 785 q 755 872 775 853 q 678 892 735 890 l 678 924 l 1074 924 l 1074 892 q 1015 872 1033 890 q 997 785 997 853 l 997 139 q 1018 53 997 71 q 1094 32 1039 35 l 1094 0 l 699 0 l 699 32 q 757 53 739 35 q 775 139 775 71 l 775 508 q 747 496 764 499 q 710 493 731 493 l 447 493 q 394 481 410 493 q 379 432 379 468 l 379 139 q 400 53 379 71 q 476 32 421 35 l 476 0 l 81 0 z "},"Ħ":{"ha":1085,"x_min":6,"x_max":1090,"o":"m 51 0 l 51 32 q 110 53 92 35 q 128 139 128 71 l 128 686 l 6 686 l 6 746 l 128 746 l 128 785 q 108 872 128 853 q 31 892 88 890 l 31 924 l 426 924 l 426 892 q 368 872 386 890 q 350 785 350 853 l 350 746 l 746 746 l 746 785 q 726 872 746 853 q 649 892 706 890 l 649 924 l 1044 924 l 1044 892 q 986 872 1004 890 q 968 785 968 853 l 968 746 l 1090 746 l 1090 686 l 968 686 l 968 139 q 989 53 968 71 q 1065 32 1010 35 l 1065 0 l 669 0 l 669 32 q 728 53 710 35 q 746 139 746 71 l 746 508 q 718 496 735 499 q 681 493 701 493 l 418 493 q 365 481 381 493 q 350 432 350 468 l 350 139 q 371 53 350 71 q 447 32 392 35 l 447 0 l 51 0 m 746 615 l 746 686 l 350 686 l 350 539 q 377 550 361 547 q 415 553 393 553 l 678 553 q 731 565 715 553 q 746 615 746 578 z "},"Ḫ":{"ha":1154,"x_min":60,"x_max":1094,"o":"m 81 0 l 81 32 q 139 53 121 35 q 157 139 157 71 l 157 785 q 137 872 157 853 q 60 892 117 890 l 60 924 l 456 924 l 456 892 q 397 872 415 890 q 379 785 379 853 l 379 539 q 406 550 390 547 q 444 553 422 553 l 707 553 q 760 565 744 553 q 775 615 775 578 l 775 785 q 755 872 775 853 q 678 892 735 890 l 678 924 l 1074 924 l 1074 892 q 1015 872 1033 890 q 997 785 997 853 l 997 139 q 1018 53 997 71 q 1094 32 1039 35 l 1094 0 l 699 0 l 699 32 q 757 53 739 35 q 775 139 775 71 l 775 508 q 747 496 764 499 q 710 493 731 493 l 447 493 q 394 481 410 493 q 379 432 379 468 l 379 139 q 400 53 379 71 q 476 32 421 35 l 476 0 l 81 0 m 742 -112 l 768 -125 q 708 -282 757 -226 q 583 -337 660 -337 q 458 -282 507 -337 q 399 -125 410 -226 l 425 -112 q 496 -183 453 -160 q 583 -206 539 -206 q 672 -183 628 -206 q 742 -112 715 -160 z "},"Ĥ":{"ha":1154,"x_min":60,"x_max":1094,"o":"m 81 0 l 81 32 q 139 53 121 35 q 157 139 157 71 l 157 785 q 137 872 157 853 q 60 892 117 890 l 60 924 l 456 924 l 456 892 q 397 872 415 890 q 379 785 379 853 l 379 539 q 406 550 390 547 q 444 553 422 553 l 707 553 q 760 565 744 553 q 775 615 775 578 l 775 785 q 755 872 775 853 q 678 892 735 890 l 678 924 l 1074 924 l 1074 892 q 1015 872 1033 890 q 997 785 997 853 l 997 139 q 1018 53 997 71 q 1094 32 1039 35 l 1094 0 l 699 0 l 699 32 q 757 53 739 35 q 775 139 775 71 l 775 508 q 747 496 764 499 q 710 493 731 493 l 447 493 q 394 481 410 493 q 379 432 379 468 l 379 139 q 400 53 379 71 q 476 32 421 35 l 476 0 l 81 0 m 742 993 q 578 1075 649 1022 q 414 993 507 1022 l 388 1006 q 488 1125 440 1061 q 576 1249 535 1189 l 579 1249 q 669 1125 621 1189 q 768 1006 717 1061 l 742 993 z "},"Ḥ":{"ha":1154,"x_min":60,"x_max":1094,"o":"m 81 0 l 81 32 q 139 53 121 35 q 157 139 157 71 l 157 785 q 137 872 157 853 q 60 892 117 890 l 60 924 l 456 924 l 456 892 q 397 872 415 890 q 379 785 379 853 l 379 539 q 406 550 390 547 q 444 553 422 553 l 707 553 q 760 565 744 553 q 775 615 775 578 l 775 785 q 755 872 775 853 q 678 892 735 890 l 678 924 l 1074 924 l 1074 892 q 1015 872 1033 890 q 997 785 997 853 l 997 139 q 1018 53 997 71 q 1094 32 1039 35 l 1094 0 l 699 0 l 699 32 q 757 53 739 35 q 775 139 775 71 l 775 508 q 747 496 764 499 q 710 493 731 493 l 447 493 q 394 481 410 493 q 379 432 379 468 l 379 139 q 400 53 379 71 q 476 32 421 35 l 476 0 l 81 0 m 578 -294 q 501 -262 532 -294 q 469 -186 469 -231 q 501 -109 469 -142 q 578 -76 532 -76 q 655 -109 624 -76 q 686 -186 686 -142 q 655 -262 686 -231 q 578 -294 624 -294 z "},"I":{"ha":550,"x_min":67,"x_max":483,"o":"m 88 0 l 88 32 q 146 53 128 35 q 164 139 164 71 l 164 785 q 144 872 164 853 q 67 892 124 890 l 67 924 l 463 924 l 463 892 q 404 872 422 890 q 386 785 386 853 l 386 139 q 407 53 386 71 q 483 32 428 35 l 483 0 l 88 0 z "},"Ĳ":{"ha":1078,"x_min":67,"x_max":1001,"o":"m 88 0 l 88 32 q 146 53 128 35 q 164 139 164 71 l 164 785 q 144 872 164 853 q 67 892 124 890 l 67 924 l 463 924 l 463 892 q 404 872 422 890 q 386 785 386 853 l 386 139 q 407 53 386 71 q 483 32 428 35 l 483 0 l 88 0 m 619 -312 l 619 -281 q 674 -237 656 -267 q 697 -151 692 -208 q 703 0 703 -94 l 703 785 q 683 872 703 853 q 606 892 663 890 l 606 924 l 1001 924 l 1001 892 q 943 872 961 890 q 925 785 925 853 l 925 0 q 880 -170 925 -100 q 765 -276 835 -240 q 619 -312 696 -312 z "},"Í":{"ha":550,"x_min":67,"x_max":490,"o":"m 88 0 l 88 32 q 146 53 128 35 q 164 139 164 71 l 164 785 q 144 872 164 853 q 67 892 124 890 l 67 924 l 463 924 l 463 892 q 404 872 422 890 q 386 785 386 853 l 386 139 q 407 53 386 71 q 483 32 428 35 l 483 0 l 88 0 m 319 1222 q 376 1217 343 1224 q 440 1198 408 1211 q 490 1164 471 1185 q 376 1065 443 1108 q 233 993 308 1022 l 207 1006 q 281 1114 256 1060 q 319 1222 306 1168 z "},"Ĭ":{"ha":550,"x_min":67,"x_max":483,"o":"m 88 0 l 88 32 q 146 53 128 35 q 164 139 164 71 l 164 785 q 144 872 164 853 q 67 892 124 890 l 67 924 l 463 924 l 463 892 q 404 872 422 890 q 386 785 386 853 l 386 139 q 407 53 386 71 q 483 32 428 35 l 483 0 l 88 0 m 433 1218 l 460 1206 q 400 1049 449 1104 q 275 993 351 993 q 150 1049 199 993 q 90 1206 101 1104 l 117 1218 q 188 1148 144 1171 q 275 1125 231 1125 q 363 1148 319 1125 q 433 1218 407 1171 z "},"Ǐ":{"ha":550,"x_min":67,"x_max":483,"o":"m 88 0 l 88 32 q 146 53 128 35 q 164 139 164 71 l 164 785 q 144 872 164 853 q 67 892 124 890 l 67 924 l 463 924 l 463 892 q 404 872 422 890 q 386 785 386 853 l 386 139 q 407 53 386 71 q 483 32 428 35 l 483 0 l 88 0 m 439 1235 l 465 1222 q 366 1103 414 1167 q 276 979 318 1039 l 274 979 q 185 1103 232 1039 q 85 1222 138 1167 l 111 1235 q 275 1153 204 1206 q 439 1235 346 1206 z "},"Î":{"ha":550,"x_min":67,"x_max":483,"o":"m 88 0 l 88 32 q 146 53 128 35 q 164 139 164 71 l 164 785 q 144 872 164 853 q 67 892 124 890 l 67 924 l 463 924 l 463 892 q 404 872 422 890 q 386 785 386 853 l 386 139 q 407 53 386 71 q 483 32 428 35 l 483 0 l 88 0 m 439 993 q 275 1075 346 1022 q 111 993 204 1022 l 85 1006 q 185 1125 138 1061 q 274 1249 232 1189 l 276 1249 q 366 1125 318 1189 q 465 1006 414 1061 l 439 993 z "},"Ȉ":{"ha":550,"x_min":-33,"x_max":483,"o":"m 88 0 l 88 32 q 146 53 128 35 q 164 139 164 71 l 164 785 q 144 872 164 853 q 67 892 124 890 l 67 924 l 463 924 l 463 892 q 404 872 422 890 q 386 785 386 853 l 386 139 q 407 53 386 71 q 483 32 428 35 l 483 0 l 88 0 m 360 1222 q 399 1114 374 1168 q 472 1006 425 1060 l 446 993 q 304 1065 371 1022 q 189 1164 238 1108 q 240 1198 208 1185 q 304 1217 271 1211 q 360 1222 338 1224 m 138 1222 q 177 1114 151 1168 q 250 1006 203 1060 l 224 993 q 82 1065 149 1022 q -33 1164 15 1108 q 17 1198 -14 1185 q 82 1217 49 1211 q 138 1222 115 1224 z "},"Ï":{"ha":550,"x_min":15,"x_max":533,"o":"m 88 0 l 88 32 q 146 53 128 35 q 164 139 164 71 l 164 785 q 144 872 164 853 q 67 892 124 890 l 67 924 l 463 924 l 463 892 q 404 872 422 890 q 386 785 386 853 l 386 139 q 407 53 386 71 q 483 32 428 35 l 483 0 l 88 0 m 131 994 q 49 1028 82 994 q 15 1108 15 1061 q 49 1188 15 1154 q 131 1222 82 1222 q 211 1188 178 1222 q 244 1108 244 1154 q 211 1028 244 1061 q 131 994 178 994 m 419 994 q 338 1028 371 994 q 304 1108 304 1061 q 338 1188 304 1154 q 419 1222 371 1222 q 500 1188 467 1222 q 533 1108 533 1154 q 500 1028 533 1061 q 419 994 467 994 z "},"Ḯ":{"ha":550,"x_min":15,"x_max":533,"o":"m 88 0 l 88 32 q 146 53 128 35 q 164 139 164 71 l 164 785 q 144 872 164 853 q 67 892 124 890 l 67 924 l 463 924 l 463 892 q 404 872 422 890 q 386 785 386 853 l 386 139 q 407 53 386 71 q 483 32 428 35 l 483 0 l 88 0 m 131 994 q 49 1028 82 994 q 15 1108 15 1061 q 49 1188 15 1154 q 131 1222 82 1222 q 211 1188 178 1222 q 244 1108 244 1154 q 211 1028 244 1061 q 131 994 178 994 m 419 994 q 338 1028 371 994 q 304 1108 304 1061 q 338 1188 304 1154 q 419 1222 371 1222 q 500 1188 467 1222 q 533 1108 533 1154 q 500 1028 533 1061 q 419 994 467 994 m 317 1488 q 373 1483 340 1489 q 437 1463 406 1476 q 488 1429 468 1450 q 373 1331 440 1374 q 231 1258 306 1288 l 204 1271 q 278 1379 253 1325 q 317 1488 303 1433 z "},"İ":{"ha":550,"x_min":67,"x_max":483,"o":"m 88 0 l 88 32 q 146 53 128 35 q 164 139 164 71 l 164 785 q 144 872 164 853 q 67 892 124 890 l 67 924 l 463 924 l 463 892 q 404 872 422 890 q 386 785 386 853 l 386 139 q 407 53 386 71 q 483 32 428 35 l 483 0 l 88 0 m 275 993 q 193 1026 226 993 q 160 1107 160 1060 q 193 1188 160 1154 q 275 1222 226 1222 q 356 1188 324 1222 q 389 1107 389 1154 q 356 1026 389 1060 q 275 993 324 993 z "},"Ị":{"ha":550,"x_min":67,"x_max":483,"o":"m 88 0 l 88 32 q 146 53 128 35 q 164 139 164 71 l 164 785 q 144 872 164 853 q 67 892 124 890 l 67 924 l 463 924 l 463 892 q 404 872 422 890 q 386 785 386 853 l 386 139 q 407 53 386 71 q 483 32 428 35 l 483 0 l 88 0 m 275 -329 q 197 -297 228 -329 q 165 -221 165 -265 q 197 -144 165 -176 q 275 -111 228 -111 q 352 -144 321 -111 q 383 -221 383 -176 q 352 -297 383 -265 q 275 -329 321 -329 z "},"Ì":{"ha":550,"x_min":67,"x_max":483,"o":"m 88 0 l 88 32 q 146 53 128 35 q 164 139 164 71 l 164 785 q 144 872 164 853 q 67 892 124 890 l 67 924 l 463 924 l 463 892 q 404 872 422 890 q 386 785 386 853 l 386 139 q 407 53 386 71 q 483 32 428 35 l 483 0 l 88 0 m 253 1222 q 292 1114 267 1168 q 365 1006 318 1060 l 339 993 q 197 1065 264 1022 q 82 1164 131 1108 q 133 1198 101 1185 q 197 1217 164 1211 q 253 1222 231 1224 z "},"Ỉ":{"ha":550,"x_min":67,"x_max":483,"o":"m 88 0 l 88 32 q 146 53 128 35 q 164 139 164 71 l 164 785 q 144 872 164 853 q 67 892 124 890 l 67 924 l 463 924 l 463 892 q 404 872 422 890 q 386 785 386 853 l 386 139 q 407 53 386 71 q 483 32 428 35 l 483 0 l 88 0 m 275 994 l 243 994 q 250 1044 243 1026 q 263 1077 257 1063 q 269 1110 269 1092 q 257 1141 269 1131 q 225 1151 244 1151 q 157 1118 188 1151 l 135 1140 q 292 1274 172 1274 q 376 1249 339 1274 q 414 1172 414 1225 q 396 1112 414 1135 q 353 1073 378 1089 q 306 1039 328 1057 q 275 994 283 1021 z "},"Ȋ":{"ha":550,"x_min":67,"x_max":483,"o":"m 88 0 l 88 32 q 146 53 128 35 q 164 139 164 71 l 164 785 q 144 872 164 853 q 67 892 124 890 l 67 924 l 463 924 l 463 892 q 404 872 422 890 q 386 785 386 853 l 386 139 q 407 53 386 71 q 483 32 428 35 l 483 0 l 88 0 m 433 993 q 363 1063 407 1040 q 275 1086 319 1086 q 188 1063 231 1086 q 117 993 144 1040 l 90 1006 q 150 1163 101 1108 q 275 1218 199 1218 q 400 1163 351 1218 q 460 1006 449 1108 l 433 993 z "},"Ī":{"ha":550,"x_min":53,"x_max":497,"o":"m 88 0 l 88 32 q 146 53 128 35 q 164 139 164 71 l 164 785 q 144 872 164 853 q 67 892 124 890 l 67 924 l 463 924 l 463 892 q 404 872 422 890 q 386 785 386 853 l 386 139 q 407 53 386 71 q 483 32 428 35 l 483 0 l 88 0 m 53 1158 l 497 1158 l 497 1043 l 53 1043 l 53 1158 z "},"Į":{"ha":550,"x_min":67,"x_max":483,"o":"m 88 0 l 88 32 q 146 53 128 35 q 164 139 164 71 l 164 785 q 144 872 164 853 q 67 892 124 890 l 67 924 l 463 924 l 463 892 q 404 872 422 890 q 386 785 386 853 l 386 139 q 407 53 386 71 q 483 32 428 35 l 483 0 l 88 0 m 240 -326 q 178 -315 210 -326 q 127 -276 147 -303 q 107 -206 107 -250 q 134 -112 107 -153 q 201 -44 161 -72 q 281 -3 242 -17 l 281 0 l 413 0 q 321 -31 356 0 q 271 -103 286 -62 q 256 -174 256 -143 q 284 -234 256 -219 q 353 -242 313 -249 l 368 -264 q 313 -310 346 -294 q 240 -326 279 -326 z "},"Ĩ":{"ha":550,"x_min":39,"x_max":511,"o":"m 88 0 l 88 32 q 146 53 128 35 q 164 139 164 71 l 164 785 q 144 872 164 853 q 67 892 124 890 l 67 924 l 463 924 l 463 892 q 404 872 422 890 q 386 785 386 853 l 386 139 q 407 53 386 71 q 483 32 428 35 l 483 0 l 88 0 m 154 1068 q 71 1000 90 1068 l 39 1007 q 82 1149 50 1097 q 176 1200 114 1200 q 253 1183 214 1200 q 331 1149 293 1167 q 396 1132 368 1132 q 479 1200 460 1132 l 511 1193 q 469 1052 501 1104 q 374 1000 436 1000 q 297 1017 336 1000 q 220 1051 257 1035 q 154 1068 183 1068 z "},"J":{"ha":528,"x_min":56,"x_max":451,"o":"m 69 -312 l 69 -281 q 124 -237 106 -267 q 147 -151 142 -208 q 153 0 153 -94 l 153 785 q 133 872 153 853 q 56 892 113 890 l 56 924 l 451 924 l 451 892 q 393 872 411 890 q 375 785 375 853 l 375 0 q 330 -170 375 -100 q 215 -276 285 -240 q 69 -312 146 -312 z "},"Ĵ":{"ha":528,"x_min":54,"x_max":451,"o":"m 69 -312 l 69 -281 q 124 -237 106 -267 q 147 -151 142 -208 q 153 0 153 -94 l 153 785 q 133 872 153 853 q 56 892 113 890 l 56 924 l 451 924 l 451 892 q 393 872 411 890 q 375 785 375 853 l 375 0 q 330 -170 375 -100 q 215 -276 285 -240 q 69 -312 146 -312 m 408 993 q 244 1075 315 1022 q 81 993 174 1022 l 54 1006 q 154 1125 107 1061 q 243 1249 201 1189 l 246 1249 q 335 1125 288 1189 q 435 1006 383 1061 l 408 993 z "},"K":{"ha":1053,"x_min":60,"x_max":1046,"o":"m 906 -21 q 794 0 839 -21 q 717 54 749 21 q 660 126 686 88 l 457 436 q 433 466 442 460 q 411 472 424 472 q 388 461 397 472 q 379 425 379 450 l 379 139 q 400 53 379 71 q 476 32 421 35 l 476 0 l 81 0 l 81 32 q 139 53 121 35 q 157 139 157 71 l 157 785 q 137 872 157 853 q 60 892 117 890 l 60 924 l 456 924 l 456 892 q 397 872 415 890 q 379 785 379 853 l 379 528 l 382 528 l 693 785 q 729 820 717 804 q 742 850 742 836 q 660 892 742 888 l 660 924 l 975 924 l 975 892 q 899 863 933 885 q 824 806 864 840 l 622 639 q 612 619 611 629 q 622 593 613 610 l 913 143 q 986 56 953 79 q 1046 32 1019 32 l 1046 0 q 980 -15 1018 -10 q 906 -21 942 -21 z "},"Ķ":{"ha":1053,"x_min":60,"x_max":1046,"o":"m 906 -21 q 794 0 839 -21 q 717 54 749 21 q 660 126 686 88 l 457 436 q 433 466 442 460 q 411 472 424 472 q 388 461 397 472 q 379 425 379 450 l 379 139 q 400 53 379 71 q 476 32 421 35 l 476 0 l 81 0 l 81 32 q 139 53 121 35 q 157 139 157 71 l 157 785 q 137 872 157 853 q 60 892 117 890 l 60 924 l 456 924 l 456 892 q 397 872 415 890 q 379 785 379 853 l 379 528 l 382 528 l 693 785 q 729 820 717 804 q 742 850 742 836 q 660 892 742 888 l 660 924 l 975 924 l 975 892 q 899 863 933 885 q 824 806 864 840 l 622 639 q 612 619 611 629 q 622 593 613 610 l 913 143 q 986 56 953 79 q 1046 32 1019 32 l 1046 0 q 980 -15 1018 -10 q 906 -21 942 -21 m 597 -53 q 615 -101 610 -75 q 619 -146 619 -126 q 592 -243 619 -201 q 517 -310 564 -285 q 415 -342 471 -335 l 415 -310 q 449 -258 442 -289 q 456 -200 456 -226 q 439 -119 456 -156 q 513 -73 464 -92 q 597 -53 561 -54 z "},"L":{"ha":801,"x_min":60,"x_max":779,"o":"m 81 0 l 81 32 q 139 53 121 35 q 157 139 157 71 l 157 785 q 137 872 157 853 q 60 892 117 890 l 60 924 l 456 924 l 456 892 q 397 872 415 890 q 379 785 379 853 l 379 139 q 401 75 379 90 q 485 60 422 60 l 575 60 q 674 83 638 60 q 726 144 710 106 q 747 229 743 183 l 779 229 l 768 0 l 81 0 z "},"Ǉ":{"ha":1329,"x_min":60,"x_max":1253,"o":"m 81 0 l 81 32 q 139 53 121 35 q 157 139 157 71 l 157 785 q 137 872 157 853 q 60 892 117 890 l 60 924 l 456 924 l 456 892 q 397 872 415 890 q 379 785 379 853 l 379 139 q 401 75 379 90 q 485 60 422 60 l 575 60 q 674 83 638 60 q 726 144 710 106 q 747 229 743 183 l 779 229 l 768 0 l 81 0 m 871 -312 l 871 -281 q 925 -237 907 -267 q 949 -151 943 -208 q 954 0 954 -94 l 954 785 q 934 872 954 853 q 857 892 914 890 l 857 924 l 1253 924 l 1253 892 q 1194 872 1213 890 q 1176 785 1176 853 l 1176 0 q 1131 -170 1176 -100 q 1017 -276 1086 -240 q 871 -312 947 -312 z "},"Ĺ":{"ha":801,"x_min":60,"x_max":779,"o":"m 81 0 l 81 32 q 139 53 121 35 q 157 139 157 71 l 157 785 q 137 872 157 853 q 60 892 117 890 l 60 924 l 456 924 l 456 892 q 397 872 415 890 q 379 785 379 853 l 379 139 q 401 75 379 90 q 485 60 422 60 l 575 60 q 674 83 638 60 q 726 144 710 106 q 747 229 743 183 l 779 229 l 768 0 l 81 0 m 318 1222 q 374 1217 342 1224 q 438 1198 407 1211 q 489 1164 469 1185 q 374 1065 442 1108 q 232 993 307 1022 l 206 1006 q 279 1114 254 1060 q 318 1222 304 1168 z "},"Ľ":{"ha":749,"x_min":60,"x_max":779,"o":"m 81 0 l 81 32 q 139 53 121 35 q 157 139 157 71 l 157 785 q 137 872 157 853 q 60 892 117 890 l 60 924 l 456 924 l 456 892 q 397 872 415 890 q 379 785 379 853 l 379 139 q 401 75 379 90 q 485 60 422 60 l 575 60 q 674 83 638 60 q 726 144 710 106 q 747 229 743 183 l 779 229 l 768 0 l 81 0 m 568 926 q 724 926 646 954 q 688 768 718 854 q 608 619 657 682 l 574 619 q 586 776 589 696 q 568 926 583 857 z "},"Ļ":{"ha":801,"x_min":60,"x_max":779,"o":"m 81 0 l 81 32 q 139 53 121 35 q 157 139 157 71 l 157 785 q 137 872 157 853 q 60 892 117 890 l 60 924 l 456 924 l 456 892 q 397 872 415 890 q 379 785 379 853 l 379 139 q 401 75 379 90 q 485 60 422 60 l 575 60 q 674 83 638 60 q 726 144 710 106 q 747 229 743 183 l 779 229 l 768 0 l 81 0 m 489 -53 q 506 -101 501 -75 q 511 -146 511 -126 q 483 -243 511 -201 q 409 -310 456 -285 q 307 -342 363 -335 l 307 -310 q 340 -258 333 -289 q 347 -200 347 -226 q 331 -119 347 -156 q 404 -73 356 -92 q 489 -53 453 -54 z "},"Ŀ":{"ha":801,"x_min":60,"x_max":818,"o":"m 81 0 l 81 32 q 139 53 121 35 q 157 139 157 71 l 157 785 q 137 872 157 853 q 60 892 117 890 l 60 924 l 456 924 l 456 892 q 397 872 415 890 q 379 785 379 853 l 379 139 q 401 75 379 90 q 485 60 422 60 l 575 60 q 674 83 638 60 q 726 144 710 106 q 747 229 743 183 l 779 229 l 768 0 l 81 0 m 699 368 q 613 403 647 368 q 578 488 578 439 q 613 572 578 536 q 699 608 647 608 q 783 572 749 608 q 818 488 818 536 q 783 403 818 439 q 699 368 749 368 z "},"Ḷ":{"ha":801,"x_min":60,"x_max":779,"o":"m 81 0 l 81 32 q 139 53 121 35 q 157 139 157 71 l 157 785 q 137 872 157 853 q 60 892 117 890 l 60 924 l 456 924 l 456 892 q 397 872 415 890 q 379 785 379 853 l 379 139 q 401 75 379 90 q 485 60 422 60 l 575 60 q 674 83 638 60 q 726 144 710 106 q 747 229 743 183 l 779 229 l 768 0 l 81 0 m 413 -294 q 335 -262 367 -294 q 304 -186 304 -231 q 335 -109 304 -142 q 413 -76 367 -76 q 490 -109 458 -76 q 521 -186 521 -142 q 490 -262 521 -231 q 413 -294 458 -294 z "},"ǈ":{"ha":1232,"x_min":60,"x_max":1144,"o":"m 81 0 l 81 32 q 139 53 121 35 q 157 139 157 71 l 157 785 q 137 872 157 853 q 60 892 117 890 l 60 924 l 456 924 l 456 892 q 397 872 415 890 q 379 785 379 853 l 379 139 q 401 75 379 90 q 485 60 422 60 l 575 60 q 674 83 638 60 q 726 144 710 106 q 747 229 743 183 l 779 229 l 768 0 l 81 0 m 1119 668 l 1128 660 q 1124 595 1126 639 q 1122 485 1122 551 l 1122 7 q 1092 -159 1122 -83 q 993 -280 1061 -235 q 811 -326 925 -325 l 811 -296 q 876 -234 854 -269 q 906 -137 897 -199 q 914 28 914 -75 l 914 472 q 906 500 914 493 q 883 507 899 507 q 859 504 872 507 q 831 496 846 501 l 817 528 l 1119 668 m 1025 736 q 939 772 974 736 q 904 856 904 807 q 939 940 904 904 q 1025 976 974 976 q 1110 940 1075 976 q 1144 856 1144 904 q 1110 772 1144 807 q 1025 736 1075 736 z "},"Ḻ":{"ha":801,"x_min":60,"x_max":779,"o":"m 81 0 l 81 32 q 139 53 121 35 q 157 139 157 71 l 157 785 q 137 872 157 853 q 60 892 117 890 l 60 924 l 456 924 l 456 892 q 397 872 415 890 q 379 785 379 853 l 379 139 q 401 75 379 90 q 485 60 422 60 l 575 60 q 674 83 638 60 q 726 144 710 106 q 747 229 743 183 l 779 229 l 768 0 l 81 0 m 203 -169 l 619 -169 l 621 -267 l 204 -267 l 203 -169 z "},"Ł":{"ha":814,"x_min":8,"x_max":792,"o":"m 93 0 l 93 32 q 151 53 133 35 q 169 139 169 71 l 169 396 l 8 313 l 8 382 l 169 465 l 169 785 q 149 872 169 853 q 72 892 129 890 l 72 924 l 468 924 l 468 892 q 410 872 428 890 q 392 785 392 853 l 392 567 l 661 706 l 661 636 l 392 497 l 392 139 q 413 75 392 90 q 497 60 435 60 l 588 60 q 686 83 650 60 q 739 144 722 106 q 760 229 756 183 l 792 229 l 781 0 l 93 0 z "},"M":{"ha":1333,"x_min":67,"x_max":1288,"o":"m 563 -11 q 535 55 551 21 q 493 144 519 89 l 243 667 l 240 667 l 215 139 q 238 63 214 92 q 324 32 261 35 l 324 0 l 67 0 l 67 32 q 124 63 107 35 q 143 139 142 92 l 172 785 q 166 854 175 833 q 135 881 157 875 q 75 892 113 888 l 75 924 l 372 924 q 398 856 383 888 q 431 785 413 824 l 669 285 l 672 285 l 894 785 q 943 924 926 856 l 1238 924 l 1238 892 q 1193 883 1211 890 q 1167 855 1175 876 q 1161 785 1160 833 l 1190 139 q 1202 72 1193 94 q 1232 42 1211 50 q 1288 32 1253 35 l 1288 0 l 892 0 l 892 32 q 953 53 936 35 q 968 139 971 71 l 944 707 l 942 707 l 690 144 q 652 53 664 86 q 632 -11 640 21 l 563 -11 z "},"Ḿ":{"ha":1333,"x_min":67,"x_max":1288,"o":"m 563 -11 q 535 55 551 21 q 493 144 519 89 l 243 667 l 240 667 l 215 139 q 238 63 214 92 q 324 32 261 35 l 324 0 l 67 0 l 67 32 q 124 63 107 35 q 143 139 142 92 l 172 785 q 166 854 175 833 q 135 881 157 875 q 75 892 113 888 l 75 924 l 372 924 q 398 856 383 888 q 431 785 413 824 l 669 285 l 672 285 l 894 785 q 943 924 926 856 l 1238 924 l 1238 892 q 1193 883 1211 890 q 1167 855 1175 876 q 1161 785 1160 833 l 1190 139 q 1202 72 1193 94 q 1232 42 1211 50 q 1288 32 1253 35 l 1288 0 l 892 0 l 892 32 q 953 53 936 35 q 968 139 971 71 l 944 707 l 942 707 l 690 144 q 652 53 664 86 q 632 -11 640 21 l 563 -11 m 704 1222 q 760 1217 728 1224 q 824 1198 793 1211 q 875 1164 856 1185 q 760 1065 828 1108 q 618 993 693 1022 l 592 1006 q 665 1114 640 1060 q 704 1222 690 1168 z "},"Ṃ":{"ha":1333,"x_min":67,"x_max":1288,"o":"m 563 -11 q 535 55 551 21 q 493 144 519 89 l 243 667 l 240 667 l 215 139 q 238 63 214 92 q 324 32 261 35 l 324 0 l 67 0 l 67 32 q 124 63 107 35 q 143 139 142 92 l 172 785 q 166 854 175 833 q 135 881 157 875 q 75 892 113 888 l 75 924 l 372 924 q 398 856 383 888 q 431 785 413 824 l 669 285 l 672 285 l 894 785 q 943 924 926 856 l 1238 924 l 1238 892 q 1193 883 1211 890 q 1167 855 1175 876 q 1161 785 1160 833 l 1190 139 q 1202 72 1193 94 q 1232 42 1211 50 q 1288 32 1253 35 l 1288 0 l 892 0 l 892 32 q 953 53 936 35 q 968 139 971 71 l 944 707 l 942 707 l 690 144 q 652 53 664 86 q 632 -11 640 21 l 563 -11 m 674 -294 q 597 -262 628 -294 q 565 -186 565 -231 q 597 -109 565 -142 q 674 -76 628 -76 q 751 -109 719 -76 q 782 -186 782 -142 q 751 -262 782 -231 q 674 -294 719 -294 z "},"N":{"ha":1094,"x_min":61,"x_max":1031,"o":"m 894 -11 q 851 33 874 11 q 781 97 829 54 l 233 597 l 231 597 l 231 139 q 255 63 231 92 q 339 32 279 35 l 339 0 l 82 0 l 82 32 q 140 63 122 35 q 158 139 158 92 l 158 785 q 138 872 158 853 q 61 892 118 890 l 61 924 l 228 924 q 272 876 249 897 q 326 826 296 856 l 879 326 l 882 326 l 882 785 q 858 861 882 832 q 774 892 835 890 l 774 924 l 1031 924 l 1031 892 q 972 861 990 890 q 954 785 954 832 l 954 139 q 955 65 954 100 q 957 -11 956 29 l 894 -11 z "},"Ǌ":{"ha":1622,"x_min":61,"x_max":1546,"o":"m 894 -11 q 851 33 874 11 q 781 97 829 54 l 233 597 l 231 597 l 231 139 q 255 63 231 92 q 339 32 279 35 l 339 0 l 82 0 l 82 32 q 140 63 122 35 q 158 139 158 92 l 158 785 q 138 872 158 853 q 61 892 118 890 l 61 924 l 228 924 q 272 876 249 897 q 326 826 296 856 l 879 326 l 882 326 l 882 785 q 858 861 882 832 q 774 892 835 890 l 774 924 l 1031 924 l 1031 892 q 972 861 990 890 q 954 785 954 832 l 954 139 q 955 65 954 100 q 957 -11 956 29 l 894 -11 m 1164 -312 l 1164 -281 q 1218 -237 1200 -267 q 1242 -151 1236 -208 q 1247 0 1247 -94 l 1247 785 q 1227 872 1247 853 q 1150 892 1207 890 l 1150 924 l 1546 924 l 1546 892 q 1488 872 1506 890 q 1469 785 1469 853 l 1469 0 q 1424 -170 1469 -100 q 1310 -276 1379 -240 q 1164 -312 1240 -312 z "},"Ń":{"ha":1094,"x_min":61,"x_max":1031,"o":"m 894 -11 q 851 33 874 11 q 781 97 829 54 l 233 597 l 231 597 l 231 139 q 255 63 231 92 q 339 32 279 35 l 339 0 l 82 0 l 82 32 q 140 63 122 35 q 158 139 158 92 l 158 785 q 138 872 158 853 q 61 892 118 890 l 61 924 l 228 924 q 272 876 249 897 q 326 826 296 856 l 879 326 l 882 326 l 882 785 q 858 861 882 832 q 774 892 835 890 l 774 924 l 1031 924 l 1031 892 q 972 861 990 890 q 954 785 954 832 l 954 139 q 955 65 954 100 q 957 -11 956 29 l 894 -11 m 613 1222 q 669 1217 636 1224 q 733 1198 701 1211 q 783 1164 764 1185 q 669 1065 736 1108 q 526 993 601 1022 l 500 1006 q 574 1114 549 1060 q 613 1222 599 1168 z "},"Ň":{"ha":1094,"x_min":61,"x_max":1031,"o":"m 894 -11 q 851 33 874 11 q 781 97 829 54 l 233 597 l 231 597 l 231 139 q 255 63 231 92 q 339 32 279 35 l 339 0 l 82 0 l 82 32 q 140 63 122 35 q 158 139 158 92 l 158 785 q 138 872 158 853 q 61 892 118 890 l 61 924 l 228 924 q 272 876 249 897 q 326 826 296 856 l 879 326 l 882 326 l 882 785 q 858 861 882 832 q 774 892 835 890 l 774 924 l 1031 924 l 1031 892 q 972 861 990 890 q 954 785 954 832 l 954 139 q 955 65 954 100 q 957 -11 956 29 l 894 -11 m 732 1235 l 758 1222 q 659 1103 707 1167 q 569 979 611 1039 l 567 979 q 478 1103 525 1039 q 378 1222 431 1167 l 404 1235 q 568 1153 497 1206 q 732 1235 639 1206 z "},"Ņ":{"ha":1094,"x_min":61,"x_max":1031,"o":"m 894 -11 q 851 33 874 11 q 781 97 829 54 l 233 597 l 231 597 l 231 139 q 255 63 231 92 q 339 32 279 35 l 339 0 l 82 0 l 82 32 q 140 63 122 35 q 158 139 158 92 l 158 785 q 138 872 158 853 q 61 892 118 890 l 61 924 l 228 924 q 272 876 249 897 q 326 826 296 856 l 879 326 l 882 326 l 882 785 q 858 861 882 832 q 774 892 835 890 l 774 924 l 1031 924 l 1031 892 q 972 861 990 890 q 954 785 954 832 l 954 139 q 955 65 954 100 q 957 -11 956 29 l 894 -11 m 631 -53 q 648 -101 643 -75 q 653 -146 653 -126 q 625 -243 653 -201 q 551 -310 597 -285 q 449 -342 504 -335 l 449 -310 q 482 -258 475 -289 q 489 -200 489 -226 q 472 -119 489 -156 q 546 -73 497 -92 q 631 -53 594 -54 z "},"Ṅ":{"ha":1094,"x_min":61,"x_max":1031,"o":"m 894 -11 q 851 33 874 11 q 781 97 829 54 l 233 597 l 231 597 l 231 139 q 255 63 231 92 q 339 32 279 35 l 339 0 l 82 0 l 82 32 q 140 63 122 35 q 158 139 158 92 l 158 785 q 138 872 158 853 q 61 892 118 890 l 61 924 l 228 924 q 272 876 249 897 q 326 826 296 856 l 879 326 l 882 326 l 882 785 q 858 861 882 832 q 774 892 835 890 l 774 924 l 1031 924 l 1031 892 q 972 861 990 890 q 954 785 954 832 l 954 139 q 955 65 954 100 q 957 -11 956 29 l 894 -11 m 568 993 q 486 1026 519 993 q 453 1107 453 1060 q 486 1188 453 1154 q 568 1222 519 1222 q 649 1188 617 1222 q 682 1107 682 1154 q 649 1026 682 1060 q 568 993 617 993 z "},"Ṇ":{"ha":1094,"x_min":61,"x_max":1031,"o":"m 894 -11 q 851 33 874 11 q 781 97 829 54 l 233 597 l 231 597 l 231 139 q 255 63 231 92 q 339 32 279 35 l 339 0 l 82 0 l 82 32 q 140 63 122 35 q 158 139 158 92 l 158 785 q 138 872 158 853 q 61 892 118 890 l 61 924 l 228 924 q 272 876 249 897 q 326 826 296 856 l 879 326 l 882 326 l 882 785 q 858 861 882 832 q 774 892 835 890 l 774 924 l 1031 924 l 1031 892 q 972 861 990 890 q 954 785 954 832 l 954 139 q 955 65 954 100 q 957 -11 956 29 l 894 -11 m 554 -294 q 477 -262 508 -294 q 446 -186 446 -231 q 477 -109 446 -142 q 554 -76 508 -76 q 631 -109 600 -76 q 663 -186 663 -142 q 631 -262 663 -231 q 554 -294 600 -294 z "},"ǋ":{"ha":1525,"x_min":61,"x_max":1438,"o":"m 894 -11 q 851 33 874 11 q 781 97 829 54 l 233 597 l 231 597 l 231 139 q 255 63 231 92 q 339 32 279 35 l 339 0 l 82 0 l 82 32 q 140 63 122 35 q 158 139 158 92 l 158 785 q 138 872 158 853 q 61 892 118 890 l 61 924 l 228 924 q 272 876 249 897 q 326 826 296 856 l 879 326 l 882 326 l 882 785 q 858 861 882 832 q 774 892 835 890 l 774 924 l 1031 924 l 1031 892 q 972 861 990 890 q 954 785 954 832 l 954 139 q 955 65 954 100 q 957 -11 956 29 l 894 -11 m 1413 668 l 1421 660 q 1417 595 1419 639 q 1415 485 1415 551 l 1415 7 q 1385 -159 1415 -83 q 1286 -280 1354 -235 q 1104 -326 1218 -325 l 1104 -296 q 1169 -234 1147 -269 q 1199 -137 1190 -199 q 1207 28 1207 -75 l 1207 472 q 1199 500 1207 493 q 1176 507 1192 507 q 1152 504 1165 507 q 1124 496 1139 501 l 1110 528 l 1413 668 m 1318 736 q 1232 772 1267 736 q 1197 856 1197 807 q 1232 940 1197 904 q 1318 976 1267 976 q 1403 940 1368 976 q 1438 856 1438 904 q 1403 772 1438 807 q 1318 736 1368 736 z "},"Ṉ":{"ha":1094,"x_min":61,"x_max":1031,"o":"m 894 -11 q 851 33 874 11 q 781 97 829 54 l 233 597 l 231 597 l 231 139 q 255 63 231 92 q 339 32 279 35 l 339 0 l 82 0 l 82 32 q 140 63 122 35 q 158 139 158 92 l 158 785 q 138 872 158 853 q 61 892 118 890 l 61 924 l 228 924 q 272 876 249 897 q 326 826 296 856 l 879 326 l 882 326 l 882 785 q 858 861 882 832 q 774 892 835 890 l 774 924 l 1031 924 l 1031 892 q 972 861 990 890 q 954 785 954 832 l 954 139 q 955 65 954 100 q 957 -11 956 29 l 894 -11 m 344 -169 l 761 -169 l 763 -267 l 346 -267 l 344 -169 z "},"Ñ":{"ha":1094,"x_min":61,"x_max":1031,"o":"m 894 -11 q 851 33 874 11 q 781 97 829 54 l 233 597 l 231 597 l 231 139 q 255 63 231 92 q 339 32 279 35 l 339 0 l 82 0 l 82 32 q 140 63 122 35 q 158 139 158 92 l 158 785 q 138 872 158 853 q 61 892 118 890 l 61 924 l 228 924 q 272 876 249 897 q 326 826 296 856 l 879 326 l 882 326 l 882 785 q 858 861 882 832 q 774 892 835 890 l 774 924 l 1031 924 l 1031 892 q 972 861 990 890 q 954 785 954 832 l 954 139 q 955 65 954 100 q 957 -11 956 29 l 894 -11 m 447 1068 q 364 1000 383 1068 l 332 1007 q 375 1149 343 1097 q 469 1200 407 1200 q 547 1183 507 1200 q 624 1149 586 1167 q 689 1132 661 1132 q 772 1200 753 1132 l 804 1193 q 762 1052 794 1104 q 667 1000 729 1000 q 590 1017 629 1000 q 513 1051 550 1035 q 447 1068 476 1068 z "},"Ŋ":{"ha":1094,"x_min":61,"x_max":1031,"o":"m 774 892 l 774 924 l 1031 924 l 1031 892 q 972 861 990 890 q 954 785 954 832 l 954 72 q 901 -156 954 -64 q 756 -289 849 -247 q 542 -319 663 -331 q 534 -247 536 -287 q 534 -164 532 -206 q 542 -92 536 -122 l 574 -92 q 611 -208 588 -176 q 663 -240 635 -240 q 724 -181 703 -240 q 746 24 746 -121 l 746 129 l 233 604 l 231 604 l 231 139 q 255 63 231 92 q 339 32 279 35 l 339 0 l 82 0 l 82 32 q 140 63 122 35 q 158 139 158 92 l 158 785 q 138 872 158 853 q 61 892 118 890 l 61 924 l 228 924 q 272 876 249 897 q 326 826 296 856 l 879 319 l 882 319 l 882 785 q 858 861 882 832 q 774 892 835 890 z "},"O":{"ha":1104,"x_min":81,"x_max":1024,"o":"m 553 944 q 736 911 651 944 q 886 815 821 878 q 988 663 951 751 q 1024 464 1024 574 q 988 265 1024 354 q 887 113 951 176 q 736 14 822 49 q 551 -21 650 -21 q 369 13 454 -21 q 218 109 283 46 q 117 261 153 172 q 81 460 81 350 q 117 658 81 569 q 217 811 153 747 q 368 910 282 875 q 553 944 454 944 m 581 39 q 694 87 653 39 q 755 219 736 135 q 774 417 774 304 q 705 764 774 643 q 524 885 636 885 q 410 838 453 885 q 349 705 368 790 q 331 507 331 619 q 399 160 331 281 q 581 39 468 39 z "},"Ó":{"ha":1104,"x_min":81,"x_max":1024,"o":"m 553 944 q 736 911 651 944 q 886 815 821 878 q 988 663 951 751 q 1024 464 1024 574 q 988 265 1024 354 q 887 113 951 176 q 736 14 822 49 q 551 -21 650 -21 q 369 13 454 -21 q 218 109 283 46 q 117 261 153 172 q 81 460 81 350 q 117 658 81 569 q 217 811 153 747 q 368 910 282 875 q 553 944 454 944 m 581 39 q 694 87 653 39 q 755 219 736 135 q 774 417 774 304 q 705 764 774 643 q 524 885 636 885 q 410 838 453 885 q 349 705 368 790 q 331 507 331 619 q 399 160 331 281 q 581 39 468 39 m 599 1222 q 655 1217 622 1224 q 719 1198 688 1211 q 769 1164 750 1185 q 655 1065 722 1108 q 513 993 588 1022 l 486 1006 q 560 1114 535 1060 q 599 1222 585 1168 z "},"Ŏ":{"ha":1104,"x_min":81,"x_max":1024,"o":"m 553 944 q 736 911 651 944 q 886 815 821 878 q 988 663 951 751 q 1024 464 1024 574 q 988 265 1024 354 q 887 113 951 176 q 736 14 822 49 q 551 -21 650 -21 q 369 13 454 -21 q 218 109 283 46 q 117 261 153 172 q 81 460 81 350 q 117 658 81 569 q 217 811 153 747 q 368 910 282 875 q 553 944 454 944 m 581 39 q 694 87 653 39 q 755 219 736 135 q 774 417 774 304 q 705 764 774 643 q 524 885 636 885 q 410 838 453 885 q 349 705 368 790 q 331 507 331 619 q 399 160 331 281 q 581 39 468 39 m 713 1218 l 739 1206 q 679 1049 728 1104 q 554 993 631 993 q 429 1049 478 993 q 369 1206 381 1104 l 396 1218 q 467 1148 424 1171 q 554 1125 510 1125 q 642 1148 599 1125 q 713 1218 686 1171 z "},"Ǒ":{"ha":1104,"x_min":81,"x_max":1024,"o":"m 553 944 q 736 911 651 944 q 886 815 821 878 q 988 663 951 751 q 1024 464 1024 574 q 988 265 1024 354 q 887 113 951 176 q 736 14 822 49 q 551 -21 650 -21 q 369 13 454 -21 q 218 109 283 46 q 117 261 153 172 q 81 460 81 350 q 117 658 81 569 q 217 811 153 747 q 368 910 282 875 q 553 944 454 944 m 581 39 q 694 87 653 39 q 755 219 736 135 q 774 417 774 304 q 705 764 774 643 q 524 885 636 885 q 410 838 453 885 q 349 705 368 790 q 331 507 331 619 q 399 160 331 281 q 581 39 468 39 m 718 1235 l 744 1222 q 645 1103 693 1167 q 556 979 597 1039 l 553 979 q 464 1103 511 1039 q 364 1222 417 1167 l 390 1235 q 554 1153 483 1206 q 718 1235 625 1206 z "},"Ô":{"ha":1104,"x_min":81,"x_max":1024,"o":"m 553 944 q 736 911 651 944 q 886 815 821 878 q 988 663 951 751 q 1024 464 1024 574 q 988 265 1024 354 q 887 113 951 176 q 736 14 822 49 q 551 -21 650 -21 q 369 13 454 -21 q 218 109 283 46 q 117 261 153 172 q 81 460 81 350 q 117 658 81 569 q 217 811 153 747 q 368 910 282 875 q 553 944 454 944 m 581 39 q 694 87 653 39 q 755 219 736 135 q 774 417 774 304 q 705 764 774 643 q 524 885 636 885 q 410 838 453 885 q 349 705 368 790 q 331 507 331 619 q 399 160 331 281 q 581 39 468 39 m 718 993 q 554 1075 625 1022 q 390 993 483 1022 l 364 1006 q 464 1125 417 1061 q 553 1249 511 1189 l 556 1249 q 645 1125 597 1189 q 744 1006 693 1061 l 718 993 z "},"Ố":{"ha":1104,"x_min":81,"x_max":1024,"o":"m 553 944 q 736 911 651 944 q 886 815 821 878 q 988 663 951 751 q 1024 464 1024 574 q 988 265 1024 354 q 887 113 951 176 q 736 14 822 49 q 551 -21 650 -21 q 369 13 454 -21 q 218 109 283 46 q 117 261 153 172 q 81 460 81 350 q 117 658 81 569 q 217 811 153 747 q 368 910 282 875 q 553 944 454 944 m 581 39 q 694 87 653 39 q 755 219 736 135 q 774 417 774 304 q 705 764 774 643 q 524 885 636 885 q 410 838 453 885 q 349 705 368 790 q 331 507 331 619 q 399 160 331 281 q 581 39 468 39 m 764 1390 q 820 1385 788 1392 q 884 1366 853 1379 q 935 1332 915 1353 q 820 1233 888 1276 q 678 1161 753 1190 l 651 1174 q 725 1282 700 1228 q 764 1390 750 1336 m 708 993 q 544 1075 615 1022 q 381 993 474 1022 l 354 1006 q 454 1125 407 1061 q 543 1249 501 1189 l 546 1249 q 635 1125 588 1189 q 735 1006 683 1061 l 708 993 z "},"Ộ":{"ha":1104,"x_min":81,"x_max":1024,"o":"m 553 944 q 736 911 651 944 q 886 815 821 878 q 988 663 951 751 q 1024 464 1024 574 q 988 265 1024 354 q 887 113 951 176 q 736 14 822 49 q 551 -21 650 -21 q 369 13 454 -21 q 218 109 283 46 q 117 261 153 172 q 81 460 81 350 q 117 658 81 569 q 217 811 153 747 q 368 910 282 875 q 553 944 454 944 m 581 39 q 694 87 653 39 q 755 219 736 135 q 774 417 774 304 q 705 764 774 643 q 524 885 636 885 q 410 838 453 885 q 349 705 368 790 q 331 507 331 619 q 399 160 331 281 q 581 39 468 39 m 568 -294 q 491 -262 522 -294 q 460 -186 460 -231 q 491 -109 460 -142 q 568 -76 522 -76 q 645 -109 614 -76 q 676 -186 676 -142 q 645 -262 676 -231 q 568 -294 614 -294 m 718 993 q 554 1075 625 1022 q 390 993 483 1022 l 364 1006 q 464 1125 417 1061 q 553 1249 511 1189 l 556 1249 q 645 1125 597 1189 q 744 1006 693 1061 l 718 993 z "},"Ồ":{"ha":1104,"x_min":81,"x_max":1024,"o":"m 553 944 q 736 911 651 944 q 886 815 821 878 q 988 663 951 751 q 1024 464 1024 574 q 988 265 1024 354 q 887 113 951 176 q 736 14 822 49 q 551 -21 650 -21 q 369 13 454 -21 q 218 109 283 46 q 117 261 153 172 q 81 460 81 350 q 117 658 81 569 q 217 811 153 747 q 368 910 282 875 q 553 944 454 944 m 581 39 q 694 87 653 39 q 755 219 736 135 q 774 417 774 304 q 705 764 774 643 q 524 885 636 885 q 410 838 453 885 q 349 705 368 790 q 331 507 331 619 q 399 160 331 281 q 581 39 468 39 m 739 1390 q 778 1282 753 1336 q 851 1174 804 1228 l 825 1161 q 683 1233 750 1190 q 568 1332 617 1276 q 619 1366 588 1353 q 683 1385 650 1379 q 739 1390 717 1392 m 708 993 q 544 1075 615 1022 q 381 993 474 1022 l 354 1006 q 454 1125 407 1061 q 543 1249 501 1189 l 546 1249 q 635 1125 588 1189 q 735 1006 683 1061 l 708 993 z "},"Ổ":{"ha":1104,"x_min":81,"x_max":1024,"o":"m 553 944 q 736 911 651 944 q 886 815 821 878 q 988 663 951 751 q 1024 464 1024 574 q 988 265 1024 354 q 887 113 951 176 q 736 14 822 49 q 551 -21 650 -21 q 369 13 454 -21 q 218 109 283 46 q 117 261 153 172 q 81 460 81 350 q 117 658 81 569 q 217 811 153 747 q 368 910 282 875 q 553 944 454 944 m 581 39 q 694 87 653 39 q 755 219 736 135 q 774 417 774 304 q 705 764 774 643 q 524 885 636 885 q 410 838 453 885 q 349 705 368 790 q 331 507 331 619 q 399 160 331 281 q 581 39 468 39 m 718 993 q 554 1075 625 1022 q 390 993 483 1022 l 364 1006 q 464 1125 417 1061 q 553 1249 511 1189 l 556 1249 q 645 1125 597 1189 q 744 1006 693 1061 l 718 993 m 563 1288 l 531 1288 q 538 1338 531 1319 q 551 1370 544 1356 q 557 1403 557 1385 q 544 1434 557 1424 q 513 1444 532 1444 q 444 1411 475 1444 l 422 1433 q 579 1567 460 1567 q 664 1542 626 1567 q 701 1465 701 1518 q 683 1405 701 1428 q 640 1366 665 1382 q 593 1332 615 1350 q 563 1288 571 1314 z "},"Ỗ":{"ha":1104,"x_min":81,"x_max":1024,"o":"m 553 944 q 736 911 651 944 q 886 815 821 878 q 988 663 951 751 q 1024 464 1024 574 q 988 265 1024 354 q 887 113 951 176 q 736 14 822 49 q 551 -21 650 -21 q 369 13 454 -21 q 218 109 283 46 q 117 261 153 172 q 81 460 81 350 q 117 658 81 569 q 217 811 153 747 q 368 910 282 875 q 553 944 454 944 m 581 39 q 694 87 653 39 q 755 219 736 135 q 774 417 774 304 q 705 764 774 643 q 524 885 636 885 q 410 838 453 885 q 349 705 368 790 q 331 507 331 619 q 399 160 331 281 q 581 39 468 39 m 718 993 q 554 1075 625 1022 q 390 993 483 1022 l 364 1006 q 464 1125 417 1061 q 553 1249 511 1189 l 556 1249 q 645 1125 597 1189 q 744 1006 693 1061 l 718 993 m 428 1333 q 344 1265 364 1333 l 313 1272 q 356 1414 324 1363 q 450 1465 388 1465 q 527 1449 488 1465 q 604 1415 567 1432 q 669 1397 642 1397 q 753 1465 733 1397 l 785 1458 q 742 1317 775 1369 q 647 1265 710 1265 q 570 1283 610 1265 q 494 1317 531 1300 q 428 1333 457 1333 z "},"Ȍ":{"ha":1104,"x_min":81,"x_max":1024,"o":"m 553 944 q 736 911 651 944 q 886 815 821 878 q 988 663 951 751 q 1024 464 1024 574 q 988 265 1024 354 q 887 113 951 176 q 736 14 822 49 q 551 -21 650 -21 q 369 13 454 -21 q 218 109 283 46 q 117 261 153 172 q 81 460 81 350 q 117 658 81 569 q 217 811 153 747 q 368 910 282 875 q 553 944 454 944 m 581 39 q 694 87 653 39 q 755 219 736 135 q 774 417 774 304 q 705 764 774 643 q 524 885 636 885 q 410 838 453 885 q 349 705 368 790 q 331 507 331 619 q 399 160 331 281 q 581 39 468 39 m 639 1222 q 678 1114 653 1168 q 751 1006 704 1060 l 725 993 q 583 1065 650 1022 q 468 1164 517 1108 q 519 1198 488 1185 q 583 1217 550 1211 q 639 1222 617 1224 m 417 1222 q 456 1114 431 1168 q 529 1006 482 1060 l 503 993 q 361 1065 428 1022 q 246 1164 294 1108 q 297 1198 265 1185 q 361 1217 328 1211 q 417 1222 394 1224 z "},"Ö":{"ha":1104,"x_min":81,"x_max":1024,"o":"m 553 944 q 736 911 651 944 q 886 815 821 878 q 988 663 951 751 q 1024 464 1024 574 q 988 265 1024 354 q 887 113 951 176 q 736 14 822 49 q 551 -21 650 -21 q 369 13 454 -21 q 218 109 283 46 q 117 261 153 172 q 81 460 81 350 q 117 658 81 569 q 217 811 153 747 q 368 910 282 875 q 553 944 454 944 m 581 39 q 694 87 653 39 q 755 219 736 135 q 774 417 774 304 q 705 764 774 643 q 524 885 636 885 q 410 838 453 885 q 349 705 368 790 q 331 507 331 619 q 399 160 331 281 q 581 39 468 39 m 410 994 q 328 1028 361 994 q 294 1108 294 1061 q 328 1188 294 1154 q 410 1222 361 1222 q 490 1188 457 1222 q 524 1108 524 1154 q 490 1028 524 1061 q 410 994 457 994 m 699 994 q 617 1028 650 994 q 583 1108 583 1061 q 617 1188 583 1154 q 699 1222 650 1222 q 779 1188 746 1222 q 813 1108 813 1154 q 779 1028 813 1061 q 699 994 746 994 z "},"Ȫ":{"ha":1104,"x_min":81,"x_max":1024,"o":"m 553 944 q 736 911 651 944 q 886 815 821 878 q 988 663 951 751 q 1024 464 1024 574 q 988 265 1024 354 q 887 113 951 176 q 736 14 822 49 q 551 -21 650 -21 q 369 13 454 -21 q 218 109 283 46 q 117 261 153 172 q 81 460 81 350 q 117 658 81 569 q 217 811 153 747 q 368 910 282 875 q 553 944 454 944 m 581 39 q 694 87 653 39 q 755 219 736 135 q 774 417 774 304 q 705 764 774 643 q 524 885 636 885 q 410 838 453 885 q 349 705 368 790 q 331 507 331 619 q 399 160 331 281 q 581 39 468 39 m 410 994 q 328 1028 361 994 q 294 1108 294 1061 q 328 1188 294 1154 q 410 1222 361 1222 q 490 1188 457 1222 q 524 1108 524 1154 q 490 1028 524 1061 q 410 994 457 994 m 699 994 q 617 1028 650 994 q 583 1108 583 1061 q 617 1188 583 1154 q 699 1222 650 1222 q 779 1188 746 1222 q 813 1108 813 1154 q 779 1028 813 1061 q 699 994 746 994 m 329 1424 l 774 1424 l 774 1308 l 329 1308 l 329 1424 z "},"Ȯ":{"ha":1104,"x_min":81,"x_max":1024,"o":"m 553 944 q 736 911 651 944 q 886 815 821 878 q 988 663 951 751 q 1024 464 1024 574 q 988 265 1024 354 q 887 113 951 176 q 736 14 822 49 q 551 -21 650 -21 q 369 13 454 -21 q 218 109 283 46 q 117 261 153 172 q 81 460 81 350 q 117 658 81 569 q 217 811 153 747 q 368 910 282 875 q 553 944 454 944 m 581 39 q 694 87 653 39 q 755 219 736 135 q 774 417 774 304 q 705 764 774 643 q 524 885 636 885 q 410 838 453 885 q 349 705 368 790 q 331 507 331 619 q 399 160 331 281 q 581 39 468 39 m 554 993 q 472 1026 506 993 q 439 1107 439 1060 q 472 1188 439 1154 q 554 1222 506 1222 q 635 1188 603 1222 q 668 1107 668 1154 q 635 1026 668 1060 q 554 993 603 993 z "},"Ȱ":{"ha":1104,"x_min":81,"x_max":1024,"o":"m 553 944 q 736 911 651 944 q 886 815 821 878 q 988 663 951 751 q 1024 464 1024 574 q 988 265 1024 354 q 887 113 951 176 q 736 14 822 49 q 551 -21 650 -21 q 369 13 454 -21 q 218 109 283 46 q 117 261 153 172 q 81 460 81 350 q 117 658 81 569 q 217 811 153 747 q 368 910 282 875 q 553 944 454 944 m 581 39 q 694 87 653 39 q 755 219 736 135 q 774 417 774 304 q 705 764 774 643 q 524 885 636 885 q 410 838 453 885 q 349 705 368 790 q 331 507 331 619 q 399 160 331 281 q 581 39 468 39 m 554 993 q 472 1026 506 993 q 439 1107 439 1060 q 472 1188 439 1154 q 554 1222 506 1222 q 635 1188 603 1222 q 668 1107 668 1154 q 635 1026 668 1060 q 554 993 603 993 m 332 1424 l 776 1424 l 776 1308 l 332 1308 l 332 1424 z "},"Ọ":{"ha":1104,"x_min":81,"x_max":1024,"o":"m 553 944 q 736 911 651 944 q 886 815 821 878 q 988 663 951 751 q 1024 464 1024 574 q 988 265 1024 354 q 887 113 951 176 q 736 14 822 49 q 551 -21 650 -21 q 369 13 454 -21 q 218 109 283 46 q 117 261 153 172 q 81 460 81 350 q 117 658 81 569 q 217 811 153 747 q 368 910 282 875 q 553 944 454 944 m 581 39 q 694 87 653 39 q 755 219 736 135 q 774 417 774 304 q 705 764 774 643 q 524 885 636 885 q 410 838 453 885 q 349 705 368 790 q 331 507 331 619 q 399 160 331 281 q 581 39 468 39 m 568 -329 q 490 -297 521 -329 q 458 -221 458 -265 q 490 -144 458 -176 q 568 -111 521 -111 q 645 -144 614 -111 q 676 -221 676 -176 q 645 -297 676 -265 q 568 -329 614 -329 z "},"Ò":{"ha":1104,"x_min":81,"x_max":1024,"o":"m 553 944 q 736 911 651 944 q 886 815 821 878 q 988 663 951 751 q 1024 464 1024 574 q 988 265 1024 354 q 887 113 951 176 q 736 14 822 49 q 551 -21 650 -21 q 369 13 454 -21 q 218 109 283 46 q 117 261 153 172 q 81 460 81 350 q 117 658 81 569 q 217 811 153 747 q 368 910 282 875 q 553 944 454 944 m 581 39 q 694 87 653 39 q 755 219 736 135 q 774 417 774 304 q 705 764 774 643 q 524 885 636 885 q 410 838 453 885 q 349 705 368 790 q 331 507 331 619 q 399 160 331 281 q 581 39 468 39 m 532 1222 q 572 1114 546 1168 q 644 1006 597 1060 l 618 993 q 476 1065 543 1022 q 361 1164 410 1108 q 412 1198 381 1185 q 476 1217 443 1211 q 532 1222 510 1224 z "},"Ỏ":{"ha":1104,"x_min":81,"x_max":1024,"o":"m 553 944 q 736 911 651 944 q 886 815 821 878 q 988 663 951 751 q 1024 464 1024 574 q 988 265 1024 354 q 887 113 951 176 q 736 14 822 49 q 551 -21 650 -21 q 369 13 454 -21 q 218 109 283 46 q 117 261 153 172 q 81 460 81 350 q 117 658 81 569 q 217 811 153 747 q 368 910 282 875 q 553 944 454 944 m 581 39 q 694 87 653 39 q 755 219 736 135 q 774 417 774 304 q 705 764 774 643 q 524 885 636 885 q 410 838 453 885 q 349 705 368 790 q 331 507 331 619 q 399 160 331 281 q 581 39 468 39 m 554 994 l 522 994 q 529 1044 522 1026 q 542 1077 536 1063 q 549 1110 549 1092 q 536 1141 549 1131 q 504 1151 524 1151 q 436 1118 467 1151 l 414 1140 q 571 1274 451 1274 q 656 1249 618 1274 q 693 1172 693 1225 q 675 1112 693 1135 q 632 1073 657 1089 q 585 1039 607 1057 q 554 994 563 1021 z "},"Ơ":{"ha":1104,"x_min":81,"x_max":1111,"o":"m 553 944 q 736 911 651 944 q 886 815 821 878 q 988 663 951 751 q 1024 464 1024 574 q 988 265 1024 354 q 887 113 951 176 q 736 14 822 49 q 551 -21 650 -21 q 369 13 454 -21 q 218 109 283 46 q 117 261 153 172 q 81 460 81 350 q 117 658 81 569 q 217 811 153 747 q 368 910 282 875 q 553 944 454 944 m 581 39 q 694 87 653 39 q 755 219 736 135 q 774 417 774 304 q 705 764 774 643 q 524 885 636 885 q 410 838 453 885 q 349 705 368 790 q 331 507 331 619 q 399 160 331 281 q 581 39 468 39 m 890 750 l 844 785 q 939 810 910 785 q 968 875 968 836 q 956 917 968 896 q 913 944 944 938 l 913 976 q 957 990 935 986 q 999 994 979 994 q 1079 971 1047 994 q 1111 903 1111 947 q 1082 824 1111 858 q 1003 769 1053 789 q 890 750 953 750 z "},"Ớ":{"ha":1104,"x_min":81,"x_max":1111,"o":"m 553 944 q 736 911 651 944 q 886 815 821 878 q 988 663 951 751 q 1024 464 1024 574 q 988 265 1024 354 q 887 113 951 176 q 736 14 822 49 q 551 -21 650 -21 q 369 13 454 -21 q 218 109 283 46 q 117 261 153 172 q 81 460 81 350 q 117 658 81 569 q 217 811 153 747 q 368 910 282 875 q 553 944 454 944 m 581 39 q 694 87 653 39 q 755 219 736 135 q 774 417 774 304 q 705 764 774 643 q 524 885 636 885 q 410 838 453 885 q 349 705 368 790 q 331 507 331 619 q 399 160 331 281 q 581 39 468 39 m 890 750 l 844 785 q 939 810 910 785 q 968 875 968 836 q 956 917 968 896 q 913 944 944 938 l 913 976 q 957 990 935 986 q 999 994 979 994 q 1079 971 1047 994 q 1111 903 1111 947 q 1082 824 1111 858 q 1003 769 1053 789 q 890 750 953 750 m 599 1222 q 655 1217 622 1224 q 719 1198 688 1211 q 769 1164 750 1185 q 655 1065 722 1108 q 513 993 588 1022 l 486 1006 q 560 1114 535 1060 q 599 1222 585 1168 z "},"Ợ":{"ha":1104,"x_min":81,"x_max":1111,"o":"m 553 944 q 736 911 651 944 q 886 815 821 878 q 988 663 951 751 q 1024 464 1024 574 q 988 265 1024 354 q 887 113 951 176 q 736 14 822 49 q 551 -21 650 -21 q 369 13 454 -21 q 218 109 283 46 q 117 261 153 172 q 81 460 81 350 q 117 658 81 569 q 217 811 153 747 q 368 910 282 875 q 553 944 454 944 m 581 39 q 694 87 653 39 q 755 219 736 135 q 774 417 774 304 q 705 764 774 643 q 524 885 636 885 q 410 838 453 885 q 349 705 368 790 q 331 507 331 619 q 399 160 331 281 q 581 39 468 39 m 890 750 l 844 785 q 939 810 910 785 q 968 875 968 836 q 956 917 968 896 q 913 944 944 938 l 913 976 q 957 990 935 986 q 999 994 979 994 q 1079 971 1047 994 q 1111 903 1111 947 q 1082 824 1111 858 q 1003 769 1053 789 q 890 750 953 750 m 568 -294 q 491 -262 522 -294 q 460 -186 460 -231 q 491 -109 460 -142 q 568 -76 522 -76 q 645 -109 614 -76 q 676 -186 676 -142 q 645 -262 676 -231 q 568 -294 614 -294 z "},"Ờ":{"ha":1104,"x_min":81,"x_max":1111,"o":"m 553 944 q 736 911 651 944 q 886 815 821 878 q 988 663 951 751 q 1024 464 1024 574 q 988 265 1024 354 q 887 113 951 176 q 736 14 822 49 q 551 -21 650 -21 q 369 13 454 -21 q 218 109 283 46 q 117 261 153 172 q 81 460 81 350 q 117 658 81 569 q 217 811 153 747 q 368 910 282 875 q 553 944 454 944 m 581 39 q 694 87 653 39 q 755 219 736 135 q 774 417 774 304 q 705 764 774 643 q 524 885 636 885 q 410 838 453 885 q 349 705 368 790 q 331 507 331 619 q 399 160 331 281 q 581 39 468 39 m 890 750 l 844 785 q 939 810 910 785 q 968 875 968 836 q 956 917 968 896 q 913 944 944 938 l 913 976 q 957 990 935 986 q 999 994 979 994 q 1079 971 1047 994 q 1111 903 1111 947 q 1082 824 1111 858 q 1003 769 1053 789 q 890 750 953 750 m 532 1222 q 572 1114 546 1168 q 644 1006 597 1060 l 618 993 q 476 1065 543 1022 q 361 1164 410 1108 q 412 1198 381 1185 q 476 1217 443 1211 q 532 1222 510 1224 z "},"Ở":{"ha":1104,"x_min":81,"x_max":1111,"o":"m 553 944 q 736 911 651 944 q 886 815 821 878 q 988 663 951 751 q 1024 464 1024 574 q 988 265 1024 354 q 887 113 951 176 q 736 14 822 49 q 551 -21 650 -21 q 369 13 454 -21 q 218 109 283 46 q 117 261 153 172 q 81 460 81 350 q 117 658 81 569 q 217 811 153 747 q 368 910 282 875 q 553 944 454 944 m 581 39 q 694 87 653 39 q 755 219 736 135 q 774 417 774 304 q 705 764 774 643 q 524 885 636 885 q 410 838 453 885 q 349 705 368 790 q 331 507 331 619 q 399 160 331 281 q 581 39 468 39 m 890 750 l 844 785 q 939 810 910 785 q 968 875 968 836 q 956 917 968 896 q 913 944 944 938 l 913 976 q 957 990 935 986 q 999 994 979 994 q 1079 971 1047 994 q 1111 903 1111 947 q 1082 824 1111 858 q 1003 769 1053 789 q 890 750 953 750 m 568 1022 l 536 1022 q 543 1072 536 1054 q 556 1105 550 1090 q 563 1138 563 1119 q 550 1169 563 1158 q 518 1179 538 1179 q 450 1146 481 1179 l 428 1168 q 585 1301 465 1301 q 669 1277 632 1301 q 707 1200 707 1253 q 689 1140 707 1163 q 646 1101 671 1117 q 599 1067 621 1085 q 568 1022 576 1049 z "},"Ỡ":{"ha":1104,"x_min":81,"x_max":1111,"o":"m 553 944 q 736 911 651 944 q 886 815 821 878 q 988 663 951 751 q 1024 464 1024 574 q 988 265 1024 354 q 887 113 951 176 q 736 14 822 49 q 551 -21 650 -21 q 369 13 454 -21 q 218 109 283 46 q 117 261 153 172 q 81 460 81 350 q 117 658 81 569 q 217 811 153 747 q 368 910 282 875 q 553 944 454 944 m 581 39 q 694 87 653 39 q 755 219 736 135 q 774 417 774 304 q 705 764 774 643 q 524 885 636 885 q 410 838 453 885 q 349 705 368 790 q 331 507 331 619 q 399 160 331 281 q 581 39 468 39 m 890 750 l 844 785 q 939 810 910 785 q 968 875 968 836 q 956 917 968 896 q 913 944 944 938 l 913 976 q 957 990 935 986 q 999 994 979 994 q 1079 971 1047 994 q 1111 903 1111 947 q 1082 824 1111 858 q 1003 769 1053 789 q 890 750 953 750 m 433 1068 q 350 1000 369 1068 l 318 1007 q 361 1149 329 1097 q 456 1200 393 1200 q 533 1183 493 1200 q 610 1149 572 1167 q 675 1132 647 1132 q 758 1200 739 1132 l 790 1193 q 748 1052 781 1104 q 653 1000 715 1000 q 576 1017 615 1000 q 499 1051 536 1035 q 433 1068 463 1068 z "},"Ő":{"ha":1104,"x_min":81,"x_max":1024,"o":"m 553 944 q 736 911 651 944 q 886 815 821 878 q 988 663 951 751 q 1024 464 1024 574 q 988 265 1024 354 q 887 113 951 176 q 736 14 822 49 q 551 -21 650 -21 q 369 13 454 -21 q 218 109 283 46 q 117 261 153 172 q 81 460 81 350 q 117 658 81 569 q 217 811 153 747 q 368 910 282 875 q 553 944 454 944 m 581 39 q 694 87 653 39 q 755 219 736 135 q 774 417 774 304 q 705 764 774 643 q 524 885 636 885 q 410 838 453 885 q 349 705 368 790 q 331 507 331 619 q 399 160 331 281 q 581 39 468 39 m 522 1236 q 607 1224 557 1239 q 686 1178 657 1208 q 572 1079 639 1122 q 429 1007 504 1036 l 403 1019 q 483 1128 456 1074 q 522 1236 510 1182 m 731 1236 q 815 1224 765 1239 q 894 1178 865 1208 q 780 1079 847 1122 q 638 1007 713 1036 l 611 1019 q 692 1128 664 1074 q 731 1236 719 1182 z "},"Ȏ":{"ha":1104,"x_min":81,"x_max":1024,"o":"m 553 944 q 736 911 651 944 q 886 815 821 878 q 988 663 951 751 q 1024 464 1024 574 q 988 265 1024 354 q 887 113 951 176 q 736 14 822 49 q 551 -21 650 -21 q 369 13 454 -21 q 218 109 283 46 q 117 261 153 172 q 81 460 81 350 q 117 658 81 569 q 217 811 153 747 q 368 910 282 875 q 553 944 454 944 m 581 39 q 694 87 653 39 q 755 219 736 135 q 774 417 774 304 q 705 764 774 643 q 524 885 636 885 q 410 838 453 885 q 349 705 368 790 q 331 507 331 619 q 399 160 331 281 q 581 39 468 39 m 713 993 q 642 1063 686 1040 q 554 1086 599 1086 q 467 1063 510 1086 q 396 993 424 1040 l 369 1006 q 429 1163 381 1108 q 554 1218 478 1218 q 679 1163 631 1218 q 739 1006 728 1108 l 713 993 z "},"Ō":{"ha":1104,"x_min":81,"x_max":1024,"o":"m 553 944 q 736 911 651 944 q 886 815 821 878 q 988 663 951 751 q 1024 464 1024 574 q 988 265 1024 354 q 887 113 951 176 q 736 14 822 49 q 551 -21 650 -21 q 369 13 454 -21 q 218 109 283 46 q 117 261 153 172 q 81 460 81 350 q 117 658 81 569 q 217 811 153 747 q 368 910 282 875 q 553 944 454 944 m 581 39 q 694 87 653 39 q 755 219 736 135 q 774 417 774 304 q 705 764 774 643 q 524 885 636 885 q 410 838 453 885 q 349 705 368 790 q 331 507 331 619 q 399 160 331 281 q 581 39 468 39 m 332 1158 l 776 1158 l 776 1043 l 332 1043 l 332 1158 z "},"Ṓ":{"ha":1104,"x_min":81,"x_max":1024,"o":"m 553 944 q 736 911 651 944 q 886 815 821 878 q 988 663 951 751 q 1024 464 1024 574 q 988 265 1024 354 q 887 113 951 176 q 736 14 822 49 q 551 -21 650 -21 q 369 13 454 -21 q 218 109 283 46 q 117 261 153 172 q 81 460 81 350 q 117 658 81 569 q 217 811 153 747 q 368 910 282 875 q 553 944 454 944 m 581 39 q 694 87 653 39 q 755 219 736 135 q 774 417 774 304 q 705 764 774 643 q 524 885 636 885 q 410 838 453 885 q 349 705 368 790 q 331 507 331 619 q 399 160 331 281 q 581 39 468 39 m 332 1158 l 776 1158 l 776 1043 l 332 1043 l 332 1158 m 596 1460 q 652 1455 619 1461 q 716 1435 685 1449 q 767 1401 747 1422 q 652 1303 719 1346 q 510 1231 585 1260 l 483 1243 q 557 1351 532 1297 q 596 1460 582 1406 z "},"Ṑ":{"ha":1104,"x_min":81,"x_max":1024,"o":"m 553 944 q 736 911 651 944 q 886 815 821 878 q 988 663 951 751 q 1024 464 1024 574 q 988 265 1024 354 q 887 113 951 176 q 736 14 822 49 q 551 -21 650 -21 q 369 13 454 -21 q 218 109 283 46 q 117 261 153 172 q 81 460 81 350 q 117 658 81 569 q 217 811 153 747 q 368 910 282 875 q 553 944 454 944 m 581 39 q 694 87 653 39 q 755 219 736 135 q 774 417 774 304 q 705 764 774 643 q 524 885 636 885 q 410 838 453 885 q 349 705 368 790 q 331 507 331 619 q 399 160 331 281 q 581 39 468 39 m 332 1158 l 776 1158 l 776 1043 l 332 1043 l 332 1158 m 529 1460 q 569 1351 543 1406 q 642 1243 594 1297 l 615 1231 q 474 1303 540 1260 q 358 1401 407 1346 q 409 1435 378 1422 q 474 1455 440 1449 q 529 1460 507 1461 z "},"Ǫ":{"ha":1104,"x_min":81,"x_max":1024,"o":"m 553 944 q 736 911 651 944 q 886 815 821 878 q 988 663 951 751 q 1024 464 1024 574 q 988 265 1024 354 q 887 113 951 176 q 736 14 822 49 q 551 -21 650 -21 q 369 13 454 -21 q 218 109 283 46 q 117 261 153 172 q 81 460 81 350 q 117 658 81 569 q 217 811 153 747 q 368 910 282 875 q 553 944 454 944 m 581 39 q 694 87 653 39 q 755 219 736 135 q 774 417 774 304 q 705 764 774 643 q 524 885 636 885 q 410 838 453 885 q 349 705 368 790 q 331 507 331 619 q 399 160 331 281 q 581 39 468 39 m 492 -326 q 430 -315 461 -326 q 378 -276 399 -303 q 358 -206 358 -250 q 385 -112 358 -153 q 453 -44 413 -72 q 532 -3 493 -17 l 532 0 l 664 0 q 572 -31 607 0 q 522 -103 538 -62 q 507 -174 507 -143 q 535 -234 507 -219 q 604 -242 564 -249 l 619 -264 q 564 -310 597 -294 q 492 -326 531 -326 z "},"Ø":{"ha":1104,"x_min":81,"x_max":1024,"o":"m 553 944 q 776 893 674 944 l 831 971 l 879 936 l 828 863 q 970 699 917 801 q 1024 464 1024 597 q 988 265 1024 354 q 887 113 951 176 q 736 14 822 49 q 551 -21 650 -21 q 269 67 392 -21 l 190 -47 l 142 -12 l 224 104 q 119 257 157 167 q 81 460 81 347 q 117 658 81 569 q 217 811 153 747 q 368 910 282 875 q 553 944 454 944 m 331 507 q 353 289 331 383 l 696 779 q 524 885 631 885 q 410 838 453 885 q 349 705 368 790 q 331 507 331 619 m 581 39 q 694 87 653 39 q 755 219 736 135 q 774 417 774 304 q 761 585 774 510 q 726 718 749 661 l 374 215 q 581 39 440 39 z "},"Ǿ":{"ha":1104,"x_min":81,"x_max":1024,"o":"m 553 944 q 776 893 674 944 l 831 971 l 879 936 l 828 863 q 970 699 917 801 q 1024 464 1024 597 q 988 265 1024 354 q 887 113 951 176 q 736 14 822 49 q 551 -21 650 -21 q 269 67 392 -21 l 190 -47 l 142 -12 l 224 104 q 119 257 157 167 q 81 460 81 347 q 117 658 81 569 q 217 811 153 747 q 368 910 282 875 q 553 944 454 944 m 331 507 q 353 289 331 383 l 696 779 q 524 885 631 885 q 410 838 453 885 q 349 705 368 790 q 331 507 331 619 m 581 39 q 694 87 653 39 q 755 219 736 135 q 774 417 774 304 q 761 585 774 510 q 726 718 749 661 l 374 215 q 581 39 440 39 m 599 1222 q 655 1217 622 1224 q 719 1198 688 1211 q 769 1164 750 1185 q 655 1065 722 1108 q 513 993 588 1022 l 486 1006 q 560 1114 535 1060 q 599 1222 585 1168 z "},"Õ":{"ha":1104,"x_min":81,"x_max":1024,"o":"m 553 944 q 736 911 651 944 q 886 815 821 878 q 988 663 951 751 q 1024 464 1024 574 q 988 265 1024 354 q 887 113 951 176 q 736 14 822 49 q 551 -21 650 -21 q 369 13 454 -21 q 218 109 283 46 q 117 261 153 172 q 81 460 81 350 q 117 658 81 569 q 217 811 153 747 q 368 910 282 875 q 553 944 454 944 m 581 39 q 694 87 653 39 q 755 219 736 135 q 774 417 774 304 q 705 764 774 643 q 524 885 636 885 q 410 838 453 885 q 349 705 368 790 q 331 507 331 619 q 399 160 331 281 q 581 39 468 39 m 433 1068 q 350 1000 369 1068 l 318 1007 q 361 1149 329 1097 q 456 1200 393 1200 q 533 1183 493 1200 q 610 1149 572 1167 q 675 1132 647 1132 q 758 1200 739 1132 l 790 1193 q 748 1052 781 1104 q 653 1000 715 1000 q 576 1017 615 1000 q 499 1051 536 1035 q 433 1068 463 1068 z "},"Ṍ":{"ha":1104,"x_min":81,"x_max":1024,"o":"m 553 944 q 736 911 651 944 q 886 815 821 878 q 988 663 951 751 q 1024 464 1024 574 q 988 265 1024 354 q 887 113 951 176 q 736 14 822 49 q 551 -21 650 -21 q 369 13 454 -21 q 218 109 283 46 q 117 261 153 172 q 81 460 81 350 q 117 658 81 569 q 217 811 153 747 q 368 910 282 875 q 553 944 454 944 m 581 39 q 694 87 653 39 q 755 219 736 135 q 774 417 774 304 q 705 764 774 643 q 524 885 636 885 q 410 838 453 885 q 349 705 368 790 q 331 507 331 619 q 399 160 331 281 q 581 39 468 39 m 433 1068 q 350 1000 369 1068 l 318 1007 q 361 1149 329 1097 q 456 1200 393 1200 q 533 1183 493 1200 q 610 1149 572 1167 q 675 1132 647 1132 q 758 1200 739 1132 l 790 1193 q 748 1052 781 1104 q 653 1000 715 1000 q 576 1017 615 1000 q 499 1051 536 1035 q 433 1068 463 1068 m 600 1460 q 656 1455 624 1461 q 720 1435 689 1449 q 771 1401 751 1422 q 656 1303 724 1346 q 514 1231 589 1260 l 488 1243 q 561 1351 536 1297 q 600 1460 586 1406 z "},"Ṏ":{"ha":1104,"x_min":81,"x_max":1024,"o":"m 553 944 q 736 911 651 944 q 886 815 821 878 q 988 663 951 751 q 1024 464 1024 574 q 988 265 1024 354 q 887 113 951 176 q 736 14 822 49 q 551 -21 650 -21 q 369 13 454 -21 q 218 109 283 46 q 117 261 153 172 q 81 460 81 350 q 117 658 81 569 q 217 811 153 747 q 368 910 282 875 q 553 944 454 944 m 581 39 q 694 87 653 39 q 755 219 736 135 q 774 417 774 304 q 705 764 774 643 q 524 885 636 885 q 410 838 453 885 q 349 705 368 790 q 331 507 331 619 q 399 160 331 281 q 581 39 468 39 m 433 1068 q 350 1000 369 1068 l 318 1007 q 361 1149 329 1097 q 456 1200 393 1200 q 533 1183 493 1200 q 610 1149 572 1167 q 675 1132 647 1132 q 758 1200 739 1132 l 790 1193 q 748 1052 781 1104 q 653 1000 715 1000 q 576 1017 615 1000 q 499 1051 536 1035 q 433 1068 463 1068 m 411 1232 q 329 1265 363 1232 q 296 1346 296 1299 q 329 1426 296 1392 q 411 1460 363 1460 q 492 1426 458 1460 q 525 1346 525 1392 q 492 1265 525 1299 q 411 1232 458 1232 m 700 1232 q 618 1265 651 1232 q 585 1346 585 1299 q 618 1426 585 1392 q 700 1460 651 1460 q 781 1426 747 1460 q 814 1346 814 1392 q 781 1265 814 1299 q 700 1232 747 1232 z "},"Ȭ":{"ha":1104,"x_min":81,"x_max":1024,"o":"m 553 944 q 736 911 651 944 q 886 815 821 878 q 988 663 951 751 q 1024 464 1024 574 q 988 265 1024 354 q 887 113 951 176 q 736 14 822 49 q 551 -21 650 -21 q 369 13 454 -21 q 218 109 283 46 q 117 261 153 172 q 81 460 81 350 q 117 658 81 569 q 217 811 153 747 q 368 910 282 875 q 553 944 454 944 m 581 39 q 694 87 653 39 q 755 219 736 135 q 774 417 774 304 q 705 764 774 643 q 524 885 636 885 q 410 838 453 885 q 349 705 368 790 q 331 507 331 619 q 399 160 331 281 q 581 39 468 39 m 433 1068 q 350 1000 369 1068 l 318 1007 q 361 1149 329 1097 q 456 1200 393 1200 q 533 1183 493 1200 q 610 1149 572 1167 q 675 1132 647 1132 q 758 1200 739 1132 l 790 1193 q 748 1052 781 1104 q 653 1000 715 1000 q 576 1017 615 1000 q 499 1051 536 1035 q 433 1068 463 1068 m 333 1396 l 778 1396 l 778 1281 l 333 1281 l 333 1396 z "},"Œ":{"ha":1414,"x_min":81,"x_max":1383,"o":"m 1351 229 l 1383 229 l 1372 0 l 621 0 q 415 31 513 0 q 242 120 318 61 q 124 265 167 179 q 81 460 81 350 q 124 656 81 569 q 242 801 167 742 q 415 892 317 861 q 622 924 513 924 l 1290 924 l 1290 729 l 1258 729 q 1217 826 1256 789 q 1100 864 1179 864 l 1003 864 q 958 849 974 864 q 942 785 942 833 l 942 518 q 969 529 953 526 q 1007 532 985 532 l 1128 532 q 1197 556 1169 532 q 1226 621 1225 579 l 1258 621 l 1258 385 l 1226 385 q 1197 454 1225 436 q 1128 472 1169 472 l 1010 472 q 957 460 972 472 q 942 411 942 447 l 942 139 q 963 75 942 90 q 1047 60 985 60 l 1165 60 q 1297 110 1249 60 q 1351 229 1346 160 m 719 167 l 719 757 q 709 826 719 803 q 672 856 699 849 q 593 864 644 864 q 398 770 465 864 q 331 507 331 676 q 372 258 331 357 q 483 109 413 158 q 643 60 554 60 q 701 79 683 60 q 719 167 719 99 z "},"P":{"ha":921,"x_min":60,"x_max":867,"o":"m 81 0 l 81 32 q 139 53 121 35 q 157 139 157 71 l 157 785 q 137 872 157 853 q 60 892 117 890 l 60 924 l 157 924 q 347 927 258 924 q 481 931 436 931 q 709 899 625 931 q 830 815 793 867 q 867 700 867 763 q 820 563 867 628 q 673 462 774 497 q 407 439 572 426 l 407 488 q 531 515 482 485 q 602 594 579 544 q 625 701 625 644 q 582 824 625 778 q 463 871 539 871 q 398 855 417 871 q 379 785 379 839 l 379 139 q 388 72 379 94 q 422 41 397 49 q 490 32 446 33 l 490 0 l 81 0 z "},"Þ":{"ha":921,"x_min":60,"x_max":867,"o":"m 81 0 l 81 32 q 139 53 121 35 q 157 139 157 71 l 157 785 q 137 872 157 853 q 60 892 117 890 l 60 924 l 456 924 l 456 892 q 397 872 415 890 q 379 785 379 853 l 379 731 q 446 735 415 733 q 500 736 476 736 q 718 706 638 736 q 833 625 799 676 q 867 506 867 574 q 819 353 867 422 q 669 248 771 285 q 406 224 568 211 l 406 272 q 528 299 479 269 q 600 380 576 328 q 624 494 624 432 q 581 628 624 581 q 453 676 539 676 q 399 664 418 676 q 379 617 379 651 l 379 139 q 400 53 379 71 q 476 32 421 35 l 476 0 l 81 0 z "},"Q":{"ha":1104,"x_min":81,"x_max":2100,"o":"m 553 944 q 736 911 651 944 q 886 815 821 878 q 988 663 951 751 q 1024 464 1024 574 q 985 261 1024 351 q 880 106 947 171 q 725 10 813 42 q 867 -118 783 -58 q 1051 -224 950 -178 q 1264 -297 1151 -271 q 1493 -324 1376 -324 q 1665 -309 1568 -324 q 1867 -255 1763 -294 q 2064 -140 1971 -215 l 2100 -176 q 1876 -326 1996 -271 q 1630 -406 1756 -382 q 1382 -428 1504 -429 q 1094 -392 1231 -426 q 842 -299 958 -357 q 630 -168 725 -242 q 467 -14 535 -94 q 269 67 356 4 q 131 229 182 129 q 81 460 81 329 q 117 658 81 569 q 217 811 153 747 q 368 910 282 875 q 553 944 454 944 m 581 39 q 694 87 653 39 q 755 219 736 135 q 774 417 774 304 q 705 764 774 643 q 524 885 636 885 q 410 838 453 885 q 349 705 368 790 q 331 507 331 619 q 399 160 331 281 q 581 39 468 39 z "},"R":{"ha":1011,"x_min":60,"x_max":1032,"o":"m 892 -21 q 785 -1 829 -21 q 710 53 740 19 q 653 126 679 86 l 458 429 q 433 458 444 453 q 407 465 422 464 l 407 514 q 536 547 490 519 q 600 616 582 575 q 618 701 618 657 q 571 828 618 786 q 463 871 524 871 q 398 855 417 871 q 379 785 379 839 l 379 139 q 400 53 379 71 q 476 32 421 35 l 476 0 l 81 0 l 81 32 q 139 53 121 35 q 157 139 157 71 l 157 785 q 137 872 157 853 q 60 892 117 890 l 60 924 l 157 924 q 346 927 261 924 q 490 931 431 931 q 709 905 628 931 q 826 833 790 879 q 861 729 861 788 q 834 628 861 674 q 763 551 807 582 q 668 507 719 519 l 668 504 l 899 143 q 972 56 939 79 q 1032 32 1006 32 l 1032 0 q 966 -15 1004 -10 q 892 -21 928 -21 z "},"Ŕ":{"ha":1011,"x_min":60,"x_max":1032,"o":"m 892 -21 q 785 -1 829 -21 q 710 53 740 19 q 653 126 679 86 l 458 429 q 433 458 444 453 q 407 465 422 464 l 407 514 q 536 547 490 519 q 600 616 582 575 q 618 701 618 657 q 571 828 618 786 q 463 871 524 871 q 398 855 417 871 q 379 785 379 839 l 379 139 q 400 53 379 71 q 476 32 421 35 l 476 0 l 81 0 l 81 32 q 139 53 121 35 q 157 139 157 71 l 157 785 q 137 872 157 853 q 60 892 117 890 l 60 924 l 157 924 q 346 927 261 924 q 490 931 431 931 q 709 905 628 931 q 826 833 790 879 q 861 729 861 788 q 834 628 861 674 q 763 551 807 582 q 668 507 719 519 l 668 504 l 899 143 q 972 56 939 79 q 1032 32 1006 32 l 1032 0 q 966 -15 1004 -10 q 892 -21 928 -21 m 522 1222 q 578 1217 546 1224 q 642 1198 611 1211 q 693 1164 674 1185 q 578 1065 646 1108 q 436 993 511 1022 l 410 1006 q 483 1114 458 1060 q 522 1222 508 1168 z "},"Ř":{"ha":1011,"x_min":60,"x_max":1032,"o":"m 892 -21 q 785 -1 829 -21 q 710 53 740 19 q 653 126 679 86 l 458 429 q 433 458 444 453 q 407 465 422 464 l 407 514 q 536 547 490 519 q 600 616 582 575 q 618 701 618 657 q 571 828 618 786 q 463 871 524 871 q 398 855 417 871 q 379 785 379 839 l 379 139 q 400 53 379 71 q 476 32 421 35 l 476 0 l 81 0 l 81 32 q 139 53 121 35 q 157 139 157 71 l 157 785 q 137 872 157 853 q 60 892 117 890 l 60 924 l 157 924 q 346 927 261 924 q 490 931 431 931 q 709 905 628 931 q 826 833 790 879 q 861 729 861 788 q 834 628 861 674 q 763 551 807 582 q 668 507 719 519 l 668 504 l 899 143 q 972 56 939 79 q 1032 32 1006 32 l 1032 0 q 966 -15 1004 -10 q 892 -21 928 -21 m 642 1235 l 668 1222 q 569 1103 617 1167 q 479 979 521 1039 l 476 979 q 388 1103 435 1039 q 288 1222 340 1167 l 314 1235 q 478 1153 407 1206 q 642 1235 549 1206 z "},"Ŗ":{"ha":1011,"x_min":60,"x_max":1032,"o":"m 892 -21 q 785 -1 829 -21 q 710 53 740 19 q 653 126 679 86 l 458 429 q 433 458 444 453 q 407 465 422 464 l 407 514 q 536 547 490 519 q 600 616 582 575 q 618 701 618 657 q 571 828 618 786 q 463 871 524 871 q 398 855 417 871 q 379 785 379 839 l 379 139 q 400 53 379 71 q 476 32 421 35 l 476 0 l 81 0 l 81 32 q 139 53 121 35 q 157 139 157 71 l 157 785 q 137 872 157 853 q 60 892 117 890 l 60 924 l 157 924 q 346 927 261 924 q 490 931 431 931 q 709 905 628 931 q 826 833 790 879 q 861 729 861 788 q 834 628 861 674 q 763 551 807 582 q 668 507 719 519 l 668 504 l 899 143 q 972 56 939 79 q 1032 32 1006 32 l 1032 0 q 966 -15 1004 -10 q 892 -21 928 -21 m 610 -53 q 627 -101 622 -75 q 632 -146 632 -126 q 604 -243 632 -201 q 530 -310 576 -285 q 428 -342 483 -335 l 428 -310 q 461 -258 454 -289 q 468 -200 468 -226 q 451 -119 468 -156 q 525 -73 476 -92 q 610 -53 574 -54 z "},"Ȑ":{"ha":1011,"x_min":60,"x_max":1032,"o":"m 892 -21 q 785 -1 829 -21 q 710 53 740 19 q 653 126 679 86 l 458 429 q 433 458 444 453 q 407 465 422 464 l 407 514 q 536 547 490 519 q 600 616 582 575 q 618 701 618 657 q 571 828 618 786 q 463 871 524 871 q 398 855 417 871 q 379 785 379 839 l 379 139 q 400 53 379 71 q 476 32 421 35 l 476 0 l 81 0 l 81 32 q 139 53 121 35 q 157 139 157 71 l 157 785 q 137 872 157 853 q 60 892 117 890 l 60 924 l 157 924 q 346 927 261 924 q 490 931 431 931 q 709 905 628 931 q 826 833 790 879 q 861 729 861 788 q 834 628 861 674 q 763 551 807 582 q 668 507 719 519 l 668 504 l 899 143 q 972 56 939 79 q 1032 32 1006 32 l 1032 0 q 966 -15 1004 -10 q 892 -21 928 -21 m 563 1222 q 602 1114 576 1168 q 675 1006 628 1060 l 649 993 q 507 1065 574 1022 q 392 1164 440 1108 q 442 1198 411 1185 q 507 1217 474 1211 q 563 1222 540 1224 m 340 1222 q 380 1114 354 1168 q 453 1006 406 1060 l 426 993 q 285 1065 351 1022 q 169 1164 218 1108 q 220 1198 189 1185 q 285 1217 251 1211 q 340 1222 318 1224 z "},"Ṙ":{"ha":1011,"x_min":60,"x_max":1032,"o":"m 892 -21 q 785 -1 829 -21 q 710 53 740 19 q 653 126 679 86 l 458 429 q 433 458 444 453 q 407 465 422 464 l 407 514 q 536 547 490 519 q 600 616 582 575 q 618 701 618 657 q 571 828 618 786 q 463 871 524 871 q 398 855 417 871 q 379 785 379 839 l 379 139 q 400 53 379 71 q 476 32 421 35 l 476 0 l 81 0 l 81 32 q 139 53 121 35 q 157 139 157 71 l 157 785 q 137 872 157 853 q 60 892 117 890 l 60 924 l 157 924 q 346 927 261 924 q 490 931 431 931 q 709 905 628 931 q 826 833 790 879 q 861 729 861 788 q 834 628 861 674 q 763 551 807 582 q 668 507 719 519 l 668 504 l 899 143 q 972 56 939 79 q 1032 32 1006 32 l 1032 0 q 966 -15 1004 -10 q 892 -21 928 -21 m 478 993 q 396 1026 429 993 q 363 1107 363 1060 q 396 1188 363 1154 q 478 1222 429 1222 q 559 1188 526 1222 q 592 1107 592 1154 q 559 1026 592 1060 q 478 993 526 993 z "},"Ṛ":{"ha":1011,"x_min":60,"x_max":1032,"o":"m 892 -21 q 785 -1 829 -21 q 710 53 740 19 q 653 126 679 86 l 458 429 q 433 458 444 453 q 407 465 422 464 l 407 514 q 536 547 490 519 q 600 616 582 575 q 618 701 618 657 q 571 828 618 786 q 463 871 524 871 q 398 855 417 871 q 379 785 379 839 l 379 139 q 400 53 379 71 q 476 32 421 35 l 476 0 l 81 0 l 81 32 q 139 53 121 35 q 157 139 157 71 l 157 785 q 137 872 157 853 q 60 892 117 890 l 60 924 l 157 924 q 346 927 261 924 q 490 931 431 931 q 709 905 628 931 q 826 833 790 879 q 861 729 861 788 q 834 628 861 674 q 763 551 807 582 q 668 507 719 519 l 668 504 l 899 143 q 972 56 939 79 q 1032 32 1006 32 l 1032 0 q 966 -15 1004 -10 q 892 -21 928 -21 m 533 -294 q 456 -262 488 -294 q 425 -186 425 -231 q 456 -109 425 -142 q 533 -76 488 -76 q 610 -109 579 -76 q 642 -186 642 -142 q 610 -262 642 -231 q 533 -294 579 -294 z "},"Ȓ":{"ha":1011,"x_min":60,"x_max":1032,"o":"m 892 -21 q 785 -1 829 -21 q 710 53 740 19 q 653 126 679 86 l 458 429 q 433 458 444 453 q 407 465 422 464 l 407 514 q 536 547 490 519 q 600 616 582 575 q 618 701 618 657 q 571 828 618 786 q 463 871 524 871 q 398 855 417 871 q 379 785 379 839 l 379 139 q 400 53 379 71 q 476 32 421 35 l 476 0 l 81 0 l 81 32 q 139 53 121 35 q 157 139 157 71 l 157 785 q 137 872 157 853 q 60 892 117 890 l 60 924 l 157 924 q 346 927 261 924 q 490 931 431 931 q 709 905 628 931 q 826 833 790 879 q 861 729 861 788 q 834 628 861 674 q 763 551 807 582 q 668 507 719 519 l 668 504 l 899 143 q 972 56 939 79 q 1032 32 1006 32 l 1032 0 q 966 -15 1004 -10 q 892 -21 928 -21 m 636 993 q 566 1063 610 1040 q 478 1086 522 1086 q 390 1063 433 1086 q 319 993 347 1040 l 293 1006 q 353 1163 304 1108 q 478 1218 401 1218 q 603 1163 554 1218 q 663 1006 651 1108 l 636 993 z "},"Ṟ":{"ha":1011,"x_min":60,"x_max":1032,"o":"m 892 -21 q 785 -1 829 -21 q 710 53 740 19 q 653 126 679 86 l 458 429 q 433 458 444 453 q 407 465 422 464 l 407 514 q 536 547 490 519 q 600 616 582 575 q 618 701 618 657 q 571 828 618 786 q 463 871 524 871 q 398 855 417 871 q 379 785 379 839 l 379 139 q 400 53 379 71 q 476 32 421 35 l 476 0 l 81 0 l 81 32 q 139 53 121 35 q 157 139 157 71 l 157 785 q 137 872 157 853 q 60 892 117 890 l 60 924 l 157 924 q 346 927 261 924 q 490 931 431 931 q 709 905 628 931 q 826 833 790 879 q 861 729 861 788 q 834 628 861 674 q 763 551 807 582 q 668 507 719 519 l 668 504 l 899 143 q 972 56 939 79 q 1032 32 1006 32 l 1032 0 q 966 -15 1004 -10 q 892 -21 928 -21 m 324 -169 l 740 -169 l 742 -267 l 325 -267 l 324 -169 z "},"S":{"ha":824,"x_min":88,"x_max":746,"o":"m 383 -21 q 244 -3 313 -21 q 132 56 176 14 q 88 167 88 97 q 97 230 88 193 q 136 306 107 267 l 168 306 q 196 178 171 239 q 269 80 221 118 q 390 42 318 42 q 481 65 447 42 q 529 121 514 88 q 544 188 544 154 q 513 279 544 242 q 431 346 481 317 q 326 404 382 375 q 219 469 269 433 q 138 555 169 504 q 107 679 107 606 q 203 874 107 804 q 460 944 300 944 q 595 933 531 944 q 699 907 660 921 l 699 688 l 667 688 q 610 806 644 764 q 535 865 576 847 q 451 882 494 882 q 367 863 399 882 q 322 817 336 844 q 308 763 308 790 q 340 683 308 717 q 421 621 371 649 q 527 563 471 593 q 633 493 583 532 q 714 399 682 454 q 746 265 746 344 q 699 108 746 172 q 569 12 651 44 q 383 -21 488 -21 z "},"Ś":{"ha":824,"x_min":88,"x_max":746,"o":"m 383 -21 q 244 -3 313 -21 q 132 56 176 14 q 88 167 88 97 q 97 230 88 193 q 136 306 107 267 l 168 306 q 196 178 171 239 q 269 80 221 118 q 390 42 318 42 q 481 65 447 42 q 529 121 514 88 q 544 188 544 154 q 513 279 544 242 q 431 346 481 317 q 326 404 382 375 q 219 469 269 433 q 138 555 169 504 q 107 679 107 606 q 203 874 107 804 q 460 944 300 944 q 595 933 531 944 q 699 907 660 921 l 699 688 l 667 688 q 610 806 644 764 q 535 865 576 847 q 451 882 494 882 q 367 863 399 882 q 322 817 336 844 q 308 763 308 790 q 340 683 308 717 q 421 621 371 649 q 527 563 471 593 q 633 493 583 532 q 714 399 682 454 q 746 265 746 344 q 699 108 746 172 q 569 12 651 44 q 383 -21 488 -21 m 461 1222 q 517 1217 485 1224 q 581 1198 550 1211 q 632 1164 613 1185 q 517 1065 585 1108 q 375 993 450 1022 l 349 1006 q 422 1114 397 1060 q 461 1222 447 1168 z "},"Ṥ":{"ha":824,"x_min":88,"x_max":746,"o":"m 383 -21 q 244 -3 313 -21 q 132 56 176 14 q 88 167 88 97 q 97 230 88 193 q 136 306 107 267 l 168 306 q 196 178 171 239 q 269 80 221 118 q 390 42 318 42 q 481 65 447 42 q 529 121 514 88 q 544 188 544 154 q 513 279 544 242 q 431 346 481 317 q 326 404 382 375 q 219 469 269 433 q 138 555 169 504 q 107 679 107 606 q 203 874 107 804 q 460 944 300 944 q 595 933 531 944 q 699 907 660 921 l 699 688 l 667 688 q 610 806 644 764 q 535 865 576 847 q 451 882 494 882 q 367 863 399 882 q 322 817 336 844 q 308 763 308 790 q 340 683 308 717 q 421 621 371 649 q 527 563 471 593 q 633 493 583 532 q 714 399 682 454 q 746 265 746 344 q 699 108 746 172 q 569 12 651 44 q 383 -21 488 -21 m 461 1222 q 517 1217 485 1224 q 581 1198 550 1211 q 632 1164 613 1185 q 517 1065 585 1108 q 375 993 450 1022 l 349 1006 q 422 1114 397 1060 q 461 1222 447 1168 m 489 1258 q 407 1292 440 1258 q 374 1372 374 1325 q 407 1453 374 1419 q 489 1488 440 1488 q 570 1453 538 1488 q 603 1372 603 1419 q 570 1292 603 1325 q 489 1258 538 1258 z "},"Š":{"ha":824,"x_min":88,"x_max":746,"o":"m 383 -21 q 244 -3 313 -21 q 132 56 176 14 q 88 167 88 97 q 97 230 88 193 q 136 306 107 267 l 168 306 q 196 178 171 239 q 269 80 221 118 q 390 42 318 42 q 481 65 447 42 q 529 121 514 88 q 544 188 544 154 q 513 279 544 242 q 431 346 481 317 q 326 404 382 375 q 219 469 269 433 q 138 555 169 504 q 107 679 107 606 q 203 874 107 804 q 460 944 300 944 q 595 933 531 944 q 699 907 660 921 l 699 688 l 667 688 q 610 806 644 764 q 535 865 576 847 q 451 882 494 882 q 367 863 399 882 q 322 817 336 844 q 308 763 308 790 q 340 683 308 717 q 421 621 371 649 q 527 563 471 593 q 633 493 583 532 q 714 399 682 454 q 746 265 746 344 q 699 108 746 172 q 569 12 651 44 q 383 -21 488 -21 m 581 1235 l 607 1222 q 508 1103 556 1167 q 418 979 460 1039 l 415 979 q 326 1103 374 1039 q 226 1222 279 1167 l 253 1235 q 417 1153 346 1206 q 581 1235 488 1206 z "},"Ṧ":{"ha":824,"x_min":88,"x_max":746,"o":"m 383 -21 q 244 -3 313 -21 q 132 56 176 14 q 88 167 88 97 q 97 230 88 193 q 136 306 107 267 l 168 306 q 196 178 171 239 q 269 80 221 118 q 390 42 318 42 q 481 65 447 42 q 529 121 514 88 q 544 188 544 154 q 513 279 544 242 q 431 346 481 317 q 326 404 382 375 q 219 469 269 433 q 138 555 169 504 q 107 679 107 606 q 203 874 107 804 q 460 944 300 944 q 595 933 531 944 q 699 907 660 921 l 699 688 l 667 688 q 610 806 644 764 q 535 865 576 847 q 451 882 494 882 q 367 863 399 882 q 322 817 336 844 q 308 763 308 790 q 340 683 308 717 q 421 621 371 649 q 527 563 471 593 q 633 493 583 532 q 714 399 682 454 q 746 265 746 344 q 699 108 746 172 q 569 12 651 44 q 383 -21 488 -21 m 581 1235 l 607 1222 q 508 1103 556 1167 q 418 979 460 1039 l 415 979 q 326 1103 374 1039 q 226 1222 279 1167 l 253 1235 q 417 1153 346 1206 q 581 1235 488 1206 m 417 1258 q 335 1292 368 1258 q 301 1372 301 1325 q 335 1453 301 1419 q 417 1488 368 1488 q 498 1453 465 1488 q 531 1372 531 1419 q 498 1292 531 1325 q 417 1258 465 1258 z "},"Ş":{"ha":824,"x_min":88,"x_max":746,"o":"m 383 -21 q 244 -3 313 -21 q 132 56 176 14 q 88 167 88 97 q 97 230 88 193 q 136 306 107 267 l 168 306 q 196 178 171 239 q 269 80 221 118 q 390 42 318 42 q 481 65 447 42 q 529 121 514 88 q 544 188 544 154 q 513 279 544 242 q 431 346 481 317 q 326 404 382 375 q 219 469 269 433 q 138 555 169 504 q 107 679 107 606 q 203 874 107 804 q 460 944 300 944 q 595 933 531 944 q 699 907 660 921 l 699 688 l 667 688 q 610 806 644 764 q 535 865 576 847 q 451 882 494 882 q 367 863 399 882 q 322 817 336 844 q 308 763 308 790 q 340 683 308 717 q 421 621 371 649 q 527 563 471 593 q 633 493 583 532 q 714 399 682 454 q 746 265 746 344 q 699 108 746 172 q 569 12 651 44 q 383 -21 488 -21 m 436 -60 q 533 -112 501 -76 q 564 -197 564 -149 q 542 -268 564 -239 q 487 -312 521 -297 q 415 -326 453 -326 q 353 -315 385 -326 q 301 -275 321 -303 l 317 -253 q 401 -264 369 -272 q 432 -225 432 -256 q 417 -188 432 -206 q 363 -165 401 -171 l 396 18 l 450 18 l 436 -60 z "},"Ŝ":{"ha":824,"x_min":88,"x_max":746,"o":"m 383 -21 q 244 -3 313 -21 q 132 56 176 14 q 88 167 88 97 q 97 230 88 193 q 136 306 107 267 l 168 306 q 196 178 171 239 q 269 80 221 118 q 390 42 318 42 q 481 65 447 42 q 529 121 514 88 q 544 188 544 154 q 513 279 544 242 q 431 346 481 317 q 326 404 382 375 q 219 469 269 433 q 138 555 169 504 q 107 679 107 606 q 203 874 107 804 q 460 944 300 944 q 595 933 531 944 q 699 907 660 921 l 699 688 l 667 688 q 610 806 644 764 q 535 865 576 847 q 451 882 494 882 q 367 863 399 882 q 322 817 336 844 q 308 763 308 790 q 340 683 308 717 q 421 621 371 649 q 527 563 471 593 q 633 493 583 532 q 714 399 682 454 q 746 265 746 344 q 699 108 746 172 q 569 12 651 44 q 383 -21 488 -21 m 581 993 q 417 1075 488 1022 q 253 993 346 1022 l 226 1006 q 326 1125 279 1061 q 415 1249 374 1189 l 418 1249 q 508 1125 460 1189 q 607 1006 556 1061 l 581 993 z "},"Ș":{"ha":824,"x_min":88,"x_max":746,"o":"m 383 -21 q 244 -3 313 -21 q 132 56 176 14 q 88 167 88 97 q 97 230 88 193 q 136 306 107 267 l 168 306 q 196 178 171 239 q 269 80 221 118 q 390 42 318 42 q 481 65 447 42 q 529 121 514 88 q 544 188 544 154 q 513 279 544 242 q 431 346 481 317 q 326 404 382 375 q 219 469 269 433 q 138 555 169 504 q 107 679 107 606 q 203 874 107 804 q 460 944 300 944 q 595 933 531 944 q 699 907 660 921 l 699 688 l 667 688 q 610 806 644 764 q 535 865 576 847 q 451 882 494 882 q 367 863 399 882 q 322 817 336 844 q 308 763 308 790 q 340 683 308 717 q 421 621 371 649 q 527 563 471 593 q 633 493 583 532 q 714 399 682 454 q 746 265 746 344 q 699 108 746 172 q 569 12 651 44 q 383 -21 488 -21 m 493 -53 q 510 -101 506 -75 q 515 -146 515 -126 q 488 -243 515 -201 q 413 -310 460 -285 q 311 -342 367 -335 l 311 -310 q 344 -258 338 -289 q 351 -200 351 -226 q 335 -119 351 -156 q 408 -73 360 -92 q 493 -53 457 -54 z "},"Ṡ":{"ha":824,"x_min":88,"x_max":746,"o":"m 383 -21 q 244 -3 313 -21 q 132 56 176 14 q 88 167 88 97 q 97 230 88 193 q 136 306 107 267 l 168 306 q 196 178 171 239 q 269 80 221 118 q 390 42 318 42 q 481 65 447 42 q 529 121 514 88 q 544 188 544 154 q 513 279 544 242 q 431 346 481 317 q 326 404 382 375 q 219 469 269 433 q 138 555 169 504 q 107 679 107 606 q 203 874 107 804 q 460 944 300 944 q 595 933 531 944 q 699 907 660 921 l 699 688 l 667 688 q 610 806 644 764 q 535 865 576 847 q 451 882 494 882 q 367 863 399 882 q 322 817 336 844 q 308 763 308 790 q 340 683 308 717 q 421 621 371 649 q 527 563 471 593 q 633 493 583 532 q 714 399 682 454 q 746 265 746 344 q 699 108 746 172 q 569 12 651 44 q 383 -21 488 -21 m 417 993 q 335 1026 368 993 q 301 1107 301 1060 q 335 1188 301 1154 q 417 1222 368 1222 q 498 1188 465 1222 q 531 1107 531 1154 q 498 1026 531 1060 q 417 993 465 993 z "},"Ṣ":{"ha":824,"x_min":88,"x_max":746,"o":"m 383 -21 q 244 -3 313 -21 q 132 56 176 14 q 88 167 88 97 q 97 230 88 193 q 136 306 107 267 l 168 306 q 196 178 171 239 q 269 80 221 118 q 390 42 318 42 q 481 65 447 42 q 529 121 514 88 q 544 188 544 154 q 513 279 544 242 q 431 346 481 317 q 326 404 382 375 q 219 469 269 433 q 138 555 169 504 q 107 679 107 606 q 203 874 107 804 q 460 944 300 944 q 595 933 531 944 q 699 907 660 921 l 699 688 l 667 688 q 610 806 644 764 q 535 865 576 847 q 451 882 494 882 q 367 863 399 882 q 322 817 336 844 q 308 763 308 790 q 340 683 308 717 q 421 621 371 649 q 527 563 471 593 q 633 493 583 532 q 714 399 682 454 q 746 265 746 344 q 699 108 746 172 q 569 12 651 44 q 383 -21 488 -21 m 417 -294 q 340 -262 371 -294 q 308 -186 308 -231 q 340 -109 308 -142 q 417 -76 371 -76 q 494 -109 463 -76 q 525 -186 525 -142 q 494 -262 525 -231 q 417 -294 463 -294 z "},"Ṩ":{"ha":824,"x_min":88,"x_max":746,"o":"m 383 -21 q 244 -3 313 -21 q 132 56 176 14 q 88 167 88 97 q 97 230 88 193 q 136 306 107 267 l 168 306 q 196 178 171 239 q 269 80 221 118 q 390 42 318 42 q 481 65 447 42 q 529 121 514 88 q 544 188 544 154 q 513 279 544 242 q 431 346 481 317 q 326 404 382 375 q 219 469 269 433 q 138 555 169 504 q 107 679 107 606 q 203 874 107 804 q 460 944 300 944 q 595 933 531 944 q 699 907 660 921 l 699 688 l 667 688 q 610 806 644 764 q 535 865 576 847 q 451 882 494 882 q 367 863 399 882 q 322 817 336 844 q 308 763 308 790 q 340 683 308 717 q 421 621 371 649 q 527 563 471 593 q 633 493 583 532 q 714 399 682 454 q 746 265 746 344 q 699 108 746 172 q 569 12 651 44 q 383 -21 488 -21 m 417 -294 q 340 -262 371 -294 q 308 -186 308 -231 q 340 -109 308 -142 q 417 -76 371 -76 q 494 -109 463 -76 q 525 -186 525 -142 q 494 -262 525 -231 q 417 -294 463 -294 m 417 993 q 335 1026 368 993 q 301 1107 301 1060 q 335 1188 301 1154 q 417 1222 368 1222 q 498 1188 465 1222 q 531 1107 531 1154 q 498 1026 531 1060 q 417 993 465 993 z "},"ẞ":{"ha":1050,"x_min":60,"x_max":1051,"o":"m 781 678 q 808 590 781 626 q 876 522 835 554 q 957 453 917 490 q 1024 367 997 417 q 1051 242 1051 317 q 1006 92 1051 150 q 885 6 961 33 q 717 -21 810 -21 q 590 -8 656 -21 q 476 32 525 4 q 571 157 513 108 q 655 74 611 106 q 747 42 699 42 q 825 75 800 42 q 850 154 850 108 q 824 242 850 206 q 760 312 799 279 q 683 379 722 344 q 619 460 644 414 q 593 574 593 507 q 644 733 593 664 q 774 861 696 803 l 774 864 l 440 864 q 395 849 411 864 q 379 785 379 833 l 379 139 q 395 53 379 71 q 442 32 411 35 l 442 0 l 81 0 l 81 32 q 139 53 121 35 q 157 139 157 71 l 157 785 q 137 872 157 853 q 60 892 117 890 l 60 924 l 914 924 l 914 892 q 781 678 781 783 z "},"Ə":{"ha":1060,"x_min":64,"x_max":979,"o":"m 454 944 q 658 919 563 944 q 825 840 753 894 q 938 700 897 786 q 979 493 979 614 q 919 231 979 347 q 752 47 860 115 q 499 -21 644 -21 q 388 -9 447 -21 q 272 32 329 3 q 168 112 215 61 q 92 241 121 163 q 64 431 64 319 l 729 431 l 729 432 q 701 660 729 558 q 614 824 674 763 q 458 885 554 885 q 265 826 354 885 q 138 646 176 768 l 106 646 l 106 865 q 187 897 133 879 q 310 930 240 915 q 454 944 381 944 m 499 39 q 665 130 610 39 q 728 371 719 221 l 285 371 q 294 254 285 313 q 327 147 304 196 q 392 68 350 97 q 499 39 435 39 z "},"T":{"ha":883,"x_min":46,"x_max":838,"o":"m 46 924 l 838 924 l 838 694 l 806 694 q 761 817 797 769 q 638 864 725 864 l 553 864 l 553 139 q 574 53 553 71 q 650 32 594 35 l 650 0 l 254 0 l 254 32 q 313 53 294 35 q 331 139 331 71 l 331 864 l 244 864 q 123 817 160 864 q 78 694 86 769 l 46 694 l 46 924 z "},"Ŧ":{"ha":883,"x_min":46,"x_max":838,"o":"m 699 493 l 553 493 l 553 139 q 574 53 553 71 q 650 32 594 35 l 650 0 l 254 0 l 254 32 q 313 53 294 35 q 331 139 331 71 l 331 493 l 185 493 l 185 553 l 331 553 l 331 864 l 244 864 q 123 817 160 864 q 78 694 86 769 l 46 694 l 46 924 l 838 924 l 838 694 l 806 694 q 761 817 797 769 q 638 864 725 864 l 553 864 l 553 553 l 699 553 l 699 493 z "},"Ť":{"ha":883,"x_min":46,"x_max":838,"o":"m 46 924 l 838 924 l 838 694 l 806 694 q 761 817 797 769 q 638 864 725 864 l 553 864 l 553 139 q 574 53 553 71 q 650 32 594 35 l 650 0 l 254 0 l 254 32 q 313 53 294 35 q 331 139 331 71 l 331 864 l 244 864 q 123 817 160 864 q 78 694 86 769 l 46 694 l 46 924 m 606 1235 l 632 1222 q 533 1103 581 1167 q 443 979 485 1039 l 440 979 q 351 1103 399 1039 q 251 1222 304 1167 l 278 1235 q 442 1153 371 1206 q 606 1235 513 1206 z "},"Ţ":{"ha":883,"x_min":46,"x_max":838,"o":"m 46 924 l 838 924 l 838 694 l 806 694 q 761 817 797 769 q 638 864 725 864 l 553 864 l 553 139 q 574 53 553 71 q 650 32 594 35 l 650 0 l 254 0 l 254 32 q 313 53 294 35 q 331 139 331 71 l 331 864 l 244 864 q 123 817 160 864 q 78 694 86 769 l 46 694 l 46 924 m 461 -60 q 558 -112 526 -76 q 589 -197 589 -149 q 567 -268 589 -239 q 512 -312 546 -297 q 440 -326 478 -326 q 378 -315 410 -326 q 326 -275 346 -303 l 342 -253 q 426 -264 394 -272 q 457 -225 457 -256 q 442 -188 457 -206 q 388 -165 426 -171 l 421 18 l 475 18 l 461 -60 z "},"Ț":{"ha":883,"x_min":46,"x_max":838,"o":"m 46 924 l 838 924 l 838 694 l 806 694 q 761 817 797 769 q 638 864 725 864 l 553 864 l 553 139 q 574 53 553 71 q 650 32 594 35 l 650 0 l 254 0 l 254 32 q 313 53 294 35 q 331 139 331 71 l 331 864 l 244 864 q 123 817 160 864 q 78 694 86 769 l 46 694 l 46 924 m 518 -53 q 535 -101 531 -75 q 540 -146 540 -126 q 513 -243 540 -201 q 438 -310 485 -285 q 336 -342 392 -335 l 336 -310 q 369 -258 363 -289 q 376 -200 376 -226 q 360 -119 376 -156 q 433 -73 385 -92 q 518 -53 482 -54 z "},"Ṫ":{"ha":883,"x_min":46,"x_max":838,"o":"m 46 924 l 838 924 l 838 694 l 806 694 q 761 817 797 769 q 638 864 725 864 l 553 864 l 553 139 q 574 53 553 71 q 650 32 594 35 l 650 0 l 254 0 l 254 32 q 313 53 294 35 q 331 139 331 71 l 331 864 l 244 864 q 123 817 160 864 q 78 694 86 769 l 46 694 l 46 924 m 442 993 q 360 1026 393 993 q 326 1107 326 1060 q 360 1188 326 1154 q 442 1222 393 1222 q 523 1188 490 1222 q 556 1107 556 1154 q 523 1026 556 1060 q 442 993 490 993 z "},"Ṭ":{"ha":883,"x_min":46,"x_max":838,"o":"m 46 924 l 838 924 l 838 694 l 806 694 q 761 817 797 769 q 638 864 725 864 l 553 864 l 553 139 q 574 53 553 71 q 650 32 594 35 l 650 0 l 254 0 l 254 32 q 313 53 294 35 q 331 139 331 71 l 331 864 l 244 864 q 123 817 160 864 q 78 694 86 769 l 46 694 l 46 924 m 442 -294 q 365 -262 396 -294 q 333 -186 333 -231 q 365 -109 333 -142 q 442 -76 396 -76 q 519 -109 488 -76 q 550 -186 550 -142 q 519 -262 550 -231 q 442 -294 488 -294 z "},"Ṯ":{"ha":883,"x_min":46,"x_max":838,"o":"m 46 924 l 838 924 l 838 694 l 806 694 q 761 817 797 769 q 638 864 725 864 l 553 864 l 553 139 q 574 53 553 71 q 650 32 594 35 l 650 0 l 254 0 l 254 32 q 313 53 294 35 q 331 139 331 71 l 331 864 l 244 864 q 123 817 160 864 q 78 694 86 769 l 46 694 l 46 924 m 232 -169 l 649 -169 l 650 -267 l 233 -267 l 232 -169 z "},"U":{"ha":1113,"x_min":46,"x_max":1053,"o":"m 422 -21 q 213 59 282 -21 q 143 261 143 139 l 143 785 q 123 872 143 853 q 46 892 103 890 l 46 924 l 442 924 l 442 892 q 383 872 401 890 q 365 785 365 853 l 365 275 q 394 166 365 207 q 492 125 422 125 q 622 170 567 125 q 709 289 678 215 q 740 447 740 363 l 740 785 q 720 872 740 853 q 643 892 700 890 l 643 924 l 1032 924 l 1032 892 q 974 872 992 890 q 956 785 956 853 l 956 125 q 976 51 956 68 q 1053 32 997 35 l 1053 0 l 771 0 q 758 53 763 22 q 754 139 754 85 l 754 254 l 751 254 q 627 51 708 122 q 422 -21 546 -21 z "},"Ú":{"ha":1113,"x_min":46,"x_max":1053,"o":"m 422 -21 q 213 59 282 -21 q 143 261 143 139 l 143 785 q 123 872 143 853 q 46 892 103 890 l 46 924 l 442 924 l 442 892 q 383 872 401 890 q 365 785 365 853 l 365 275 q 394 166 365 207 q 492 125 422 125 q 622 170 567 125 q 709 289 678 215 q 740 447 740 363 l 740 785 q 720 872 740 853 q 643 892 700 890 l 643 924 l 1032 924 l 1032 892 q 974 872 992 890 q 956 785 956 853 l 956 125 q 976 51 956 68 q 1053 32 997 35 l 1053 0 l 771 0 q 758 53 763 22 q 754 139 754 85 l 754 254 l 751 254 q 627 51 708 122 q 422 -21 546 -21 m 589 1222 q 645 1217 613 1224 q 709 1198 678 1211 q 760 1164 740 1185 q 645 1065 713 1108 q 503 993 578 1022 l 476 1006 q 550 1114 525 1060 q 589 1222 575 1168 z "},"Ŭ":{"ha":1113,"x_min":46,"x_max":1053,"o":"m 422 -21 q 213 59 282 -21 q 143 261 143 139 l 143 785 q 123 872 143 853 q 46 892 103 890 l 46 924 l 442 924 l 442 892 q 383 872 401 890 q 365 785 365 853 l 365 275 q 394 166 365 207 q 492 125 422 125 q 622 170 567 125 q 709 289 678 215 q 740 447 740 363 l 740 785 q 720 872 740 853 q 643 892 700 890 l 643 924 l 1032 924 l 1032 892 q 974 872 992 890 q 956 785 956 853 l 956 125 q 976 51 956 68 q 1053 32 997 35 l 1053 0 l 771 0 q 758 53 763 22 q 754 139 754 85 l 754 254 l 751 254 q 627 51 708 122 q 422 -21 546 -21 m 703 1218 l 729 1206 q 669 1049 718 1104 q 544 993 621 993 q 419 1049 468 993 q 360 1206 371 1104 l 386 1218 q 457 1148 414 1171 q 544 1125 500 1125 q 633 1148 589 1125 q 703 1218 676 1171 z "},"Ǔ":{"ha":1113,"x_min":46,"x_max":1053,"o":"m 422 -21 q 213 59 282 -21 q 143 261 143 139 l 143 785 q 123 872 143 853 q 46 892 103 890 l 46 924 l 442 924 l 442 892 q 383 872 401 890 q 365 785 365 853 l 365 275 q 394 166 365 207 q 492 125 422 125 q 622 170 567 125 q 709 289 678 215 q 740 447 740 363 l 740 785 q 720 872 740 853 q 643 892 700 890 l 643 924 l 1032 924 l 1032 892 q 974 872 992 890 q 956 785 956 853 l 956 125 q 976 51 956 68 q 1053 32 997 35 l 1053 0 l 771 0 q 758 53 763 22 q 754 139 754 85 l 754 254 l 751 254 q 627 51 708 122 q 422 -21 546 -21 m 708 1235 l 735 1222 q 635 1103 683 1167 q 546 979 588 1039 l 543 979 q 454 1103 501 1039 q 354 1222 407 1167 l 381 1235 q 544 1153 474 1206 q 708 1235 615 1206 z "},"Û":{"ha":1113,"x_min":46,"x_max":1053,"o":"m 422 -21 q 213 59 282 -21 q 143 261 143 139 l 143 785 q 123 872 143 853 q 46 892 103 890 l 46 924 l 442 924 l 442 892 q 383 872 401 890 q 365 785 365 853 l 365 275 q 394 166 365 207 q 492 125 422 125 q 622 170 567 125 q 709 289 678 215 q 740 447 740 363 l 740 785 q 720 872 740 853 q 643 892 700 890 l 643 924 l 1032 924 l 1032 892 q 974 872 992 890 q 956 785 956 853 l 956 125 q 976 51 956 68 q 1053 32 997 35 l 1053 0 l 771 0 q 758 53 763 22 q 754 139 754 85 l 754 254 l 751 254 q 627 51 708 122 q 422 -21 546 -21 m 708 993 q 544 1075 615 1022 q 381 993 474 1022 l 354 1006 q 454 1125 407 1061 q 543 1249 501 1189 l 546 1249 q 635 1125 588 1189 q 735 1006 683 1061 l 708 993 z "},"Ȕ":{"ha":1113,"x_min":46,"x_max":1053,"o":"m 422 -21 q 213 59 282 -21 q 143 261 143 139 l 143 785 q 123 872 143 853 q 46 892 103 890 l 46 924 l 442 924 l 442 892 q 383 872 401 890 q 365 785 365 853 l 365 275 q 394 166 365 207 q 492 125 422 125 q 622 170 567 125 q 709 289 678 215 q 740 447 740 363 l 740 785 q 720 872 740 853 q 643 892 700 890 l 643 924 l 1032 924 l 1032 892 q 974 872 992 890 q 956 785 956 853 l 956 125 q 976 51 956 68 q 1053 32 997 35 l 1053 0 l 771 0 q 758 53 763 22 q 754 139 754 85 l 754 254 l 751 254 q 627 51 708 122 q 422 -21 546 -21 m 629 1222 q 669 1114 643 1168 q 742 1006 694 1060 l 715 993 q 574 1065 640 1022 q 458 1164 507 1108 q 509 1198 478 1185 q 574 1217 540 1211 q 629 1222 607 1224 m 407 1222 q 447 1114 421 1168 q 519 1006 472 1060 l 493 993 q 351 1065 418 1022 q 236 1164 285 1108 q 287 1198 256 1185 q 351 1217 318 1211 q 407 1222 385 1224 z "},"Ü":{"ha":1113,"x_min":46,"x_max":1053,"o":"m 422 -21 q 213 59 282 -21 q 143 261 143 139 l 143 785 q 123 872 143 853 q 46 892 103 890 l 46 924 l 442 924 l 442 892 q 383 872 401 890 q 365 785 365 853 l 365 275 q 394 166 365 207 q 492 125 422 125 q 622 170 567 125 q 709 289 678 215 q 740 447 740 363 l 740 785 q 720 872 740 853 q 643 892 700 890 l 643 924 l 1032 924 l 1032 892 q 974 872 992 890 q 956 785 956 853 l 956 125 q 976 51 956 68 q 1053 32 997 35 l 1053 0 l 771 0 q 758 53 763 22 q 754 139 754 85 l 754 254 l 751 254 q 627 51 708 122 q 422 -21 546 -21 m 400 994 q 318 1028 351 994 q 285 1108 285 1061 q 318 1188 285 1154 q 400 1222 351 1222 q 481 1188 447 1222 q 514 1108 514 1154 q 481 1028 514 1061 q 400 994 447 994 m 689 994 q 607 1028 640 994 q 574 1108 574 1061 q 607 1188 574 1154 q 689 1222 640 1222 q 769 1188 736 1222 q 803 1108 803 1154 q 769 1028 803 1061 q 689 994 736 994 z "},"Ǘ":{"ha":1113,"x_min":46,"x_max":1053,"o":"m 422 -21 q 213 59 282 -21 q 143 261 143 139 l 143 785 q 123 872 143 853 q 46 892 103 890 l 46 924 l 442 924 l 442 892 q 383 872 401 890 q 365 785 365 853 l 365 275 q 394 166 365 207 q 492 125 422 125 q 622 170 567 125 q 709 289 678 215 q 740 447 740 363 l 740 785 q 720 872 740 853 q 643 892 700 890 l 643 924 l 1032 924 l 1032 892 q 974 872 992 890 q 956 785 956 853 l 956 125 q 976 51 956 68 q 1053 32 997 35 l 1053 0 l 771 0 q 758 53 763 22 q 754 139 754 85 l 754 254 l 751 254 q 627 51 708 122 q 422 -21 546 -21 m 400 994 q 318 1028 351 994 q 285 1108 285 1061 q 318 1188 285 1154 q 400 1222 351 1222 q 481 1188 447 1222 q 514 1108 514 1154 q 481 1028 514 1061 q 400 994 447 994 m 689 994 q 607 1028 640 994 q 574 1108 574 1061 q 607 1188 574 1154 q 689 1222 640 1222 q 769 1188 736 1222 q 803 1108 803 1154 q 769 1028 803 1061 q 689 994 736 994 m 586 1488 q 642 1483 610 1489 q 706 1463 675 1476 q 757 1429 738 1450 q 642 1331 710 1374 q 500 1258 575 1288 l 474 1271 q 547 1379 522 1325 q 586 1488 572 1433 z "},"Ǚ":{"ha":1113,"x_min":46,"x_max":1053,"o":"m 422 -21 q 213 59 282 -21 q 143 261 143 139 l 143 785 q 123 872 143 853 q 46 892 103 890 l 46 924 l 442 924 l 442 892 q 383 872 401 890 q 365 785 365 853 l 365 275 q 394 166 365 207 q 492 125 422 125 q 622 170 567 125 q 709 289 678 215 q 740 447 740 363 l 740 785 q 720 872 740 853 q 643 892 700 890 l 643 924 l 1032 924 l 1032 892 q 974 872 992 890 q 956 785 956 853 l 956 125 q 976 51 956 68 q 1053 32 997 35 l 1053 0 l 771 0 q 758 53 763 22 q 754 139 754 85 l 754 254 l 751 254 q 627 51 708 122 q 422 -21 546 -21 m 400 994 q 318 1028 351 994 q 285 1108 285 1061 q 318 1188 285 1154 q 400 1222 351 1222 q 481 1188 447 1222 q 514 1108 514 1154 q 481 1028 514 1061 q 400 994 447 994 m 689 994 q 607 1028 640 994 q 574 1108 574 1061 q 607 1188 574 1154 q 689 1222 640 1222 q 769 1188 736 1222 q 803 1108 803 1154 q 769 1028 803 1061 q 689 994 736 994 m 706 1500 l 732 1488 q 633 1368 681 1432 q 543 1244 585 1304 l 540 1244 q 451 1368 499 1304 q 351 1488 404 1432 l 378 1500 q 542 1418 471 1471 q 706 1500 613 1471 z "},"Ǜ":{"ha":1113,"x_min":46,"x_max":1053,"o":"m 422 -21 q 213 59 282 -21 q 143 261 143 139 l 143 785 q 123 872 143 853 q 46 892 103 890 l 46 924 l 442 924 l 442 892 q 383 872 401 890 q 365 785 365 853 l 365 275 q 394 166 365 207 q 492 125 422 125 q 622 170 567 125 q 709 289 678 215 q 740 447 740 363 l 740 785 q 720 872 740 853 q 643 892 700 890 l 643 924 l 1032 924 l 1032 892 q 974 872 992 890 q 956 785 956 853 l 956 125 q 976 51 956 68 q 1053 32 997 35 l 1053 0 l 771 0 q 758 53 763 22 q 754 139 754 85 l 754 254 l 751 254 q 627 51 708 122 q 422 -21 546 -21 m 400 994 q 318 1028 351 994 q 285 1108 285 1061 q 318 1188 285 1154 q 400 1222 351 1222 q 481 1188 447 1222 q 514 1108 514 1154 q 481 1028 514 1061 q 400 994 447 994 m 689 994 q 607 1028 640 994 q 574 1108 574 1061 q 607 1188 574 1154 q 689 1222 640 1222 q 769 1188 736 1222 q 803 1108 803 1154 q 769 1028 803 1061 q 689 994 736 994 m 519 1488 q 559 1379 533 1433 q 632 1271 585 1325 l 606 1258 q 464 1331 531 1288 q 349 1429 397 1374 q 399 1463 368 1450 q 464 1483 431 1476 q 519 1488 497 1489 z "},"Ǖ":{"ha":1113,"x_min":46,"x_max":1053,"o":"m 422 -21 q 213 59 282 -21 q 143 261 143 139 l 143 785 q 123 872 143 853 q 46 892 103 890 l 46 924 l 442 924 l 442 892 q 383 872 401 890 q 365 785 365 853 l 365 275 q 394 166 365 207 q 492 125 422 125 q 622 170 567 125 q 709 289 678 215 q 740 447 740 363 l 740 785 q 720 872 740 853 q 643 892 700 890 l 643 924 l 1032 924 l 1032 892 q 974 872 992 890 q 956 785 956 853 l 956 125 q 976 51 956 68 q 1053 32 997 35 l 1053 0 l 771 0 q 758 53 763 22 q 754 139 754 85 l 754 254 l 751 254 q 627 51 708 122 q 422 -21 546 -21 m 400 994 q 318 1028 351 994 q 285 1108 285 1061 q 318 1188 285 1154 q 400 1222 351 1222 q 481 1188 447 1222 q 514 1108 514 1154 q 481 1028 514 1061 q 400 994 447 994 m 689 994 q 607 1028 640 994 q 574 1108 574 1061 q 607 1188 574 1154 q 689 1222 640 1222 q 769 1188 736 1222 q 803 1108 803 1154 q 769 1028 803 1061 q 689 994 736 994 m 319 1424 l 764 1424 l 764 1308 l 319 1308 l 319 1424 z "},"Ụ":{"ha":1113,"x_min":46,"x_max":1053,"o":"m 422 -21 q 213 59 282 -21 q 143 261 143 139 l 143 785 q 123 872 143 853 q 46 892 103 890 l 46 924 l 442 924 l 442 892 q 383 872 401 890 q 365 785 365 853 l 365 275 q 394 166 365 207 q 492 125 422 125 q 622 170 567 125 q 709 289 678 215 q 740 447 740 363 l 740 785 q 720 872 740 853 q 643 892 700 890 l 643 924 l 1032 924 l 1032 892 q 974 872 992 890 q 956 785 956 853 l 956 125 q 976 51 956 68 q 1053 32 997 35 l 1053 0 l 771 0 q 758 53 763 22 q 754 139 754 85 l 754 254 l 751 254 q 627 51 708 122 q 422 -21 546 -21 m 558 -329 q 480 -297 511 -329 q 449 -221 449 -265 q 480 -144 449 -176 q 558 -111 511 -111 q 635 -144 604 -111 q 667 -221 667 -176 q 635 -297 667 -265 q 558 -329 604 -329 z "},"Ù":{"ha":1113,"x_min":46,"x_max":1053,"o":"m 422 -21 q 213 59 282 -21 q 143 261 143 139 l 143 785 q 123 872 143 853 q 46 892 103 890 l 46 924 l 442 924 l 442 892 q 383 872 401 890 q 365 785 365 853 l 365 275 q 394 166 365 207 q 492 125 422 125 q 622 170 567 125 q 709 289 678 215 q 740 447 740 363 l 740 785 q 720 872 740 853 q 643 892 700 890 l 643 924 l 1032 924 l 1032 892 q 974 872 992 890 q 956 785 956 853 l 956 125 q 976 51 956 68 q 1053 32 997 35 l 1053 0 l 771 0 q 758 53 763 22 q 754 139 754 85 l 754 254 l 751 254 q 627 51 708 122 q 422 -21 546 -21 m 522 1222 q 562 1114 536 1168 q 635 1006 588 1060 l 608 993 q 467 1065 533 1022 q 351 1164 400 1108 q 402 1198 371 1185 q 467 1217 433 1211 q 522 1222 500 1224 z "},"Ủ":{"ha":1113,"x_min":46,"x_max":1053,"o":"m 422 -21 q 213 59 282 -21 q 143 261 143 139 l 143 785 q 123 872 143 853 q 46 892 103 890 l 46 924 l 442 924 l 442 892 q 383 872 401 890 q 365 785 365 853 l 365 275 q 394 166 365 207 q 492 125 422 125 q 622 170 567 125 q 709 289 678 215 q 740 447 740 363 l 740 785 q 720 872 740 853 q 643 892 700 890 l 643 924 l 1032 924 l 1032 892 q 974 872 992 890 q 956 785 956 853 l 956 125 q 976 51 956 68 q 1053 32 997 35 l 1053 0 l 771 0 q 758 53 763 22 q 754 139 754 85 l 754 254 l 751 254 q 627 51 708 122 q 422 -21 546 -21 m 544 994 l 513 994 q 519 1044 513 1026 q 533 1077 526 1063 q 539 1110 539 1092 q 526 1141 539 1131 q 494 1151 514 1151 q 426 1118 457 1151 l 404 1140 q 561 1274 442 1274 q 646 1249 608 1274 q 683 1172 683 1225 q 665 1112 683 1135 q 622 1073 647 1089 q 575 1039 597 1057 q 544 994 553 1021 z "},"Ư":{"ha":1113,"x_min":46,"x_max":1188,"o":"m 1032 892 q 974 872 992 890 q 956 785 956 853 l 956 125 q 976 51 956 68 q 1053 32 997 35 l 1053 0 l 771 0 q 758 53 763 22 q 754 139 754 85 l 754 254 l 751 254 q 627 51 708 122 q 422 -21 546 -21 q 213 59 282 -21 q 143 261 143 139 l 143 785 q 123 872 143 853 q 46 892 103 890 l 46 924 l 442 924 l 442 892 q 383 872 401 890 q 365 785 365 853 l 365 275 q 394 166 365 207 q 492 125 422 125 q 622 170 567 125 q 709 289 678 215 q 740 447 740 363 l 740 785 q 720 872 740 853 q 643 892 700 890 l 643 924 l 949 924 q 1019 949 993 924 q 1044 1014 1044 975 q 1033 1056 1044 1035 q 989 1083 1021 1076 l 989 1115 q 1033 1129 1011 1125 q 1075 1133 1056 1133 q 1156 1106 1124 1133 q 1188 1028 1188 1078 q 1141 926 1188 961 q 1032 892 1094 892 z "},"Ứ":{"ha":1113,"x_min":46,"x_max":1188,"o":"m 1032 892 q 974 872 992 890 q 956 785 956 853 l 956 125 q 976 51 956 68 q 1053 32 997 35 l 1053 0 l 771 0 q 758 53 763 22 q 754 139 754 85 l 754 254 l 751 254 q 627 51 708 122 q 422 -21 546 -21 q 213 59 282 -21 q 143 261 143 139 l 143 785 q 123 872 143 853 q 46 892 103 890 l 46 924 l 442 924 l 442 892 q 383 872 401 890 q 365 785 365 853 l 365 275 q 394 166 365 207 q 492 125 422 125 q 622 170 567 125 q 709 289 678 215 q 740 447 740 363 l 740 785 q 720 872 740 853 q 643 892 700 890 l 643 924 l 949 924 q 1019 949 993 924 q 1044 1014 1044 975 q 1033 1056 1044 1035 q 989 1083 1021 1076 l 989 1115 q 1033 1129 1011 1125 q 1075 1133 1056 1133 q 1156 1106 1124 1133 q 1188 1028 1188 1078 q 1141 926 1188 961 q 1032 892 1094 892 m 601 1222 q 658 1217 625 1224 q 722 1198 690 1211 q 772 1164 753 1185 q 658 1065 725 1108 q 515 993 590 1022 l 489 1006 q 563 1114 538 1060 q 601 1222 588 1168 z "},"Ự":{"ha":1113,"x_min":46,"x_max":1188,"o":"m 1032 892 q 974 872 992 890 q 956 785 956 853 l 956 125 q 976 51 956 68 q 1053 32 997 35 l 1053 0 l 771 0 q 758 53 763 22 q 754 139 754 85 l 754 254 l 751 254 q 627 51 708 122 q 422 -21 546 -21 q 213 59 282 -21 q 143 261 143 139 l 143 785 q 123 872 143 853 q 46 892 103 890 l 46 924 l 442 924 l 442 892 q 383 872 401 890 q 365 785 365 853 l 365 275 q 394 166 365 207 q 492 125 422 125 q 622 170 567 125 q 709 289 678 215 q 740 447 740 363 l 740 785 q 720 872 740 853 q 643 892 700 890 l 643 924 l 949 924 q 1019 949 993 924 q 1044 1014 1044 975 q 1033 1056 1044 1035 q 989 1083 1021 1076 l 989 1115 q 1033 1129 1011 1125 q 1075 1133 1056 1133 q 1156 1106 1124 1133 q 1188 1028 1188 1078 q 1141 926 1188 961 q 1032 892 1094 892 m 557 -294 q 480 -262 511 -294 q 449 -186 449 -231 q 480 -109 449 -142 q 557 -76 511 -76 q 634 -109 603 -76 q 665 -186 665 -142 q 634 -262 665 -231 q 557 -294 603 -294 z "},"Ừ":{"ha":1113,"x_min":46,"x_max":1188,"o":"m 1032 892 q 974 872 992 890 q 956 785 956 853 l 956 125 q 976 51 956 68 q 1053 32 997 35 l 1053 0 l 771 0 q 758 53 763 22 q 754 139 754 85 l 754 254 l 751 254 q 627 51 708 122 q 422 -21 546 -21 q 213 59 282 -21 q 143 261 143 139 l 143 785 q 123 872 143 853 q 46 892 103 890 l 46 924 l 442 924 l 442 892 q 383 872 401 890 q 365 785 365 853 l 365 275 q 394 166 365 207 q 492 125 422 125 q 622 170 567 125 q 709 289 678 215 q 740 447 740 363 l 740 785 q 720 872 740 853 q 643 892 700 890 l 643 924 l 949 924 q 1019 949 993 924 q 1044 1014 1044 975 q 1033 1056 1044 1035 q 989 1083 1021 1076 l 989 1115 q 1033 1129 1011 1125 q 1075 1133 1056 1133 q 1156 1106 1124 1133 q 1188 1028 1188 1078 q 1141 926 1188 961 q 1032 892 1094 892 m 535 1222 q 574 1114 549 1168 q 647 1006 600 1060 l 621 993 q 479 1065 546 1022 q 364 1164 413 1108 q 415 1198 383 1185 q 479 1217 446 1211 q 535 1222 513 1224 z "},"Ử":{"ha":1113,"x_min":46,"x_max":1188,"o":"m 1032 892 q 974 872 992 890 q 956 785 956 853 l 956 125 q 976 51 956 68 q 1053 32 997 35 l 1053 0 l 771 0 q 758 53 763 22 q 754 139 754 85 l 754 254 l 751 254 q 627 51 708 122 q 422 -21 546 -21 q 213 59 282 -21 q 143 261 143 139 l 143 785 q 123 872 143 853 q 46 892 103 890 l 46 924 l 442 924 l 442 892 q 383 872 401 890 q 365 785 365 853 l 365 275 q 394 166 365 207 q 492 125 422 125 q 622 170 567 125 q 709 289 678 215 q 740 447 740 363 l 740 785 q 720 872 740 853 q 643 892 700 890 l 643 924 l 949 924 q 1019 949 993 924 q 1044 1014 1044 975 q 1033 1056 1044 1035 q 989 1083 1021 1076 l 989 1115 q 1033 1129 1011 1125 q 1075 1133 1056 1133 q 1156 1106 1124 1133 q 1188 1028 1188 1078 q 1141 926 1188 961 q 1032 892 1094 892 m 557 994 l 525 994 q 532 1044 525 1026 q 545 1077 539 1063 q 551 1110 551 1092 q 539 1141 551 1131 q 507 1151 526 1151 q 439 1118 469 1151 l 417 1140 q 574 1274 454 1274 q 658 1249 621 1274 q 696 1172 696 1225 q 678 1112 696 1135 q 635 1073 660 1089 q 588 1039 610 1057 q 557 994 565 1021 z "},"Ữ":{"ha":1113,"x_min":46,"x_max":1188,"o":"m 1032 892 q 974 872 992 890 q 956 785 956 853 l 956 125 q 976 51 956 68 q 1053 32 997 35 l 1053 0 l 771 0 q 758 53 763 22 q 754 139 754 85 l 754 254 l 751 254 q 627 51 708 122 q 422 -21 546 -21 q 213 59 282 -21 q 143 261 143 139 l 143 785 q 123 872 143 853 q 46 892 103 890 l 46 924 l 442 924 l 442 892 q 383 872 401 890 q 365 785 365 853 l 365 275 q 394 166 365 207 q 492 125 422 125 q 622 170 567 125 q 709 289 678 215 q 740 447 740 363 l 740 785 q 720 872 740 853 q 643 892 700 890 l 643 924 l 949 924 q 1019 949 993 924 q 1044 1014 1044 975 q 1033 1056 1044 1035 q 989 1083 1021 1076 l 989 1115 q 1033 1129 1011 1125 q 1075 1133 1056 1133 q 1156 1106 1124 1133 q 1188 1028 1188 1078 q 1141 926 1188 961 q 1032 892 1094 892 m 436 1068 q 353 1000 372 1068 l 321 1007 q 364 1149 332 1097 q 458 1200 396 1200 q 535 1183 496 1200 q 613 1149 575 1167 q 678 1132 650 1132 q 761 1200 742 1132 l 793 1193 q 751 1052 783 1104 q 656 1000 718 1000 q 578 1017 618 1000 q 502 1051 539 1035 q 436 1068 465 1068 z "},"Ű":{"ha":1113,"x_min":46,"x_max":1053,"o":"m 422 -21 q 213 59 282 -21 q 143 261 143 139 l 143 785 q 123 872 143 853 q 46 892 103 890 l 46 924 l 442 924 l 442 892 q 383 872 401 890 q 365 785 365 853 l 365 275 q 394 166 365 207 q 492 125 422 125 q 622 170 567 125 q 709 289 678 215 q 740 447 740 363 l 740 785 q 720 872 740 853 q 643 892 700 890 l 643 924 l 1032 924 l 1032 892 q 974 872 992 890 q 956 785 956 853 l 956 125 q 976 51 956 68 q 1053 32 997 35 l 1053 0 l 771 0 q 758 53 763 22 q 754 139 754 85 l 754 254 l 751 254 q 627 51 708 122 q 422 -21 546 -21 m 513 1236 q 597 1224 547 1239 q 676 1178 647 1208 q 562 1079 629 1122 q 419 1007 494 1036 l 393 1019 q 473 1128 446 1074 q 513 1236 500 1182 m 721 1236 q 806 1224 756 1239 q 885 1178 856 1208 q 770 1079 838 1122 q 628 1007 703 1036 l 601 1019 q 682 1128 654 1074 q 721 1236 710 1182 z "},"Ȗ":{"ha":1113,"x_min":46,"x_max":1053,"o":"m 422 -21 q 213 59 282 -21 q 143 261 143 139 l 143 785 q 123 872 143 853 q 46 892 103 890 l 46 924 l 442 924 l 442 892 q 383 872 401 890 q 365 785 365 853 l 365 275 q 394 166 365 207 q 492 125 422 125 q 622 170 567 125 q 709 289 678 215 q 740 447 740 363 l 740 785 q 720 872 740 853 q 643 892 700 890 l 643 924 l 1032 924 l 1032 892 q 974 872 992 890 q 956 785 956 853 l 956 125 q 976 51 956 68 q 1053 32 997 35 l 1053 0 l 771 0 q 758 53 763 22 q 754 139 754 85 l 754 254 l 751 254 q 627 51 708 122 q 422 -21 546 -21 m 703 993 q 633 1063 676 1040 q 544 1086 589 1086 q 457 1063 500 1086 q 386 993 414 1040 l 360 1006 q 419 1163 371 1108 q 544 1218 468 1218 q 669 1163 621 1218 q 729 1006 718 1108 l 703 993 z "},"Ū":{"ha":1113,"x_min":46,"x_max":1053,"o":"m 422 -21 q 213 59 282 -21 q 143 261 143 139 l 143 785 q 123 872 143 853 q 46 892 103 890 l 46 924 l 442 924 l 442 892 q 383 872 401 890 q 365 785 365 853 l 365 275 q 394 166 365 207 q 492 125 422 125 q 622 170 567 125 q 709 289 678 215 q 740 447 740 363 l 740 785 q 720 872 740 853 q 643 892 700 890 l 643 924 l 1032 924 l 1032 892 q 974 872 992 890 q 956 785 956 853 l 956 125 q 976 51 956 68 q 1053 32 997 35 l 1053 0 l 771 0 q 758 53 763 22 q 754 139 754 85 l 754 254 l 751 254 q 627 51 708 122 q 422 -21 546 -21 m 322 1158 l 767 1158 l 767 1043 l 322 1043 l 322 1158 z "},"Ṻ":{"ha":1113,"x_min":46,"x_max":1053,"o":"m 422 -21 q 213 59 282 -21 q 143 261 143 139 l 143 785 q 123 872 143 853 q 46 892 103 890 l 46 924 l 442 924 l 442 892 q 383 872 401 890 q 365 785 365 853 l 365 275 q 394 166 365 207 q 492 125 422 125 q 622 170 567 125 q 709 289 678 215 q 740 447 740 363 l 740 785 q 720 872 740 853 q 643 892 700 890 l 643 924 l 1032 924 l 1032 892 q 974 872 992 890 q 956 785 956 853 l 956 125 q 976 51 956 68 q 1053 32 997 35 l 1053 0 l 771 0 q 758 53 763 22 q 754 139 754 85 l 754 254 l 751 254 q 627 51 708 122 q 422 -21 546 -21 m 322 1158 l 767 1158 l 767 1043 l 322 1043 l 322 1158 m 397 1232 q 315 1265 349 1232 q 282 1346 282 1299 q 315 1426 282 1392 q 397 1460 349 1460 q 478 1426 444 1460 q 511 1346 511 1392 q 478 1265 511 1299 q 397 1232 444 1232 m 686 1232 q 604 1265 638 1232 q 571 1346 571 1299 q 604 1426 571 1392 q 686 1460 638 1460 q 767 1426 733 1460 q 800 1346 800 1392 q 767 1265 800 1299 q 686 1232 733 1232 z "},"Ų":{"ha":1113,"x_min":46,"x_max":1053,"o":"m 422 -21 q 213 59 282 -21 q 143 261 143 139 l 143 785 q 123 872 143 853 q 46 892 103 890 l 46 924 l 442 924 l 442 892 q 383 872 401 890 q 365 785 365 853 l 365 275 q 394 166 365 207 q 492 125 422 125 q 622 170 567 125 q 709 289 678 215 q 740 447 740 363 l 740 785 q 720 872 740 853 q 643 892 700 890 l 643 924 l 1032 924 l 1032 892 q 974 872 992 890 q 956 785 956 853 l 956 125 q 976 51 956 68 q 1053 32 997 35 l 1053 0 l 771 0 q 758 53 763 22 q 754 139 754 85 l 754 254 l 751 254 q 627 51 708 122 q 422 -21 546 -21 m 758 -326 q 697 -315 728 -326 q 645 -276 665 -303 q 625 -206 625 -250 q 652 -112 625 -153 q 719 -44 679 -72 q 799 -3 760 -17 l 799 0 l 931 0 q 839 -31 874 0 q 789 -103 804 -62 q 774 -174 774 -143 q 802 -234 774 -219 q 871 -242 831 -249 l 886 -264 q 831 -310 864 -294 q 758 -326 797 -326 z "},"Ů":{"ha":1113,"x_min":46,"x_max":1053,"o":"m 422 -21 q 213 59 282 -21 q 143 261 143 139 l 143 785 q 123 872 143 853 q 46 892 103 890 l 46 924 l 442 924 l 442 892 q 383 872 401 890 q 365 785 365 853 l 365 275 q 394 166 365 207 q 492 125 422 125 q 622 170 567 125 q 709 289 678 215 q 740 447 740 363 l 740 785 q 720 872 740 853 q 643 892 700 890 l 643 924 l 1032 924 l 1032 892 q 974 872 992 890 q 956 785 956 853 l 956 125 q 976 51 956 68 q 1053 32 997 35 l 1053 0 l 771 0 q 758 53 763 22 q 754 139 754 85 l 754 254 l 751 254 q 627 51 708 122 q 422 -21 546 -21 m 544 963 q 430 1006 476 963 q 383 1111 383 1049 q 430 1217 383 1174 q 544 1260 476 1260 q 661 1217 614 1260 q 708 1111 708 1174 q 661 1006 708 1049 q 544 963 614 963 m 546 1022 q 593 1047 575 1022 q 611 1110 611 1072 q 593 1173 611 1146 q 544 1200 575 1200 q 497 1174 514 1200 q 481 1113 481 1149 q 498 1049 481 1075 q 546 1022 515 1022 z "},"Ũ":{"ha":1113,"x_min":46,"x_max":1053,"o":"m 422 -21 q 213 59 282 -21 q 143 261 143 139 l 143 785 q 123 872 143 853 q 46 892 103 890 l 46 924 l 442 924 l 442 892 q 383 872 401 890 q 365 785 365 853 l 365 275 q 394 166 365 207 q 492 125 422 125 q 622 170 567 125 q 709 289 678 215 q 740 447 740 363 l 740 785 q 720 872 740 853 q 643 892 700 890 l 643 924 l 1032 924 l 1032 892 q 974 872 992 890 q 956 785 956 853 l 956 125 q 976 51 956 68 q 1053 32 997 35 l 1053 0 l 771 0 q 758 53 763 22 q 754 139 754 85 l 754 254 l 751 254 q 627 51 708 122 q 422 -21 546 -21 m 424 1068 q 340 1000 360 1068 l 308 1007 q 351 1149 319 1097 q 446 1200 383 1200 q 523 1183 483 1200 q 600 1149 563 1167 q 665 1132 638 1132 q 749 1200 729 1132 l 781 1193 q 738 1052 771 1104 q 643 1000 706 1000 q 566 1017 606 1000 q 490 1051 526 1035 q 424 1068 453 1068 z "},"Ṹ":{"ha":1113,"x_min":46,"x_max":1053,"o":"m 422 -21 q 213 59 282 -21 q 143 261 143 139 l 143 785 q 123 872 143 853 q 46 892 103 890 l 46 924 l 442 924 l 442 892 q 383 872 401 890 q 365 785 365 853 l 365 275 q 394 166 365 207 q 492 125 422 125 q 622 170 567 125 q 709 289 678 215 q 740 447 740 363 l 740 785 q 720 872 740 853 q 643 892 700 890 l 643 924 l 1032 924 l 1032 892 q 974 872 992 890 q 956 785 956 853 l 956 125 q 976 51 956 68 q 1053 32 997 35 l 1053 0 l 771 0 q 758 53 763 22 q 754 139 754 85 l 754 254 l 751 254 q 627 51 708 122 q 422 -21 546 -21 m 424 1068 q 340 1000 360 1068 l 308 1007 q 351 1149 319 1097 q 446 1200 383 1200 q 523 1183 483 1200 q 600 1149 563 1167 q 665 1132 638 1132 q 749 1200 729 1132 l 781 1193 q 738 1052 771 1104 q 643 1000 706 1000 q 566 1017 606 1000 q 490 1051 526 1035 q 424 1068 453 1068 m 590 1460 q 647 1455 614 1461 q 710 1435 679 1449 q 761 1401 742 1422 q 647 1303 714 1346 q 504 1231 579 1260 l 478 1243 q 551 1351 526 1297 q 590 1460 576 1406 z "},"V":{"ha":897,"x_min":7,"x_max":875,"o":"m 410 -11 q 394 49 400 25 q 372 110 388 74 l 104 785 q 72 854 86 832 q 44 883 58 876 q 7 892 29 890 l 7 924 l 399 924 l 399 892 q 335 859 343 889 q 346 785 328 829 l 531 311 l 533 311 l 706 785 q 703 860 724 832 q 621 892 682 889 l 621 924 l 875 924 l 875 892 q 823 860 847 889 q 781 785 799 832 l 536 110 q 517 49 522 72 q 504 -11 511 25 l 410 -11 z "},"W":{"ha":1392,"x_min":19,"x_max":1386,"o":"m 325 -11 q 314 49 319 25 q 297 110 308 74 l 106 785 q 81 855 92 833 q 56 883 69 876 q 19 892 42 890 l 19 924 l 411 924 l 410 892 q 342 859 356 889 q 342 785 328 829 l 469 347 l 472 347 l 722 935 l 819 935 q 844 860 832 896 q 874 785 856 824 l 1068 347 l 1074 347 l 1210 785 q 1201 860 1225 832 q 1111 892 1176 889 l 1113 924 l 1386 924 l 1386 892 q 1328 860 1353 889 q 1290 785 1304 832 l 1090 110 q 1075 49 1081 74 q 1063 -11 1069 25 l 965 -11 q 949 49 957 25 q 925 110 940 74 l 694 639 l 690 639 l 463 110 q 440 49 447 72 q 424 -11 432 25 l 325 -11 z "},"Ẃ":{"ha":1392,"x_min":19,"x_max":1386,"o":"m 325 -11 q 314 49 319 25 q 297 110 308 74 l 106 785 q 81 855 92 833 q 56 883 69 876 q 19 892 42 890 l 19 924 l 411 924 l 410 892 q 342 859 356 889 q 342 785 328 829 l 469 347 l 472 347 l 722 935 l 819 935 q 844 860 832 896 q 874 785 856 824 l 1068 347 l 1074 347 l 1210 785 q 1201 860 1225 832 q 1111 892 1176 889 l 1113 924 l 1386 924 l 1386 892 q 1328 860 1353 889 q 1290 785 1304 832 l 1090 110 q 1075 49 1081 74 q 1063 -11 1069 25 l 965 -11 q 949 49 957 25 q 925 110 940 74 l 694 639 l 690 639 l 463 110 q 440 49 447 72 q 424 -11 432 25 l 325 -11 m 818 1222 q 874 1217 842 1224 q 938 1198 907 1211 q 989 1164 969 1185 q 874 1065 942 1108 q 732 993 807 1022 l 706 1006 q 779 1114 754 1060 q 818 1222 804 1168 z "},"Ŵ":{"ha":1392,"x_min":19,"x_max":1386,"o":"m 325 -11 q 314 49 319 25 q 297 110 308 74 l 106 785 q 81 855 92 833 q 56 883 69 876 q 19 892 42 890 l 19 924 l 411 924 l 410 892 q 342 859 356 889 q 342 785 328 829 l 469 347 l 472 347 l 722 935 l 819 935 q 844 860 832 896 q 874 785 856 824 l 1068 347 l 1074 347 l 1210 785 q 1201 860 1225 832 q 1111 892 1176 889 l 1113 924 l 1386 924 l 1386 892 q 1328 860 1353 889 q 1290 785 1304 832 l 1090 110 q 1075 49 1081 74 q 1063 -11 1069 25 l 965 -11 q 949 49 957 25 q 925 110 940 74 l 694 639 l 690 639 l 463 110 q 440 49 447 72 q 424 -11 432 25 l 325 -11 m 938 993 q 774 1075 844 1022 q 610 993 703 1022 l 583 1006 q 683 1125 636 1061 q 772 1249 731 1189 l 775 1249 q 865 1125 817 1189 q 964 1006 913 1061 l 938 993 z "},"Ẅ":{"ha":1392,"x_min":19,"x_max":1386,"o":"m 325 -11 q 314 49 319 25 q 297 110 308 74 l 106 785 q 81 855 92 833 q 56 883 69 876 q 19 892 42 890 l 19 924 l 411 924 l 410 892 q 342 859 356 889 q 342 785 328 829 l 469 347 l 472 347 l 722 935 l 819 935 q 844 860 832 896 q 874 785 856 824 l 1068 347 l 1074 347 l 1210 785 q 1201 860 1225 832 q 1111 892 1176 889 l 1113 924 l 1386 924 l 1386 892 q 1328 860 1353 889 q 1290 785 1304 832 l 1090 110 q 1075 49 1081 74 q 1063 -11 1069 25 l 965 -11 q 949 49 957 25 q 925 110 940 74 l 694 639 l 690 639 l 463 110 q 440 49 447 72 q 424 -11 432 25 l 325 -11 m 629 994 q 547 1028 581 994 q 514 1108 514 1061 q 547 1188 514 1154 q 629 1222 581 1222 q 710 1188 676 1222 q 743 1108 743 1154 q 710 1028 743 1061 q 629 994 676 994 m 918 994 q 836 1028 869 994 q 803 1108 803 1061 q 836 1188 803 1154 q 918 1222 869 1222 q 999 1188 965 1222 q 1032 1108 1032 1154 q 999 1028 1032 1061 q 918 994 965 994 z "},"Ẁ":{"ha":1392,"x_min":19,"x_max":1386,"o":"m 325 -11 q 314 49 319 25 q 297 110 308 74 l 106 785 q 81 855 92 833 q 56 883 69 876 q 19 892 42 890 l 19 924 l 411 924 l 410 892 q 342 859 356 889 q 342 785 328 829 l 469 347 l 472 347 l 722 935 l 819 935 q 844 860 832 896 q 874 785 856 824 l 1068 347 l 1074 347 l 1210 785 q 1201 860 1225 832 q 1111 892 1176 889 l 1113 924 l 1386 924 l 1386 892 q 1328 860 1353 889 q 1290 785 1304 832 l 1090 110 q 1075 49 1081 74 q 1063 -11 1069 25 l 965 -11 q 949 49 957 25 q 925 110 940 74 l 694 639 l 690 639 l 463 110 q 440 49 447 72 q 424 -11 432 25 l 325 -11 m 751 1222 q 791 1114 765 1168 q 864 1006 817 1060 l 838 993 q 696 1065 763 1022 q 581 1164 629 1108 q 631 1198 600 1185 q 696 1217 663 1211 q 751 1222 729 1224 z "},"X":{"ha":926,"x_min":4,"x_max":922,"o":"m 4 0 l 4 32 q 83 63 49 35 q 142 139 117 92 l 308 457 q 322 492 318 476 q 313 529 326 508 l 150 785 q 106 853 121 831 q 78 883 90 875 q 50 892 67 890 l 50 924 l 446 924 l 446 892 q 388 859 396 889 q 407 785 379 829 l 532 588 l 535 588 l 651 785 q 665 860 679 832 q 600 892 651 889 l 600 924 l 838 924 l 838 892 q 787 860 815 889 q 731 785 758 832 l 600 558 q 588 522 590 540 q 597 485 586 503 l 817 139 q 863 70 846 93 q 894 40 881 47 q 922 32 907 33 l 922 0 l 514 0 l 514 32 q 578 65 569 35 q 560 139 588 96 l 379 424 l 376 424 l 225 139 q 224 63 200 92 q 310 32 249 35 l 310 0 l 4 0 z "},"Y":{"ha":881,"x_min":7,"x_max":854,"o":"m 594 924 l 854 924 l 854 892 q 798 859 824 889 q 749 785 772 829 l 578 468 q 559 428 567 446 q 551 374 551 410 l 551 139 q 572 53 551 71 q 649 32 593 35 l 649 0 l 253 0 l 253 32 q 311 53 293 35 q 329 139 329 71 l 329 374 q 324 428 329 410 q 306 468 318 446 l 126 785 q 83 854 100 832 q 49 883 65 876 q 7 892 32 890 l 7 924 l 418 924 l 418 892 q 353 859 357 889 q 375 785 350 829 l 519 519 l 522 519 l 667 785 q 674 860 692 831 q 594 892 656 889 l 594 924 z "},"Ý":{"ha":881,"x_min":7,"x_max":854,"o":"m 594 924 l 854 924 l 854 892 q 798 859 824 889 q 749 785 772 829 l 578 468 q 559 428 567 446 q 551 374 551 410 l 551 139 q 572 53 551 71 q 649 32 593 35 l 649 0 l 253 0 l 253 32 q 311 53 293 35 q 329 139 329 71 l 329 374 q 324 428 329 410 q 306 468 318 446 l 126 785 q 83 854 100 832 q 49 883 65 876 q 7 892 32 890 l 7 924 l 418 924 l 418 892 q 353 859 357 889 q 375 785 350 829 l 519 519 l 522 519 l 667 785 q 674 860 692 831 q 594 892 656 889 l 594 924 m 542 1222 q 598 1217 565 1224 q 662 1198 631 1211 q 713 1164 693 1185 q 598 1065 665 1108 q 456 993 531 1022 l 429 1006 q 503 1114 478 1060 q 542 1222 528 1168 z "},"Ŷ":{"ha":881,"x_min":7,"x_max":854,"o":"m 594 924 l 854 924 l 854 892 q 798 859 824 889 q 749 785 772 829 l 578 468 q 559 428 567 446 q 551 374 551 410 l 551 139 q 572 53 551 71 q 649 32 593 35 l 649 0 l 253 0 l 253 32 q 311 53 293 35 q 329 139 329 71 l 329 374 q 324 428 329 410 q 306 468 318 446 l 126 785 q 83 854 100 832 q 49 883 65 876 q 7 892 32 890 l 7 924 l 418 924 l 418 892 q 353 859 357 889 q 375 785 350 829 l 519 519 l 522 519 l 667 785 q 674 860 692 831 q 594 892 656 889 l 594 924 m 661 993 q 497 1075 568 1022 q 333 993 426 1022 l 307 1006 q 407 1125 360 1061 q 496 1249 454 1189 l 499 1249 q 588 1125 540 1189 q 688 1006 636 1061 l 661 993 z "},"Ÿ":{"ha":881,"x_min":7,"x_max":854,"o":"m 594 924 l 854 924 l 854 892 q 798 859 824 889 q 749 785 772 829 l 578 468 q 559 428 567 446 q 551 374 551 410 l 551 139 q 572 53 551 71 q 649 32 593 35 l 649 0 l 253 0 l 253 32 q 311 53 293 35 q 329 139 329 71 l 329 374 q 324 428 329 410 q 306 468 318 446 l 126 785 q 83 854 100 832 q 49 883 65 876 q 7 892 32 890 l 7 924 l 418 924 l 418 892 q 353 859 357 889 q 375 785 350 829 l 519 519 l 522 519 l 667 785 q 674 860 692 831 q 594 892 656 889 l 594 924 m 353 994 q 271 1028 304 994 q 238 1108 238 1061 q 271 1188 238 1154 q 353 1222 304 1222 q 433 1188 400 1222 q 467 1108 467 1154 q 433 1028 467 1061 q 353 994 400 994 m 642 994 q 560 1028 593 994 q 526 1108 526 1061 q 560 1188 526 1154 q 642 1222 593 1222 q 722 1188 689 1222 q 756 1108 756 1154 q 722 1028 756 1061 q 642 994 689 994 z "},"Ẏ":{"ha":881,"x_min":7,"x_max":854,"o":"m 594 924 l 854 924 l 854 892 q 798 859 824 889 q 749 785 772 829 l 578 468 q 559 428 567 446 q 551 374 551 410 l 551 139 q 572 53 551 71 q 649 32 593 35 l 649 0 l 253 0 l 253 32 q 311 53 293 35 q 329 139 329 71 l 329 374 q 324 428 329 410 q 306 468 318 446 l 126 785 q 83 854 100 832 q 49 883 65 876 q 7 892 32 890 l 7 924 l 418 924 l 418 892 q 353 859 357 889 q 375 785 350 829 l 519 519 l 522 519 l 667 785 q 674 860 692 831 q 594 892 656 889 l 594 924 m 497 993 q 415 1026 449 993 q 382 1107 382 1060 q 415 1188 382 1154 q 497 1222 449 1222 q 578 1188 546 1222 q 611 1107 611 1154 q 578 1026 611 1060 q 497 993 546 993 z "},"Ỵ":{"ha":881,"x_min":7,"x_max":854,"o":"m 594 924 l 854 924 l 854 892 q 798 859 824 889 q 749 785 772 829 l 578 468 q 559 428 567 446 q 551 374 551 410 l 551 139 q 572 53 551 71 q 649 32 593 35 l 649 0 l 253 0 l 253 32 q 311 53 293 35 q 329 139 329 71 l 329 374 q 324 428 329 410 q 306 468 318 446 l 126 785 q 83 854 100 832 q 49 883 65 876 q 7 892 32 890 l 7 924 l 418 924 l 418 892 q 353 859 357 889 q 375 785 350 829 l 519 519 l 522 519 l 667 785 q 674 860 692 831 q 594 892 656 889 l 594 924 m 428 -294 q 351 -262 382 -294 q 319 -186 319 -231 q 351 -109 319 -142 q 428 -76 382 -76 q 505 -109 474 -76 q 536 -186 536 -142 q 505 -262 536 -231 q 428 -294 474 -294 z "},"Ỳ":{"ha":881,"x_min":7,"x_max":854,"o":"m 594 924 l 854 924 l 854 892 q 798 859 824 889 q 749 785 772 829 l 578 468 q 559 428 567 446 q 551 374 551 410 l 551 139 q 572 53 551 71 q 649 32 593 35 l 649 0 l 253 0 l 253 32 q 311 53 293 35 q 329 139 329 71 l 329 374 q 324 428 329 410 q 306 468 318 446 l 126 785 q 83 854 100 832 q 49 883 65 876 q 7 892 32 890 l 7 924 l 418 924 l 418 892 q 353 859 357 889 q 375 785 350 829 l 519 519 l 522 519 l 667 785 q 674 860 692 831 q 594 892 656 889 l 594 924 m 475 1222 q 515 1114 489 1168 q 588 1006 540 1060 l 561 993 q 419 1065 486 1022 q 304 1164 353 1108 q 355 1198 324 1185 q 419 1217 386 1211 q 475 1222 453 1224 z "},"Ỷ":{"ha":881,"x_min":7,"x_max":854,"o":"m 594 924 l 854 924 l 854 892 q 798 859 824 889 q 749 785 772 829 l 578 468 q 559 428 567 446 q 551 374 551 410 l 551 139 q 572 53 551 71 q 649 32 593 35 l 649 0 l 253 0 l 253 32 q 311 53 293 35 q 329 139 329 71 l 329 374 q 324 428 329 410 q 306 468 318 446 l 126 785 q 83 854 100 832 q 49 883 65 876 q 7 892 32 890 l 7 924 l 418 924 l 418 892 q 353 859 357 889 q 375 785 350 829 l 519 519 l 522 519 l 667 785 q 674 860 692 831 q 594 892 656 889 l 594 924 m 497 994 l 465 994 q 472 1044 465 1026 q 485 1077 479 1063 q 492 1110 492 1092 q 479 1141 492 1131 q 447 1151 467 1151 q 379 1118 410 1151 l 357 1140 q 514 1274 394 1274 q 599 1249 561 1274 q 636 1172 636 1225 q 618 1112 636 1135 q 575 1073 600 1089 q 528 1039 550 1057 q 497 994 506 1021 z "},"Ȳ":{"ha":881,"x_min":7,"x_max":854,"o":"m 594 924 l 854 924 l 854 892 q 798 859 824 889 q 749 785 772 829 l 578 468 q 559 428 567 446 q 551 374 551 410 l 551 139 q 572 53 551 71 q 649 32 593 35 l 649 0 l 253 0 l 253 32 q 311 53 293 35 q 329 139 329 71 l 329 374 q 324 428 329 410 q 306 468 318 446 l 126 785 q 83 854 100 832 q 49 883 65 876 q 7 892 32 890 l 7 924 l 418 924 l 418 892 q 353 859 357 889 q 375 785 350 829 l 519 519 l 522 519 l 667 785 q 674 860 692 831 q 594 892 656 889 l 594 924 m 275 1158 l 719 1158 l 719 1043 l 275 1043 l 275 1158 z "},"Ỹ":{"ha":881,"x_min":7,"x_max":854,"o":"m 594 924 l 854 924 l 854 892 q 798 859 824 889 q 749 785 772 829 l 578 468 q 559 428 567 446 q 551 374 551 410 l 551 139 q 572 53 551 71 q 649 32 593 35 l 649 0 l 253 0 l 253 32 q 311 53 293 35 q 329 139 329 71 l 329 374 q 324 428 329 410 q 306 468 318 446 l 126 785 q 83 854 100 832 q 49 883 65 876 q 7 892 32 890 l 7 924 l 418 924 l 418 892 q 353 859 357 889 q 375 785 350 829 l 519 519 l 522 519 l 667 785 q 674 860 692 831 q 594 892 656 889 l 594 924 m 376 1068 q 293 1000 313 1068 l 261 1007 q 304 1149 272 1097 q 399 1200 336 1200 q 476 1183 436 1200 q 553 1149 515 1167 q 618 1132 590 1132 q 701 1200 682 1132 l 733 1193 q 691 1052 724 1104 q 596 1000 658 1000 q 519 1017 558 1000 q 442 1051 479 1035 q 376 1068 406 1068 z "},"Z":{"ha":929,"x_min":67,"x_max":849,"o":"m 67 0 l 67 32 q 117 104 94 65 l 558 861 l 558 864 l 315 854 q 165 694 174 849 l 135 694 l 135 924 l 838 924 l 838 892 q 789 819 811 857 l 344 61 l 344 58 l 629 69 q 767 122 724 74 q 817 229 811 169 l 849 229 l 838 0 l 67 0 z "},"Ź":{"ha":929,"x_min":67,"x_max":849,"o":"m 67 0 l 67 32 q 117 104 94 65 l 558 861 l 558 864 l 315 854 q 165 694 174 849 l 135 694 l 135 924 l 838 924 l 838 892 q 789 819 811 857 l 344 61 l 344 58 l 629 69 q 767 122 724 74 q 817 229 811 169 l 849 229 l 838 0 l 67 0 m 531 1222 q 587 1217 554 1224 q 651 1198 619 1211 q 701 1164 682 1185 q 587 1065 654 1108 q 444 993 519 1022 l 418 1006 q 492 1114 467 1060 q 531 1222 517 1168 z "},"Ž":{"ha":929,"x_min":67,"x_max":849,"o":"m 67 0 l 67 32 q 117 104 94 65 l 558 861 l 558 864 l 315 854 q 165 694 174 849 l 135 694 l 135 924 l 838 924 l 838 892 q 789 819 811 857 l 344 61 l 344 58 l 629 69 q 767 122 724 74 q 817 229 811 169 l 849 229 l 838 0 l 67 0 m 650 1235 l 676 1222 q 577 1103 625 1167 q 488 979 529 1039 l 485 979 q 396 1103 443 1039 q 296 1222 349 1167 l 322 1235 q 486 1153 415 1206 q 650 1235 557 1206 z "},"Ż":{"ha":929,"x_min":67,"x_max":849,"o":"m 67 0 l 67 32 q 117 104 94 65 l 558 861 l 558 864 l 315 854 q 165 694 174 849 l 135 694 l 135 924 l 838 924 l 838 892 q 789 819 811 857 l 344 61 l 344 58 l 629 69 q 767 122 724 74 q 817 229 811 169 l 849 229 l 838 0 l 67 0 m 486 993 q 404 1026 438 993 q 371 1107 371 1060 q 404 1188 371 1154 q 486 1222 438 1222 q 567 1188 535 1222 q 600 1107 600 1154 q 567 1026 600 1060 q 486 993 535 993 z "},"Ẓ":{"ha":929,"x_min":67,"x_max":849,"o":"m 67 0 l 67 32 q 117 104 94 65 l 558 861 l 558 864 l 315 854 q 165 694 174 849 l 135 694 l 135 924 l 838 924 l 838 892 q 789 819 811 857 l 344 61 l 344 58 l 629 69 q 767 122 724 74 q 817 229 811 169 l 849 229 l 838 0 l 67 0 m 472 -329 q 394 -297 425 -329 q 363 -221 363 -265 q 394 -144 363 -176 q 472 -111 425 -111 q 549 -144 518 -111 q 581 -221 581 -176 q 549 -297 581 -265 q 472 -329 518 -329 z "},"ʙ":{"ha":797,"x_min":32,"x_max":756,"o":"m 53 0 l 53 32 q 90 42 76 33 q 110 76 104 50 q 115 153 115 101 l 115 486 q 108 564 115 539 q 84 597 101 589 q 32 607 67 606 l 32 639 l 108 639 q 201 640 163 639 q 272 643 239 642 q 344 646 306 644 q 439 647 383 647 q 606 628 549 647 q 684 578 663 608 q 706 514 706 547 q 672 428 706 467 q 565 375 639 390 l 565 371 q 706 315 657 361 q 756 201 756 269 q 682 55 756 110 q 443 0 608 0 l 53 0 m 324 358 q 353 372 338 368 q 390 378 368 375 q 456 416 429 383 q 483 497 483 449 q 463 565 483 538 q 396 592 442 592 q 336 573 349 592 q 324 519 324 554 l 324 358 m 385 60 q 458 72 424 60 q 513 115 492 85 q 533 197 533 144 q 502 289 533 256 q 422 322 471 322 q 324 250 324 322 l 324 126 q 332 76 324 93 q 385 60 340 60 z "},"ɢ":{"ha":728,"x_min":42,"x_max":694,"o":"m 390 -21 q 203 23 282 -21 q 83 142 125 67 q 42 308 42 217 q 76 465 42 399 q 166 574 110 531 q 291 638 222 617 q 429 660 360 660 q 535 649 478 660 q 625 615 592 639 l 625 431 l 593 431 q 526 563 575 525 q 422 600 476 600 q 307 535 350 600 q 264 342 264 469 q 276 200 264 267 q 318 92 288 133 q 404 50 349 50 q 440 53 421 50 q 475 72 460 56 q 485 111 485 83 q 485 182 486 139 q 482 238 485 221 q 470 262 479 256 q 439 271 461 268 l 439 303 l 694 303 l 694 271 q 676 256 681 269 q 672 214 672 243 l 672 196 q 673 159 672 172 q 675 135 674 146 q 681 103 676 124 q 610 40 657 68 q 507 -5 564 11 q 390 -21 450 -21 z "},"ʛ":{"ha":694,"x_min":42,"x_max":806,"o":"m 390 -21 q 203 23 282 -21 q 83 142 125 67 q 42 308 42 217 q 76 465 42 399 q 166 574 110 531 q 291 638 222 617 q 429 660 360 660 q 469 658 449 660 q 579 840 499 788 q 788 881 660 893 q 788 681 806 781 l 756 681 q 733 774 747 746 q 694 801 718 801 q 651 764 672 801 q 619 619 629 726 q 625 615 622 618 l 625 431 l 593 431 q 526 563 575 525 q 422 600 476 600 q 307 535 350 600 q 264 342 264 469 q 276 200 264 267 q 318 92 288 133 q 404 50 349 50 q 440 53 421 50 q 475 72 460 56 q 485 111 485 83 q 485 182 486 139 q 482 238 485 221 q 470 262 479 256 q 439 271 461 268 l 439 303 l 694 303 l 694 271 q 676 256 681 269 q 672 214 672 243 l 672 196 q 673 159 672 172 q 675 135 674 146 q 681 103 676 124 q 610 40 657 68 q 507 -5 564 11 q 390 -21 450 -21 z "},"ʜ":{"ha":856,"x_min":32,"x_max":824,"o":"m 740 486 l 740 153 q 747 76 740 101 q 772 42 754 50 q 824 32 790 33 l 824 0 l 469 0 l 469 32 q 507 42 493 33 q 526 76 521 50 q 532 153 532 101 l 532 342 q 504 329 521 332 q 467 326 488 326 l 392 326 q 339 314 354 326 q 324 265 324 301 l 324 153 q 331 76 324 101 q 356 42 338 50 q 407 32 374 33 l 407 0 l 53 0 l 53 32 q 90 42 76 33 q 110 76 104 50 q 115 153 115 101 l 115 486 q 108 564 115 539 q 84 597 101 589 q 32 607 67 606 l 32 639 l 386 639 l 386 607 q 349 597 363 606 q 329 564 335 589 q 324 486 324 539 l 324 372 q 351 383 335 381 q 389 386 367 386 l 464 386 q 517 399 501 386 q 532 449 532 411 l 532 486 q 525 564 532 539 q 501 597 518 589 q 449 607 483 606 l 449 639 l 803 639 l 803 607 q 765 597 779 606 q 746 564 751 589 q 740 486 740 539 z "},"ɪ":{"ha":439,"x_min":32,"x_max":407,"o":"m 53 0 l 53 32 q 90 42 76 33 q 110 76 104 50 q 115 153 115 101 l 115 486 q 108 564 115 539 q 84 597 101 589 q 32 607 67 606 l 32 639 l 386 639 l 386 607 q 349 597 363 606 q 329 564 335 589 q 324 486 324 539 l 324 153 q 331 76 324 101 q 356 42 338 50 q 407 32 374 33 l 407 0 l 53 0 z "},"ʟ":{"ha":603,"x_min":32,"x_max":581,"o":"m 549 204 l 581 204 l 572 0 l 53 0 l 53 32 q 90 42 76 33 q 110 76 104 50 q 115 153 115 101 l 115 486 q 108 564 115 539 q 84 597 101 589 q 32 607 67 606 l 32 639 l 386 639 l 386 607 q 349 597 363 606 q 329 564 335 589 q 324 486 324 539 l 324 122 q 338 72 324 88 q 408 56 353 56 l 438 56 q 517 99 492 56 q 549 204 543 143 z "},"ɴ":{"ha":743,"x_min":32,"x_max":711,"o":"m 603 -10 q 572 28 586 10 q 513 81 557 47 l 163 349 l 160 349 l 160 126 q 182 60 160 86 q 264 32 204 35 l 264 0 l 43 0 l 43 32 q 84 61 71 35 q 97 126 97 88 l 97 517 q 92 578 97 558 q 74 603 88 597 q 32 611 60 610 l 32 639 l 158 639 q 194 599 175 618 q 238 561 214 579 l 592 290 l 594 290 l 594 513 q 574 579 594 553 q 501 607 554 606 l 501 639 l 711 639 l 711 607 q 669 579 683 606 q 656 513 656 553 l 656 122 q 656 56 656 88 q 658 -10 657 25 l 603 -10 z "},"ɶ":{"ha":918,"x_min":42,"x_max":896,"o":"m 864 189 l 896 189 l 888 0 l 388 0 q 212 40 290 0 q 88 153 133 81 q 42 318 42 225 q 90 488 42 417 q 213 599 138 560 q 374 639 289 639 l 849 639 l 849 478 l 817 478 q 789 553 815 526 q 729 579 763 579 l 707 579 q 673 568 689 579 q 657 513 657 557 l 657 363 q 710 375 674 375 l 731 375 q 769 390 750 375 q 790 439 789 404 l 824 439 l 824 253 l 790 253 q 779 297 790 285 q 755 313 768 310 q 731 315 742 315 l 713 315 q 672 306 686 315 q 657 263 657 297 l 657 122 q 669 74 657 89 q 714 60 681 60 l 763 60 q 825 94 792 60 q 864 189 858 129 m 442 149 l 442 486 q 431 552 442 525 q 374 579 421 579 q 272 354 272 579 q 285 210 272 278 q 326 101 299 143 q 396 60 354 60 q 431 81 419 60 q 442 149 442 101 z "},"ʀ":{"ha":769,"x_min":32,"x_max":779,"o":"m 651 -14 q 525 24 571 -14 q 451 118 479 63 l 382 260 q 364 285 372 279 q 346 293 356 292 l 346 338 q 419 384 401 350 q 436 468 436 418 q 415 560 436 529 q 364 590 394 590 q 333 574 342 590 q 324 517 324 557 l 324 153 q 329 76 324 101 q 347 42 335 50 q 379 32 360 33 l 379 0 l 53 0 l 53 32 q 90 42 76 33 q 110 76 104 50 q 115 153 115 101 l 115 486 q 108 564 115 539 q 84 597 101 589 q 32 607 67 606 l 32 639 l 115 639 q 274 642 203 639 q 382 644 344 644 q 555 623 493 644 q 642 565 617 601 q 667 482 667 528 q 648 406 667 435 q 606 362 629 378 q 567 336 582 346 l 567 335 l 685 133 q 737 58 714 83 q 779 32 760 32 l 779 0 q 715 -12 743 -10 q 651 -14 688 -14 z "},"ʁ":{"ha":763,"x_min":32,"x_max":772,"o":"m 644 653 q 708 651 681 653 q 772 639 736 650 l 772 607 q 730 581 753 607 q 678 506 707 556 l 560 304 l 560 303 q 599 277 575 293 q 641 233 622 261 q 660 157 660 204 q 635 74 660 111 q 548 16 610 38 q 375 -6 486 -6 q 263 -3 338 -6 q 100 0 188 0 l 39 0 l 39 32 q 79 53 58 35 q 100 122 100 72 l 100 517 q 89 585 100 565 q 32 607 78 606 l 32 639 l 372 639 l 372 607 q 340 597 351 606 q 322 564 328 589 q 317 486 317 539 l 317 122 q 326 65 317 82 q 357 49 335 49 q 408 80 388 49 q 429 171 429 111 q 412 255 429 221 q 339 301 394 289 l 339 346 q 357 354 349 347 q 375 379 365 361 l 444 521 q 518 615 472 576 q 644 653 564 653 z "},"ʏ":{"ha":699,"x_min":7,"x_max":675,"o":"m 463 639 l 675 639 l 675 607 q 624 576 644 604 q 586 517 603 549 l 469 301 q 453 265 458 281 q 447 218 447 250 l 447 153 q 454 76 447 101 q 479 42 461 50 q 532 32 497 33 l 532 0 l 176 0 l 176 32 q 214 42 200 33 q 233 76 228 50 q 239 153 239 101 l 239 218 q 235 263 239 247 q 219 301 232 279 l 100 518 q 52 589 69 574 q 7 607 35 604 l 7 639 l 358 639 l 358 607 q 324 590 332 606 q 322 556 317 575 q 336 518 328 536 l 424 350 l 426 350 l 517 518 q 526 577 533 550 q 463 607 519 604 l 463 639 z "},"a":{"ha":742,"x_min":53,"x_max":751,"o":"m 203 -21 q 90 25 126 -21 q 53 131 53 71 q 137 279 53 222 q 397 383 221 336 l 397 457 q 370 551 397 522 q 294 579 343 579 q 184 529 228 579 q 124 394 140 479 l 92 394 l 92 594 q 215 639 139 618 q 379 660 290 660 q 619 474 619 660 l 619 171 q 628 122 619 139 q 661 104 636 104 q 692 110 675 104 q 729 135 710 117 l 751 113 q 671 17 721 49 q 557 -14 621 -14 q 452 13 489 -14 q 400 92 415 40 l 397 92 q 313 8 365 36 q 203 -21 260 -21 m 311 104 q 360 117 339 104 q 397 147 382 131 l 397 328 q 301 281 333 310 q 258 222 268 251 q 247 174 247 193 q 264 124 247 144 q 311 104 281 104 z "},"á":{"ha":742,"x_min":53,"x_max":751,"o":"m 203 -21 q 90 25 126 -21 q 53 131 53 71 q 137 279 53 222 q 397 383 221 336 l 397 457 q 370 551 397 522 q 294 579 343 579 q 184 529 228 579 q 124 394 140 479 l 92 394 l 92 594 q 215 639 139 618 q 379 660 290 660 q 619 474 619 660 l 619 171 q 628 122 619 139 q 661 104 636 104 q 692 110 675 104 q 729 135 710 117 l 751 113 q 671 17 721 49 q 557 -14 621 -14 q 452 13 489 -14 q 400 92 415 40 l 397 92 q 313 8 365 36 q 203 -21 260 -21 m 311 104 q 360 117 339 104 q 397 147 382 131 l 397 328 q 301 281 333 310 q 258 222 268 251 q 247 174 247 193 q 264 124 247 144 q 311 104 281 104 m 408 1049 q 463 1042 431 1049 q 527 1022 494 1035 q 581 990 560 1008 q 515 903 556 949 q 429 817 475 857 q 338 750 383 778 l 311 763 q 376 902 354 828 q 408 1049 399 976 z "},"ă":{"ha":742,"x_min":53,"x_max":751,"o":"m 203 -21 q 90 25 126 -21 q 53 131 53 71 q 137 279 53 222 q 397 383 221 336 l 397 457 q 370 551 397 522 q 294 579 343 579 q 184 529 228 579 q 124 394 140 479 l 92 394 l 92 594 q 215 639 139 618 q 379 660 290 660 q 619 474 619 660 l 619 171 q 628 122 619 139 q 661 104 636 104 q 692 110 675 104 q 729 135 710 117 l 751 113 q 671 17 721 49 q 557 -14 621 -14 q 452 13 489 -14 q 400 92 415 40 l 397 92 q 313 8 365 36 q 203 -21 260 -21 m 311 104 q 360 117 339 104 q 397 147 382 131 l 397 328 q 301 281 333 310 q 258 222 268 251 q 247 174 247 193 q 264 124 247 144 q 311 104 281 104 m 517 1006 l 543 993 q 487 803 538 863 q 365 744 436 744 q 244 803 294 744 q 188 993 193 863 l 214 1006 q 256 927 228 956 q 315 888 283 899 q 374 876 347 876 q 455 903 414 876 q 517 1006 496 929 z "},"ắ":{"ha":742,"x_min":53,"x_max":751,"o":"m 203 -21 q 90 25 126 -21 q 53 131 53 71 q 137 279 53 222 q 397 383 221 336 l 397 457 q 370 551 397 522 q 294 579 343 579 q 184 529 228 579 q 124 394 140 479 l 92 394 l 92 594 q 215 639 139 618 q 379 660 290 660 q 619 474 619 660 l 619 171 q 628 122 619 139 q 661 104 636 104 q 692 110 675 104 q 729 135 710 117 l 751 113 q 671 17 721 49 q 557 -14 621 -14 q 452 13 489 -14 q 400 92 415 40 l 397 92 q 313 8 365 36 q 203 -21 260 -21 m 311 104 q 360 117 339 104 q 397 147 382 131 l 397 328 q 301 281 333 310 q 258 222 268 251 q 247 174 247 193 q 264 124 247 144 q 311 104 281 104 m 517 1006 l 543 993 q 487 803 538 863 q 365 744 436 744 q 244 803 294 744 q 188 993 193 863 l 214 1006 q 256 927 228 956 q 315 888 283 899 q 374 876 347 876 q 455 903 414 876 q 517 1006 496 929 m 408 1342 q 463 1335 431 1342 q 527 1315 494 1328 q 581 1283 560 1301 q 515 1196 556 1242 q 429 1110 475 1150 q 338 1043 383 1071 l 311 1056 q 376 1195 354 1121 q 408 1342 399 1269 z "}}}
